<?xml version="1.0" encoding="UTF-8"?>
<!DOCTYPE svg PUBLIC "-//W3C//DTD SVG 1.1//EN" "http://www.w3.org/Graphics/SVG/1.1/DTD/svg11.dtd">
<!-- Creator: CorelDRAW X8 -->
<svg xmlns="http://www.w3.org/2000/svg" xml:space="preserve" width="59.2666mm" height="59.2666mm" version="1.1" shape-rendering="geometricPrecision" text-rendering="geometricPrecision" image-rendering="optimizeQuality" fill-rule="evenodd" clip-rule="evenodd"
viewBox="0 0 290869 290869"
 xmlns:xlink="http://www.w3.org/1999/xlink">
 <g id="Layer_x0020_1">
  <metadata id="CorelCorpID_0Corel-Layer"/>
  <g id="_2313255320720">
   <g>
    <path fill="#235B8E" d="M283446 282259c0,-2283 -423,-4472 -1177,-6086 -754,-1614 -1775,-2521 -2842,-2521 -31371,0 -236615,0 -267985,0 -1066,0 -2088,907 -2842,2521 -754,1614 -1177,3803 -1177,6086l0 3c0,2282 423,4472 1177,6086 754,1614 1776,2521 2842,2521 31370,0 236614,0 267985,0 1067,0 2088,-907 2842,-2521 754,-1614 1177,-3804 1177,-6086l0 -3z"/>
   </g>
   <g>
    <g>
     <polygon fill="#F58634" points="58470,164699 151304,164699 151304,281030 58470,281030 "/>
    </g>
    <g>
     <path fill="#F58634" d="M151303 264964l-126637 0c-1713,0 -3101,1388 -3101,3101 0,2840 0,7024 0,9864 0,1713 1388,3101 3101,3101 19702,0 126637,0 126637,0l0 -16066z"/>
    </g>
    <path fill="#F16436" d="M165599 168050l-92834 0 0 109879c0,822 327,1610 908,2193 582,580 1370,908 2193,908 14146,0 72486,0 86633,0 822,0 1611,-328 2192,-908 582,-583 908,-1371 908,-2193 0,-18156 0,-109879 0,-109879z"/>
    <g>
     <path fill="#AECDEB" d="M154970 179184c0,-1714 -1388,-3101 -3101,-3101 -11769,0 -53605,0 -65374,0 -1713,0 -3101,1387 -3101,3101 0,14571 0,76140 0,90711 0,1713 1388,3102 3101,3102 11769,0 53605,0 65374,0 1713,0 3101,-1389 3101,-3102 0,-14571 0,-76140 0,-90711z"/>
    </g>
    <g>
     <path fill="#F58634" d="M121653 55070l-83455 0c-2243,0 -4359,1040 -5728,2816 -1371,1776 -1839,4087 -1270,6256 7040,26825 27270,103908 27270,103908l92834 0 -29651 -112980z"/>
    </g>
    <g>
     <path fill="#F16436" d="M136961 58926c-597,-2272 -2650,-3856 -4999,-3856 -14801,0 -66610,0 -83488,0 -1282,0 -2491,595 -3274,1609 -783,1015 -1050,2336 -725,3575 5815,22159 28291,107796 28291,107796l92833 0 -28638 -109124z"/>
    </g>
    <g>
     <g>
      <path fill="#373435" d="M110337 144179c-238,-909 -1060,-1542 -1999,-1542 -5446,0 -23347,0 -30177,0 -641,0 -1245,297 -1636,805 -392,507 -525,1167 -363,1787 125,474 251,956 364,1387 239,909 1060,1543 2000,1543 5446,0 23347,0 30176,0 640,0 1245,-297 1636,-805 392,-507 526,-1167 363,-1787 -124,-475 -250,-956 -364,-1388z"/>
     </g>
     <g>
      <path fill="#373435" d="M149942 144179c-239,-909 -1060,-1542 -2000,-1542 -5446,0 -23347,0 -30176,0 -641,0 -1245,297 -1636,805 -392,507 -526,1167 -363,1787 124,474 250,956 364,1387 238,909 1060,1543 1999,1543 5446,0 23347,0 30177,0 639,0 1245,-297 1636,-805 392,-507 525,-1167 363,-1787 -125,-475 -251,-956 -364,-1388z"/>
     </g>
     <g>
      <path fill="#373435" d="M152394 153381c-238,-909 -1059,-1543 -1998,-1543 -9428,0 -57861,0 -69835,0 -641,0 -1246,297 -1638,804 -390,508 -525,1168 -362,1788 582,2219 1401,5340 1886,7186 238,909 1060,1543 1999,1543 9428,0 57861,0 69835,0 641,0 1245,-298 1637,-805 391,-507 525,-1167 362,-1787 -582,-2219 -1402,-5340 -1886,-7186z"/>
     </g>
    </g>
    <g>
     <g>
      <path fill="#D6E6F4" d="M129005 64258c-477,-1818 -2120,-3085 -3999,-3085 -11903,0 -53722,0 -66916,0 -961,0 -1868,445 -2455,1207 -587,760 -788,1751 -544,2680 3638,13863 15910,60622 18787,71585 357,1363 1590,2313 2999,2313 10696,0 54205,0 67713,0 961,0 1869,-446 2455,-1206 587,-762 788,-1752 544,-2681 -3558,-13559 -15376,-58589 -18584,-70813z"/>
     </g>
     <path fill="#5B9CD6" d="M125050 61173l-43 0 -1365 0c1879,0 3523,1267 3999,3085l19317 73603c30,-37 59,-73 88,-109 587,-762 787,-1752 543,-2681l-18584 -70813 -11 -43 -13 -42 -12 -42 -12 -42 -14 -42 -13 -41 -13 -42 -15 -41 -14 -40 -16 -41 -15 -41 -16 -39 -17 -40 -16 -39 -17 -41 -18 -39 -18 -39 -18 -39 -19 -38 -19 -38 -19 -38 -20 -38 -20 -38 -20 -37 -21 -37 -21 -36 -22 -38 -22 -36 -22 -36 -22 -35 -23 -36 -24 -36 -24 -35 -24 -34 -24 -34 -24 -34 -26 -34 -25 -34 -26 -33 -25 -34 -26 -32 -27 -32 -27 -32 -28 -33 -27 -32 -28 -30 -28 -31 -29 -32 -29 -30 -29 -30 -28 -30 -30 -30 -30 -29 -30 -28 -31 -28 -30 -29 -32 -28 -31 -27 -31 -28 -32 -27 -32 -27 -34 -25 -31 -26 -33 -26 -34 -26 -34 -25 -33 -24 -34 -25 -34 -24 -34 -23 -35 -24 -35 -22 -36 -23 -35 -23 -35 -21 -36 -22 -36 -21 -36 -21 -37 -20 -37 -20 -37 -20 -37 -19 -37 -20 -38 -19 -38 -17 -37 -19 -38 -16 -39 -18 -39 -16 -38 -17 -39 -15 -40 -17 -39 -14 -39 -16 -40 -13 -40 -15 -39 -13 -40 -14 -41 -12 -41 -12 -40 -13 -41 -11 -41 -12 -41 -10 -41 -10 -42 -11 -41 -9 -42 -9 -42 -9 -41 -8 -43 -8 -42 -7 -43 -8 -42 -6 -42 -6 -44 -5 -42 -5 -44 -6 -43 -4 -42 -3 -44 -4 -43 -3 -44 -3 -44 -2 -43 -1 -44 -1 -44 -1z"/>
    </g>
    <path fill="#EF4B5C" d="M65411 75570l24627 0c719,0 1326,474 1500,1171l1869 7477c119,478 22,939 -281,1327 -303,388 -727,595 -1219,595l-24627 0c-719,0 -1326,-474 -1500,-1171l-1870 -7477c-119,-478 -21,-939 282,-1327 302,-388 726,-595 1219,-595z"/>
    <path fill="#EF4B5C" d="M99067 75570l24627 0c719,0 1326,474 1500,1171l1869 7477c120,478 22,939 -281,1327 -303,388 -727,595 -1219,595l-24627 0c-719,0 -1326,-474 -1500,-1171l-1869 -7477c-120,-478 -22,-939 281,-1327 303,-388 727,-595 1219,-595z"/>
    <path fill="#EF4B5C" d="M70000 93928l24627 0c719,0 1326,474 1500,1171l1870 7477c119,478 21,939 -282,1327 -303,388 -727,595 -1219,595l-24627 0c-719,0 -1326,-474 -1500,-1172l-1869 -7477c-120,-477 -22,-938 281,-1326 303,-388 727,-595 1219,-595z"/>
    <path fill="#EF4B5C" d="M103656 93928l24628 0c719,0 1325,474 1499,1171l1870 7477c119,478 21,939 -281,1327 -303,388 -727,595 -1220,595l-24626 0c-719,0 -1327,-474 -1501,-1172l-1869 -7477c-119,-477 -22,-938 282,-1326 302,-388 726,-595 1218,-595z"/>
    <path fill="#EF4B5C" d="M74590 112286l24627 0c719,0 1326,474 1500,1171l1869 7477c120,478 22,939 -281,1327 -303,388 -727,594 -1219,594l-24627 0c-719,0 -1326,-473 -1501,-1171l-1869 -7477c-119,-477 -21,-938 282,-1326 302,-388 726,-595 1219,-595z"/>
    <path fill="#EF4B5C" d="M108246 112286l24627 0c719,0 1326,474 1500,1171l1870 7477c119,478 21,939 -282,1327 -303,388 -727,594 -1219,594l-24627 0c-719,0 -1326,-473 -1500,-1171l-1869 -7477c-120,-477 -22,-938 281,-1326 303,-388 727,-595 1219,-595z"/>
   </g>
   <g>
    <g>
     <path fill="#FFB533" d="M162718 222231c0,0 25875,2297 51436,-6078 -2642,-21950 -16725,-94937 -16725,-94937l-33606 -3360 -2835 24237 1730 80138z"/>
    </g>
    <g>
     <g>
      <path fill="#FDC4B5" d="M154961 117557c4304,2770 9523,8165 1680,13271 -5913,3848 -21774,-12889 -28989,-18544 -1638,-1285 3454,-9857 5018,-8953 4682,2708 16297,10369 22291,14226z"/>
     </g>
     <g>
      <path fill="#FFC359" d="M158072 129780c-2244,2303 -9768,743 -11000,-5000 -922,-4293 16291,-24973 21155,-27706 4120,-2314 10036,8445 8034,11307 -2513,3592 -13469,16554 -18189,21399z"/>
     </g>
     <g>
      <path fill="#FDC4B5" d="M133108 103871c0,0 -425,-2667 -1170,-4282 -517,-1119 -2516,-6720 -3227,-7875 -459,-749 -1919,-708 -2127,687 -199,1343 457,5534 457,5534 0,0 -5898,-4841 -6885,-5737 -996,-903 -1885,-1001 -2651,-198 -431,451 -492,1167 81,1724 1525,1480 4081,3847 5264,4916 -2748,2545 -5037,7788 -4669,8229 1296,1554 3350,2833 5243,3896 1853,1040 4229,1520 4229,1520l5455 -8414z"/>
     </g>
     <g>
      <path fill="#FD8967" fill-rule="nonzero" d="M127895 104747c-64,0 -127,-27 -172,-79 -63,-74 -1536,-1857 -916,-5121 23,-122 141,-203 263,-179 123,23 203,141 179,263 -577,3041 804,4729 818,4746 80,95 68,237 -27,317 -43,36 -94,53 -145,53z"/>
     </g>
     <g>
      <g>
       <g>
        <path fill="#FDC4B5" d="M119418 103815c0,0 -2269,822 -1941,2569 225,1192 1386,2207 2783,2599 1663,465 3110,-560 3216,-1252 106,-693 -731,-1383 -1975,-871 0,0 -756,-546 -1398,-998 -641,-452 -685,-2047 -685,-2047z"/>
        <path fill="#FD8967" fill-rule="nonzero" d="M121111 109328c-282,0 -587,-37 -912,-127 -1529,-428 -2712,-1543 -2944,-2775 -288,-1532 1238,-2517 2086,-2824 68,-25 144,-15 204,26 60,40 96,108 99,180 12,413 141,1553 590,1869 502,354 1074,765 1300,928 666,-240 1312,-184 1745,156 321,253 479,628 421,1004 -55,357 -367,751 -835,1053 -276,177 -906,510 -1754,510zm-1898 -5176l0 0c-559,276 -1736,1006 -1513,2190 201,1067 1254,2040 2621,2422 1127,316 1983,-123 2298,-327 426,-274 608,-570 634,-740 32,-213 -63,-430 -254,-580 -329,-258 -857,-276 -1412,-47 -72,29 -155,20 -219,-26 0,0 -755,-546 -1395,-996 -542,-383 -709,-1367 -760,-1896z"/>
       </g>
      </g>
      <g>
       <g>
        <path fill="#FDC4B5" d="M121084 100711c0,0 -2842,452 -2852,2572 -7,1447 1124,2898 2672,3671 1843,921 3769,47 4050,-739 280,-788 -544,-1785 -2117,-1466 0,0 -762,-811 -1412,-1484 -648,-675 -341,-2554 -341,-2554z"/>
        <path fill="#FD8967" fill-rule="nonzero" d="M122556 107575c-515,0 -1117,-103 -1752,-420 -1679,-839 -2803,-2395 -2796,-3873 10,-2285 3011,-2787 3041,-2792 71,-11 143,12 194,63 51,51 74,123 63,194 -80,493 -186,1876 281,2362 521,540 1114,1169 1330,1398 828,-137 1565,68 1989,557 309,356 406,814 259,1226 -140,394 -585,774 -1190,1017 -265,107 -774,268 -1419,268zm-1735 -6576l0 0c-694,181 -2358,772 -2365,2285 -6,1311 1019,2706 2548,3470 1266,632 2383,307 2804,137 473,-190 840,-485 935,-751 92,-258 27,-551 -175,-782 -338,-390 -968,-535 -1686,-389 -77,15 -155,-10 -208,-66 -1,-1 -762,-810 -1410,-1483 -555,-578 -506,-1818 -443,-2421z"/>
       </g>
      </g>
      <g>
       <path fill="#FDC4B5" d="M122936 98639c0,0 -2878,4 -3218,2097 -231,1429 661,3038 2070,4043 1677,1195 3716,631 4116,-102 399,-734 -261,-1848 -1864,-1777 0,0 -764,-840 -1164,-1685 1120,-1333 60,-2576 60,-2576z"/>
      </g>
      <g>
       <path fill="#FD8967" fill-rule="nonzero" d="M123930 105696c-622,0 -1449,-148 -2272,-735 -1528,-1089 -2397,-2802 -2161,-4261 365,-2254 3408,-2285 3438,-2285 0,0 1,0 1,0 124,0 224,100 224,223 0,124 -100,225 -224,225 -27,0 -2692,31 -2997,1909 -209,1295 586,2831 1979,3824 1151,821 2306,673 2748,571 497,-114 905,-349 1041,-597 130,-240 111,-539 -52,-800 -273,-437 -869,-680 -1605,-646 -124,10 -223,-85 -234,-204 -5,-65 18,-126 58,-171 -51,-208 -393,-821 -1129,-1353 -101,-72 -124,-212 -51,-313 73,-101 213,-123 313,-51 719,520 1215,1215 1306,1644 769,32 1401,342 1722,857 250,399 274,867 66,1251 -201,368 -699,674 -1334,820 -184,42 -476,92 -837,92z"/>
      </g>
     </g>
     <g>
      <path fill="#FFC359" d="M156100 116867c4306,2770 8384,8855 541,13961 -5913,3848 -21599,-10050 -28814,-15705 -1639,-1284 6393,-11466 7961,-10542 5289,3117 14319,8428 20312,12286z"/>
     </g>
     <g>
      <g>
       <path fill="white" fill-rule="nonzero" d="M156101 116979c-21,0 -42,-5 -60,-18 -2466,-1604 -9000,-5593 -9066,-5633 -53,-33 -70,-102 -37,-155 32,-54 101,-70 155,-38 65,40 6603,4031 9070,5637 52,34 67,104 33,156 -21,34 -58,51 -95,51z"/>
      </g>
      <g>
       <path fill="white" fill-rule="nonzero" d="M129885 115330c-19,0 -38,-5 -56,-15 -54,-31 -72,-100 -42,-154 163,-285 4019,-6992 7194,-8735 54,-30 123,-10 153,44 30,55 10,124 -44,153 -3120,1714 -7068,8581 -7107,8650 -21,36 -59,57 -98,57z"/>
      </g>
     </g>
    </g>
    <g>
     <g>
      <path fill="#FDC4B5" d="M154899 258338c0,0 -232,3449 -2054,4729 -3469,2437 -9426,6051 -10340,6685 -4047,2808 -7798,6182 -7411,8816 283,1925 31895,-3006 35331,-6912 383,-2457 -809,-5978 -1475,-8911 -331,-1457 31,-4184 31,-4184l-14082 -223z"/>
     </g>
     <g>
      <g>
       <path fill="#1A4266" d="M169167 263661c-1889,2424 -3970,4866 -14874,8967 -4255,1601 -9053,-194 -11788,-2877 -2676,1747 -6398,4223 -7455,4997 -1857,1357 -2542,4391 -2587,6214 -3,152 22627,4 22927,0 1086,-18 15268,-8332 16078,-9254 359,-2297 -1298,-6283 -2301,-8047z"/>
      </g>
      <g>
       <path fill="#1A4266" d="M171469 271709c-506,3517 -1089,6403 -1877,9322l-3080 0 -1149 -6941 6106 -2381z"/>
      </g>
     </g>
     <g>
      <path fill="#1A4266" d="M162927 132136c-3470,14675 -7876,42433 -9041,64223 -601,11235 85,62598 85,62598 5246,1386 10570,1307 16041,284 0,0 4917,-38179 7706,-56240 1725,-11176 9900,-32819 12679,-43407 2584,-9848 597,-25761 597,-25761 0,0 -22311,-2010 -28067,-1697z"/>
     </g>
     <g>
      <g>
       <path fill="white" fill-rule="nonzero" d="M167306 258070c-3,0 -6,0 -9,0 -62,-5 -108,-60 -103,-122 37,-436 3664,-43712 4432,-49379 783,-5782 13282,-54513 16138,-64023 18,-60 81,-93 140,-76 60,19 94,81 76,141 -2855,9506 -15349,58212 -16130,63988 -768,5661 -4394,48931 -4431,49368 -5,59 -54,103 -113,103z"/>
      </g>
      <g>
       <path fill="white" fill-rule="nonzero" d="M163770 256401c-4326,0 -8891,-674 -8959,-684 -69,-11 -116,-75 -105,-143 10,-68 73,-113 142,-105 102,15 10221,1508 14536,31 65,-22 136,12 159,78 22,66 -13,137 -78,159 -1452,497 -3544,664 -5695,664z"/>
      </g>
     </g>
    </g>
    <g>
     <g>
      <path fill="#FDC4B5" d="M194036 253401c0,0 662,3393 -771,5098 -2727,3246 -7556,8268 -8276,9116 -3190,3753 -5949,7978 -4898,10424 767,1788 30053,-11097 32371,-15755 -261,-2472 -2318,-5569 -3715,-8232 -694,-1323 -1044,-4053 -1044,-4053l-13667 3402z"/>
     </g>
     <g>
      <g>
       <path fill="#1A4266" d="M209193 254881c-1203,2828 -2588,5723 -12072,12486 -3702,2640 -8799,2138 -12132,247 -2138,2376 -5099,5724 -5922,6744 -1445,1789 -1329,4896 -905,6670 36,148 21870,-5807 22159,-5888 1045,-297 12616,-11974 13162,-13073 -244,-2312 -2868,-5738 -4290,-7186z"/>
      </g>
      <g>
       <path fill="#1A4266" d="M213484 262068c414,3529 591,6468 580,9491l-2977 791 -2892 -6413 5289 -3869z"/>
      </g>
     </g>
     <g>
      <path fill="#1A4266" d="M176424 132103c-153,17012 -409,44913 1165,58788 1268,11180 16149,65445 16149,65445 5427,-8 11339,-1279 15775,-3570 0,0 -4172,-38739 -7887,-61525 -531,-6440 4944,-30734 5210,-41677 254,-10373 -4184,-18307 -4184,-18307 0,0 -20631,-123 -26228,846z"/>
     </g>
     <g>
      <g>
       <path fill="white" fill-rule="nonzero" d="M207076 252417c-54,0 -102,-39 -111,-94 -98,-569 -9804,-56934 -10518,-62608 -206,-1634 448,-5160 1353,-10040 2277,-12288 6089,-32854 1069,-50622 -17,-60 18,-123 78,-140 60,-17 122,19 139,78 5034,17819 1216,38418 -1065,50725 -901,4860 -1551,8372 -1350,9971 712,5668 10418,62029 10516,62598 11,61 -31,119 -92,130 -6,1 -13,2 -19,2z"/>
      </g>
      <g>
       <path fill="white" fill-rule="nonzero" d="M193384 255267c-100,0 -191,-67 -217,-167 -150,-565 -14917,-56520 -15802,-64181 -386,-3347 -533,-11256 -674,-18904 -128,-6909 -261,-14054 -569,-17738 -59,-699 -3768,-2372 -7319,-3585 -117,-41 -180,-168 -140,-286 40,-117 168,-179 285,-139 1253,428 7508,2632 7621,3972 310,3700 443,10852 570,17768 142,7638 288,15535 672,18860 882,7630 15641,63554 15789,64118 32,120 -39,243 -159,274 -19,6 -38,8 -57,8z"/>
      </g>
      <g>
       <path fill="white" fill-rule="nonzero" d="M194477 253184c-63,0 -117,-47 -125,-111 -7,-69 43,-131 111,-138 102,-12 10265,-1167 14056,-3703 58,-39 136,-23 174,34 38,58 23,135 -34,174 -3842,2570 -14065,3732 -14168,3744 -5,0 -10,0 -14,0z"/>
      </g>
     </g>
    </g>
    <g>
     <g>
      <path fill="#2869A3" d="M201257 127244c0,0 -9967,1866 -17347,2272 -7380,407 -20787,-1535 -20787,-1535l-368 4898c0,0 8549,2568 20579,2381 9907,-153 18081,-2746 19358,-3890l-1435 -4126z"/>
     </g>
     <path fill="white" d="M186513 91020c9451,-693 13138,3943 13397,6289 636,5759 3023,22417 2782,29935 -95,2977 -10655,4731 -21963,4422 -8785,-240 -17578,-1986 -17763,-2829 -643,-2930 109,-11171 613,-16040 628,-6072 1245,-10755 3922,-14644 1482,-2154 5263,-4262 6742,-4790 3149,-1128 7262,-1975 12270,-2343z"/>
    </g>
    <g>
     <path fill="#FFC359" d="M180590 91726c0,0 -6257,4019 -9647,9515 -1977,3204 -7207,23604 -9735,39485 -750,4716 -2267,11852 -2923,16054 275,-8101 2215,-23726 2797,-30237 578,-6471 1743,-21369 4945,-26790 3525,-5966 10250,-7437 14563,-8027z"/>
     <g>
      <path fill="white" fill-rule="nonzero" d="M160776 130004c-3,0 -6,0 -9,0 -62,-5 -108,-60 -104,-122 13,-154 1237,-15471 2215,-19782 14,-61 75,-99 135,-85 60,13 99,74 85,135 -975,4295 -2198,19596 -2210,19750 -4,59 -54,104 -112,104z"/>
      <path fill="white" fill-rule="nonzero" d="M162404 126981c-6,0 -11,-1 -17,-2 -61,-9 -104,-66 -95,-128 135,-943 3337,-23135 5576,-26676 2240,-3543 6246,-6099 6286,-6125 53,-33 122,-18 155,35 34,53 18,123 -34,156 -40,25 -4004,2556 -6216,6054 -2214,3501 -5511,26358 -5544,26588 -8,57 -56,98 -111,98z"/>
     </g>
    </g>
    <g>
     <g>
      <g>
       <path fill="#FDC4B5" d="M176557 89418c0,0 -747,5139 -575,7267 120,1480 9394,321 11826,-879 2358,-1163 3635,-2288 3786,-4019 219,-2489 70,-7083 70,-7083l-15107 4714z"/>
      </g>
      <g>
       <path fill="#FDC4B5" d="M162832 63893c-777,3320 -1456,7664 -1377,15163 25,2368 1545,10452 9599,11496 5360,694 9973,-177 14980,-1725 7358,-2275 7946,-4513 8891,-9726 1320,-7282 1566,-23399 -7996,-25455 -14351,-3086 -21726,129 -24097,10247z"/>
      </g>
     </g>
     <g>
      <g>
       <path fill="#FD8967" fill-rule="nonzero" d="M166302 78774c-18,0 -36,-3 -54,-9 -65,-22 -1614,-546 -1965,-1378 -105,-248 -98,-497 19,-741 499,-1036 1682,-4198 1694,-4229 32,-88 130,-131 217,-100 87,33 132,130 99,218 -48,130 -1199,3208 -1705,4257 -75,155 -79,307 -13,464 242,573 1353,1052 1761,1189 89,29 137,125 107,213 -23,71 -90,116 -160,116z"/>
      </g>
      <g>
       <g>
        <path fill="#000001" fill-rule="nonzero" d="M173176 68896c-188,0 -351,-142 -372,-334 -6,-43 -137,-1076 -900,-1125 -828,-52 -1258,828 -1262,837 -89,187 -313,267 -500,178 -188,-89 -268,-313 -179,-500 26,-56 654,-1349 1989,-1264 1113,71 1532,1202 1598,1791 23,206 -126,392 -332,415 -14,1 -28,2 -42,2z"/>
       </g>
       <g>
        <path fill="#000001" fill-rule="nonzero" d="M164354 68184c-166,0 -319,-112 -363,-281 -11,-41 -291,-1057 -1059,-1001 -827,55 -1122,979 -1125,988 -61,198 -272,310 -469,248 -198,-61 -310,-271 -248,-470 18,-58 456,-1426 1792,-1516 1101,-71 1686,989 1836,1561 52,201 -68,406 -269,459 -31,8 -63,12 -95,12z"/>
       </g>
      </g>
      <g>
       <g>
        <path fill="#000001" d="M173181 73052c100,-1436 -835,-3195 -2408,-2399 -1574,797 -1406,4402 158,4798 1564,395 2135,-756 2250,-2399z"/>
       </g>
       <g>
        <path fill="#000001" d="M164411 72505c121,-1373 -682,-3031 -2110,-2237 -1428,795 -1353,4232 42,4575 1394,344 1930,-768 2068,-2338z"/>
       </g>
      </g>
      <g>
       <path fill="#F46957" fill-rule="nonzero" d="M167704 84287c-1794,0 -2591,-1609 -2600,-1627 -53,-112 -7,-246 105,-299 111,-55 245,-8 300,104 33,68 833,1662 2695,1326 1181,-212 1910,-1078 2165,-2575 21,-122 136,-204 259,-183 122,20 205,136 184,258 -287,1679 -1161,2697 -2529,2943 -203,36 -396,53 -579,53z"/>
      </g>
     </g>
     <g>
      <g>
       <path fill="#000001" d="M195772 54166c205,-761 1089,-2667 5314,-3442 4044,-741 7847,-758 12336,2363 2775,1930 5272,5949 4112,11986 -959,4987 -3450,8737 -4621,12133 -1664,4828 1545,9367 275,10904 -615,746 -4492,101 -7123,-2572 -2092,-2126 -3177,-5823 -2773,-9065 449,-3611 63,-10975 -1474,-11597l-6046 -10710z"/>
      </g>
      <g>
       <path fill="#F26756" d="M193880 53522c0,0 2366,-1712 5939,1660 3572,3373 5059,11548 1186,13181l-7125 -14841z"/>
      </g>
      <g>
       <path fill="#000001" d="M188468 57880c-2431,1602 -4260,7282 -4959,10198 -856,3572 -2089,7147 -1163,7785 1326,914 2494,-2106 3060,-3079 609,-1047 449,8066 1139,10257 1164,3700 4749,5198 8352,3261 3426,-1842 6207,-7519 7127,-13098 920,-5580 -205,-13284 -5132,-15418 -4207,-1821 -5567,-1789 -8424,94z"/>
      </g>
      <path fill="#000001" d="M182017 68243c4532,1276 16346,-7984 16287,-9622 -228,-6278 -13337,-9998 -18154,-9869 -3510,93 -7684,1024 -10772,2602 -4524,2309 -11058,11195 -7659,12625 760,320 5663,818 7367,851 1251,23 3302,-1416 5669,-4706 -964,4747 2215,6699 7262,8119z"/>
     </g>
     <g>
      <g>
       <path fill="#FDC4B5" d="M185406 72784c510,-1186 2484,-1911 3885,88 1516,2164 696,7153 -4624,7232 0,0 177,-6015 739,-7320z"/>
      </g>
      <g>
       <g>
        <path fill="#FD8967" fill-rule="nonzero" d="M185758 77098c-13,0 -27,-2 -41,-5 -90,-22 -146,-114 -123,-205 22,-92 572,-2262 2067,-2886 86,-36 185,5 221,91 36,86 -5,186 -91,221 -1339,559 -1864,2634 -1869,2655 -19,77 -88,129 -164,129z"/>
       </g>
       <path fill="#FD8967" fill-rule="nonzero" d="M187466 76842c-77,0 -147,-53 -165,-131 -155,-671 -942,-1229 -950,-1234 -76,-54 -95,-159 -42,-236 53,-76 158,-95 236,-41 36,25 901,636 1086,1435 21,91 -36,181 -127,203 -13,2 -26,4 -38,4z"/>
      </g>
     </g>
    </g>
    <g>
     <path fill="#FFC359" d="M191669 90925c-6625,4035 -8787,5631 -11079,16328 -933,4351 2,14126 130,21189 354,19381 -1701,82914 1993,95099 1344,4432 32870,-246 35928,-5843 974,-1786 -4000,-69335 -8426,-77270 -4426,-7934 -6402,-11468 -6743,-13340 -343,-1871 1060,-22745 -662,-29189 -970,-3628 -6516,-6574 -11141,-6974z"/>
     <g>
      <path fill="white" fill-rule="nonzero" d="M182276 129682c-2,0 -5,-1 -8,-1 -61,-4 -109,-58 -104,-119 4,-68 459,-6718 837,-10566 421,-4290 1406,-14337 4408,-18959 2877,-4429 8222,-7724 8275,-7757 53,-32 123,-15 155,38 33,53 16,122 -37,155 -53,32 -5355,3302 -8204,7687 -2972,4576 -3954,14584 -4373,18857 -377,3846 -832,10493 -836,10560 -4,59 -54,105 -113,105z"/>
      <g>
       <path fill="white" fill-rule="nonzero" d="M189837 136678c-56,0 -105,-42 -112,-99 -7,-62 37,-118 99,-125 64,-7 6388,-769 10471,-3337 53,-33 122,-17 155,35 34,53 17,122 -35,155 -4127,2596 -10501,3363 -10565,3371 -4,0 -9,0 -13,0z"/>
       <g>
        <path fill="white" fill-rule="nonzero" d="M190485 138356c-57,0 -106,-42 -112,-100 -7,-61 37,-118 99,-124 63,-8 6387,-770 10471,-3338 53,-33 121,-17 155,35 33,53 17,122 -36,156 -4126,2596 -10500,3363 -10564,3370 -5,1 -9,1 -13,1z"/>
       </g>
      </g>
      <path fill="white" fill-rule="nonzero" d="M185579 220807c-625,0 -984,-6 -1012,-7 -63,-1 -112,-53 -111,-114 2,-63 59,-119 115,-111 245,7 24518,433 32181,-6277 47,-41 118,-36 159,11 41,47 36,118 -11,159 -6824,5975 -26613,6339 -31321,6339z"/>
     </g>
    </g>
    <g>
     <g>
      <path fill="#FDC4B5" d="M187523 122743c5054,812 11998,3661 6859,11483 -3873,5896 -25114,-3078 -33992,-5367 -2015,-520 -786,-10414 1008,-10212 5375,604 19087,2965 26125,4096z"/>
     </g>
     <g>
      <path fill="#FFC359" d="M195049 133119c-1132,3011 -9302,4692 -11858,-596 -1318,-2727 5760,-26878 9377,-33627 1231,-2297 5040,-2689 7916,-1273 4290,2113 3192,6589 2874,8174 -862,4298 -5926,20991 -8309,27322z"/>
     </g>
     <g>
      <path fill="white" fill-rule="nonzero" d="M184957 121383c-19,0 -39,-2 -58,-8 -120,-32 -191,-154 -159,-274 126,-473 3105,-11622 4461,-14615 51,-113 184,-163 297,-112 113,51 163,184 112,297 -1340,2960 -4406,14430 -4437,14545 -26,101 -117,167 -216,167z"/>
     </g>
     <g>
      <path fill="#FDC4B5" d="M161399 118647c0,0 -3249,-3209 -4451,-4670 -2010,-2435 -2719,-3613 -3833,-4387 -722,-501 -2043,121 -1674,1482 356,1311 2637,4888 2637,4888 0,0 -7344,-2071 -8607,-2497 -1274,-427 -2128,-161 -2509,882 -213,586 18,1266 767,1547 1990,745 5347,1900 6859,2405 -1154,-126 -6467,-1477 -7663,-1648 -627,-90 -1063,436 -1212,1009 -99,381 -110,1097 811,1467 181,72 7473,2217 7281,2215 -1186,0 -5962,-1059 -7383,-1251 -735,-99 -1344,270 -1502,935 -76,328 50,1257 792,1539 1363,515 6502,1903 7418,2280 -1252,-302 -6017,-1245 -7092,-1296 -871,-42 -1202,468 -1232,937 -37,591 431,1073 1192,1414 1474,657 3698,1209 5532,1670 1860,468 5611,1320 8379,1595 2114,211 4483,-303 4483,-303l1007 -10213z"/>
     </g>
     <g>
      <g>
       <path fill="white" d="M156196 108265c29,-112 11,-231 -46,-330 -60,-98 -155,-170 -267,-198 -1931,-494 -9932,-2540 -11863,-3033 -112,-29 -230,-12 -329,46 -100,59 -171,155 -199,266 -623,2435 -3755,14687 -4378,17121 -28,113 -12,231 47,329 59,100 154,172 266,201 1931,493 9932,2539 11863,3033 112,28 230,11 330,-48 98,-58 170,-154 199,-267 622,-2434 3755,-14685 4377,-17120z"/>
      </g>
      <g>
       <g>
        <path fill="#97DAE6" fill-rule="nonzero" d="M149651 123914c-19,0 -37,-3 -56,-8 -120,-30 -193,-153 -162,-273l1550 -6059c30,-121 152,-193 272,-162 121,30 193,153 162,273l-1549 6060c-26,101 -117,169 -217,169z"/>
       </g>
       <g>
        <path fill="#97DAE6" fill-rule="nonzero" d="M148313 123572c-18,0 -38,-3 -56,-8 -120,-30 -193,-153 -162,-273l1550 -6059c30,-121 152,-193 273,-162 120,30 192,152 162,273l-1550 6059c-26,102 -117,170 -217,170z"/>
       </g>
       <g>
        <path fill="#97DAE6" fill-rule="nonzero" d="M146974 123229c-18,0 -36,-2 -55,-7 -120,-31 -193,-153 -162,-273l1549 -6059c31,-121 153,-193 273,-162 120,30 193,152 162,272l-1549 6060c-26,102 -117,169 -218,169z"/>
       </g>
       <g>
        <path fill="#97DAE6" fill-rule="nonzero" d="M145636 122887c-19,0 -38,-3 -56,-7 -120,-31 -193,-153 -162,-273l1550 -6060c30,-120 152,-192 272,-162 121,31 193,153 162,273l-1549 6060c-26,101 -117,169 -217,169z"/>
       </g>
       <g>
        <path fill="#97DAE6" fill-rule="nonzero" d="M144298 122545c-19,0 -38,-3 -56,-8 -121,-30 -193,-152 -162,-272l1549 -6060c31,-120 153,-192 273,-162 120,31 193,153 162,273l-1549 6060c-26,101 -118,169 -217,169z"/>
       </g>
       <g>
        <path fill="#97DAE6" fill-rule="nonzero" d="M142959 122202c-18,0 -37,-2 -56,-7 -120,-31 -192,-153 -161,-272l1549 -6060c31,-120 153,-193 273,-162 120,30 193,153 162,273l-1549 6059c-26,102 -118,169 -218,169z"/>
       </g>
       <g>
        <path fill="#97DAE6" fill-rule="nonzero" d="M141620 121860c-18,0 -37,-2 -55,-7 -121,-31 -193,-153 -162,-273l1549 -6060c31,-120 153,-193 273,-162 120,31 193,153 162,273l-1550 6060c-26,101 -116,169 -217,169z"/>
       </g>
      </g>
      <g>
       <polygon fill="#97DAE6" points="144456,106366 154638,108969 152664,116693 142481,114089 "/>
      </g>
      <g>
       <g>
        <path fill="#1A4266" d="M153050 112677c247,-966 -336,-1950 -1302,-2197 -967,-247 -1950,336 -2198,1303 -246,966 337,1949 1303,2196 966,248 1949,-335 2197,-1302z"/>
       </g>
       <path fill="#1A4266" d="M147885 107842c1717,439 2753,2187 2314,3904 -32,126 -64,253 -97,380 -439,1717 -2187,2753 -3905,2314 -555,-142 -2033,-520 -2377,-608 -118,-30 -219,-106 -281,-211 -62,-104 -80,-229 -50,-347 308,-1201 1153,-4508 1460,-5710 30,-118 106,-219 210,-280 105,-62 230,-80 348,-50 344,88 1823,466 2378,608z"/>
      </g>
     </g>
     <g>
      <path fill="#FDC4B5" d="M155909 129163c244,25 813,-12233 813,-12233l-2644 -970c0,0 -7344,-2071 -8607,-2497 -1274,-427 -2128,-161 -2509,882 -213,586 18,1266 767,1547 1990,745 5347,1900 6859,2405 -1154,-126 -6467,-1477 -7663,-1648 -627,-90 -1063,436 -1212,1009 -99,381 -110,1097 811,1467 181,72 7473,2217 7281,2215 -1186,0 -5962,-1059 -7383,-1251 -735,-99 -1344,270 -1502,935 -76,328 50,1257 792,1539 1363,515 6502,1903 7418,2280 -1252,-302 -6017,-1245 -7092,-1296 -871,-42 -1202,468 -1232,937 -37,591 431,1073 1192,1414 1474,657 3698,1209 5532,1670 1860,468 5611,1320 8379,1595z"/>
     </g>
     <g>
      <path fill="#FFC359" d="M188290 121653c5055,812 11231,4751 6092,12573 -3873,5896 -23816,-547 -32693,-2835 -2016,-520 1260,-13068 3067,-12850 6095,735 16496,1981 23534,3112z"/>
     </g>
     <g>
      <g>
       <path fill="white" fill-rule="nonzero" d="M188292 121765c-7,0 -13,0 -19,-1 -2901,-481 -10487,-1517 -10564,-1527 -61,-9 -104,-65 -96,-127 9,-62 65,-104 127,-96 76,10 7665,1046 10570,1528 61,10 103,68 93,129 -10,56 -57,94 -111,94z"/>
      </g>
      <g>
       <path fill="white" fill-rule="nonzero" d="M163612 130764c-4,0 -8,0 -11,-1 -63,-6 -107,-62 -101,-124 35,-326 879,-8016 3089,-10886 38,-49 108,-59 157,-20 50,37 59,108 21,158 -2171,2819 -3034,10693 -3043,10772 -6,58 -55,101 -112,101z"/>
      </g>
     </g>
     <g>
      <path fill="white" fill-rule="nonzero" d="M187588 136914c-5360,0 -12774,-1851 -13169,-1951 -120,-30 -193,-153 -163,-272 31,-121 154,-193 273,-163 122,31 12229,3053 16644,1479 3426,-1222 4705,-5475 5732,-8893 72,-237 142,-470 212,-699 1091,-3578 4745,-15664 4782,-15786 36,-119 162,-185 279,-150 119,36 186,161 150,280 -36,121 -3690,12209 -4782,15787 -69,228 -140,461 -211,698 -1056,3514 -2372,7888 -6011,9186 -972,347 -2278,484 -3736,484z"/>
     </g>
    </g>
   </g>
   <g>
    <g>
     <g>
      <path fill="#FBAA79" d="M184469 106091c4549,2469 10274,7583 3028,13675 -5462,4589 -22584,-10351 -30314,-15543 -1755,-1180 4382,-9140 5881,-8080 4649,3288 15070,6511 21405,9948z"/>
     </g>
     <g>
      <path fill="#FBAA79" d="M163169 96177c0,0 -426,-2667 -1171,-4282 -517,-1119 -2516,-6720 -3226,-7875 -460,-749 -1920,-708 -2128,687 -199,1343 457,5535 457,5535 0,0 -5898,-4842 -6885,-5738 -995,-903 -1885,-1001 -2651,-198 -431,451 -492,1167 82,1724 1525,1481 4081,3848 5263,4916 -2748,2545 -5037,7788 -4668,8229 1296,1554 3349,2834 5243,3896 1852,1041 4229,1520 4229,1520l5455 -8414z"/>
     </g>
     <g>
      <path fill="#FB7E36" fill-rule="nonzero" d="M157956 97054c52,0 104,-17 146,-53 95,-81 106,-223 26,-317 -14,-17 -1394,-1705 -817,-4746 23,-122 -57,-240 -179,-263 -125,-24 -240,57 -263,179 -620,3264 852,5047 916,5121 44,52 107,79 171,79z"/>
     </g>
     <g>
      <g>
       <g>
        <path fill="#FBAA79" d="M149479 96121c0,0 -2269,823 -1941,2570 225,1192 1386,2207 2783,2598 1663,466 3111,-559 3217,-1251 106,-693 -732,-1383 -1976,-871 0,0 -756,-546 -1398,-998 -640,-452 -685,-2048 -685,-2048z"/>
        <path fill="#FB7E36" fill-rule="nonzero" d="M151172 101635c849,0 1478,-333 1754,-510 468,-303 780,-696 835,-1053 58,-376 -100,-752 -422,-1005 -433,-340 -1077,-395 -1744,-155 -226,-163 -798,-574 -1300,-928 -449,-316 -578,-1456 -590,-1869 -2,-73 -39,-140 -99,-181 -60,-40 -136,-50 -204,-25 -847,307 -2374,1292 -2086,2824 232,1232 1415,2347 2944,2774 325,91 630,128 912,128zm1218 -2418l0 0c263,0 495,69 670,207 191,150 286,367 254,580 -26,170 -208,466 -633,740 -316,204 -1172,643 -2299,327 -1367,-382 -2420,-1355 -2621,-2422 -223,-1184 955,-1915 1514,-2190 51,528 218,1513 759,1895 640,451 1395,996 1396,997 63,45 146,55 219,26 259,-107 511,-160 741,-160z"/>
       </g>
      </g>
      <g>
       <g>
        <path fill="#FBAA79" d="M151146 93018c0,0 -2843,452 -2853,2571 -6,1448 1124,2899 2672,3672 1843,921 3770,47 4050,-739 281,-788 -544,-1786 -2117,-1466 0,0 -762,-811 -1412,-1484 -648,-675 -340,-2554 -340,-2554z"/>
        <path fill="#FB7E36" fill-rule="nonzero" d="M152617 99882c645,0 1154,-161 1419,-268 605,-243 1050,-623 1190,-1017 147,-413 50,-871 -258,-1226 -424,-490 -1163,-694 -1990,-558 -216,-228 -809,-857 -1330,-1397 -469,-487 -362,-1870 -281,-2362 11,-71 -12,-143 -62,-194 -51,-51 -123,-75 -194,-63 -31,5 -3031,507 -3042,2791 -7,1478 1117,3035 2796,3873 635,318 1238,421 1752,421zm856 -2662l0 0c491,0 905,154 1156,444 201,232 267,525 175,783 -95,266 -462,561 -935,751 -421,169 -1539,495 -2803,-137 -1530,-765 -2554,-2159 -2549,-3471 7,-1513 1671,-2103 2365,-2284 -62,603 -112,1843 443,2421 648,673 1410,1482 1410,1482 54,57 133,82 208,66 184,-37 361,-55 530,-55z"/>
       </g>
      </g>
      <g>
       <path fill="#FBAA79" d="M152997 90946c0,0 -2878,4 -3218,2097 -230,1428 661,3038 2070,4042 1677,1196 3717,632 4116,-101 399,-734 -261,-1848 -1864,-1777 0,0 -764,-840 -1164,-1686 1120,-1333 60,-2575 60,-2575z"/>
      </g>
      <g>
       <path fill="#FB7E36" fill-rule="nonzero" d="M153992 98002c360,0 652,-49 836,-91 635,-147 1134,-453 1334,-820 209,-384 184,-852 -65,-1251 -321,-515 -954,-825 -1723,-857 -90,-429 -587,-1124 -1306,-1644 -100,-72 -241,-49 -313,51 -72,100 -50,241 51,313 736,532 1078,1145 1130,1353 -41,45 -64,106 -58,171 11,119 109,208 233,204 731,-35 1332,209 1605,646 163,261 183,560 52,800 -135,248 -544,482 -1041,597 -441,101 -1596,250 -2748,-571 -1392,-993 -2188,-2529 -1978,-3825 304,-1878 2970,-1908 2997,-1908 123,0 224,-101 223,-225 0,-123 -101,-223 -224,-223l0 0c-31,0 -3073,30 -3439,2285 -236,1460 633,3172 2161,4261 823,587 1650,734 2273,734z"/>
      </g>
     </g>
     <g>
      <path fill="#FBAA79" d="M178432 108598c-2642,1959 2604,13627 8420,11656 4406,-1493 24020,-15310 26825,-19997 2204,-3684 -6798,-9777 -9996,-8122 -4014,2077 -19692,12344 -25249,16463z"/>
     </g>
     <g>
      <path fill="white" d="M190097 99229c-899,692 9784,16003 11407,14912 5925,-3982 14281,-11923 15563,-15609 1537,-4419 -8162,-10734 -11612,-9704 -2957,884 -10582,6723 -15358,10401z"/>
     </g>
     <g>
      <path fill="#FFC359" fill-rule="nonzero" d="M202159 110912c68,0 136,-27 186,-81 95,-102 90,-263 -13,-359 -1656,-1548 -7164,-8827 -7220,-8900 -84,-112 -243,-134 -356,-49 -111,84 -134,244 -49,356 227,300 5590,7386 7279,8964 49,46 111,69 173,69z"/>
     </g>
    </g>
    <g>
     <g>
      <g>
       <path fill="white" d="M186238 258001c-137,1305 -610,4675 -1518,5386 -1112,873 -4196,2232 -7391,3051 -8907,2284 -16693,7220 -16008,13186 65,571 40026,47 41463,-269 397,-2682 -1,-9571 -424,-13362 -196,-1749 52,-3116 241,-5137 65,-695 -16300,-3459 -16363,-2855z"/>
      </g>
      <g>
       <path fill="#1A3142" d="M184176 262443c-2393,-304 -2249,1422 -8671,2984 -5631,1369 -10154,3491 -12823,6211 -2226,2270 -2935,6662 -2624,9376 5,32 43038,9 43061,0 963,-384 333,-12285 -245,-14965 -372,-1720 -8736,2616 -13013,1204 -3176,-1047 -3315,-4508 -5685,-4810z"/>
      </g>
      <g>
       <path fill="#3B6B90" fill-rule="nonzero" d="M162104 278372l39513 0c140,0 254,-113 254,-254 0,-140 -114,-254 -254,-254l-39513 0c-140,0 -254,114 -254,254 0,141 114,254 254,254z"/>
      </g>
      <g>
       <path fill="#3B6B90" fill-rule="nonzero" d="M181333 268466c40,0 81,-10 119,-30 124,-66 171,-219 106,-343 -44,-82 -1085,-2028 -2663,-2938 -121,-71 -277,-29 -346,92 -70,122 -29,277 92,347 1453,838 2458,2717 2468,2736 45,86 134,136 224,136z"/>
      </g>
     </g>
     <g>
      <path fill="#1A3142" d="M198324 126006c-3453,15377 -6785,45502 -9628,73427 -1974,19374 -5363,58892 -5363,58892 5157,1903 18508,4451 23532,2753 0,0 6342,-43209 8302,-55132 1765,-10736 7738,-40073 10504,-51168 2573,-10318 595,-26993 595,-26993 0,0 -22211,-2107 -27942,-1779z"/>
     </g>
     <g>
      <g>
       <path fill="white" fill-rule="nonzero" d="M198117 259685c121,0 229,-87 250,-211 82,-473 8216,-47390 8981,-53331 778,-6047 13212,-57069 16054,-67029 38,-135 -40,-275 -175,-314 -135,-38 -275,40 -313,175 -2844,9968 -15290,61044 -16069,67104 -764,5929 -8896,52835 -8978,53309 -24,138 69,269 206,293 15,3 30,4 44,4z"/>
      </g>
      <g>
       <path fill="white" fill-rule="nonzero" d="M202760 258160c1098,0 2168,-57 3183,-186 139,-18 238,-145 220,-285 -18,-138 -144,-236 -284,-219 -8343,1061 -20525,-2845 -20647,-2885 -132,-43 -276,31 -319,164 -44,133 30,276 163,319 108,36 9637,3092 17684,3092z"/>
      </g>
     </g>
    </g>
    <g>
     <g>
      <g>
       <path fill="white" d="M236933 257974c312,1791 139,4597 -769,5309 -1112,873 -4195,2233 -7390,3055 -8906,2289 -16688,7229 -16000,13195 65,571 40026,25 41463,-292 395,-2682 -7,-9572 -432,-13361 -197,-1750 -417,-4713 -1239,-7403 -204,-669 -15736,-1102 -15633,-503z"/>
      </g>
      <g>
       <path fill="#1A3142" d="M235619 262339c-2392,-303 -2248,1423 -8669,2989 -5630,1373 -10152,3496 -12819,6218 -2226,2271 -2932,6664 -2619,9377 4,32 43037,9 43060,0 963,-385 327,-12308 -253,-14988 -372,-1721 -8735,2621 -13012,1211 -3176,-1045 -3317,-4506 -5688,-4807z"/>
      </g>
      <g>
       <path fill="#3B6B90" fill-rule="nonzero" d="M213556 278281c0,0 0,0 1,0l39512 -21c141,-1 254,-114 254,-255 0,-140 -114,-253 -254,-253 0,0 0,0 0,0l-39513 21c-140,0 -254,114 -254,254 0,140 114,254 254,254z"/>
      </g>
      <g>
       <path fill="#3B6B90" fill-rule="nonzero" d="M232780 268363c40,0 80,-9 118,-29 124,-66 171,-219 106,-343 -44,-83 -1086,-2027 -2664,-2937 -121,-69 -277,-28 -347,93 -69,122 -28,277 94,347 1449,835 2458,2715 2468,2734 46,86 134,135 225,135z"/>
      </g>
     </g>
     <g>
      <path fill="#1A3142" d="M243040 134834c-2391,-6375 -32271,-6053 -31986,-3776 1292,10344 4680,40344 7171,62839 1213,10949 11696,65227 13306,68263 3766,1218 21417,-396 24382,-1380 0,0 -5597,-64141 -10053,-71723 251,-8596 2490,-29230 593,-42835 -415,-2982 -2394,-8669 -3413,-11388z"/>
     </g>
     <g>
      <g>
       <path fill="white" fill-rule="nonzero" d="M218798 198135c22,0 44,-3 66,-9 135,-36 216,-175 179,-311 -487,-1814 -1601,-11858 -2415,-19192 -387,-3486 -721,-6497 -913,-7976 -604,-4622 -1214,-16163 -1220,-16279 -6,-123 -100,-223 -223,-238 -1630,-196 -3626,-511 -6076,-1369 -132,-47 -277,23 -324,155 -46,133 24,278 156,324 2391,837 4354,1167 5971,1368 87,1604 652,11812 1211,16104 193,1475 527,4484 913,7967 861,7760 1933,17417 2430,19268 30,114 133,188 245,188z"/>
      </g>
      <g>
       <path fill="white" fill-rule="nonzero" d="M241534 189229c124,0 233,-91 251,-217 452,-3085 983,-21877 255,-37655 -294,-6390 -1692,-12759 -4154,-18929 -52,-131 -200,-195 -329,-142 -131,52 -194,200 -142,330 2441,6117 3826,12431 4118,18765 726,15749 199,34486 -250,37558 -20,138 75,267 214,288 13,2 25,2 37,2z"/>
      </g>
      <g>
       <path fill="white" fill-rule="nonzero" d="M241803 152006c89,0 176,-46 222,-130 69,-122 25,-276 -97,-345 -100,-56 -10001,-5630 -12606,-8935 -2804,-3558 -3502,-7259 -3509,-7296 -25,-137 -155,-229 -295,-204 -138,25 -229,157 -204,295 28,156 723,3858 3609,7520 2667,3383 12346,8832 12757,9062 39,23 81,33 123,33z"/>
      </g>
      <g>
       <path fill="white" fill-rule="nonzero" d="M248922 261137c5,0 9,0 15,0 140,-9 246,-129 238,-269 -27,-457 -2677,-45825 -2927,-53188 -234,-6879 -4176,-21470 -4216,-21616 -37,-136 -178,-214 -312,-179 -135,37 -215,177 -178,312 40,146 3966,14679 4199,21501 250,7368 2900,52742 2927,53200 8,135 120,239 254,239z"/>
      </g>
      <g>
       <path fill="white" fill-rule="nonzero" d="M234271 258746c3876,0 14291,-152 19639,-1699 134,-40 212,-181 173,-315 -39,-135 -179,-212 -314,-173 -6544,1894 -20844,1673 -20988,1670 -1,0 -3,0 -4,0 -138,0 -252,111 -254,250 -2,140 109,256 250,258 27,0 579,9 1498,9z"/>
      </g>
     </g>
    </g>
    <g>
     <g>
      <path fill="#0F263D" d="M242505 130302c0,0 -16158,134 -23491,748 -9804,821 -21686,-1999 -21686,-1999l-757 6252c0,0 10035,3198 22019,3080 11204,-109 22622,-2349 24450,-3549 -18,-1152 42,-2217 -535,-4532z"/>
     </g>
     <path fill="white" d="M221805 82925c2574,-199 4855,-67 6848,273 5290,902 10125,3044 11724,7899 2339,7101 4647,31256 4407,39133 -94,3120 -19998,5321 -30309,5035 -8730,-242 -17614,-2123 -17798,-3007 -641,-3070 1795,-21413 2297,-26515 625,-6363 1240,-11268 3905,-15345 1475,-2256 5239,-4465 6711,-5018 3135,-1182 7230,-2069 12215,-2455z"/>
     <g>
      <path fill="#FFC359" fill-rule="nonzero" d="M196773 123531c139,0 257,-106 270,-247 492,-5371 3133,-23471 3160,-23653 22,-148 -81,-286 -229,-307 -148,-23 -286,81 -308,229 -26,182 -2670,18296 -3164,23682 -13,149 97,281 246,295 8,0 17,1 25,1z"/>
     </g>
    </g>
    <g>
     <path fill="#FFC359" d="M213883 89463c0,0 -4324,2162 -4807,1522 -297,-393 203,-2689 1441,-4605 779,-1206 1448,-1703 2841,-2678 1219,-855 4607,-1599 5797,-1527l-5272 7288z"/>
    </g>
    <g>
     <g>
      <path fill="#FFC359" fill-rule="nonzero" d="M212586 103822c235,0 464,-14 677,-45 111,-17 199,-105 214,-217 572,-4155 1685,-11556 1696,-11631 21,-138 -74,-267 -213,-289 -139,-20 -268,75 -289,214 -11,73 -1090,7252 -1670,11443 -1323,121 -3218,-423 -3238,-428 -135,-39 -275,39 -314,173 -39,135 39,276 173,314 76,22 1623,466 2964,466z"/>
     </g>
     <g>
      <path fill="#FFC359" d="M212688 92949c-592,-88 -1154,398 -1256,1086 -102,688 294,1317 886,1405 592,88 1155,-398 1257,-1087 102,-687 -295,-1316 -887,-1404z"/>
     </g>
     <g>
      <path fill="#FFC359" d="M211601 98020c-592,-88 -1154,398 -1256,1086 -103,688 294,1316 886,1404 592,88 1154,-398 1257,-1086 102,-687 -295,-1317 -887,-1404z"/>
     </g>
    </g>
    <g>
     <g>
      <g>
       <path fill="#FBAA79" d="M211893 81246c0,0 -161,4785 213,6196 114,431 549,1422 1777,1982 2779,163 7483,-587 9212,-1484 2347,-1219 3618,-2398 3769,-4211 217,-2608 69,-7423 69,-7423l-15040 4940z"/>
      </g>
      <g>
       <path fill="#FBAA79" d="M198230 54500c-774,3480 -1449,8031 -1370,15889 24,2481 1538,10951 9555,12045 5336,728 10018,66 14913,-1807 6718,-2570 7264,-6323 8203,-11785 1315,-7631 2208,-22924 -7312,-25079 -14286,-3233 -21628,136 -23989,10737z"/>
      </g>
      <g>
       <path fill="#FB7E36" fill-rule="nonzero" d="M219420 81553c26,0 52,-4 78,-13 6660,-2149 7982,-5010 8036,-5130 56,-129 -2,-279 -131,-335 -127,-57 -277,1 -334,129 -16,37 -1329,2789 -7727,4853 -133,43 -206,186 -164,320 35,107 135,176 242,176z"/>
      </g>
     </g>
     <g>
      <g>
       <path fill="#FB7E36" fill-rule="nonzero" d="M201685 70170c105,0 203,-65 240,-170 46,-132 -24,-277 -156,-324 -391,-138 -1458,-619 -1699,-1188 -64,-151 -62,-292 7,-442 504,-1103 1651,-4330 1699,-4467 47,-132 -21,-278 -154,-325 -131,-47 -278,22 -325,155 -11,33 -1187,3343 -1683,4425 -127,277 -132,573 -12,854 372,876 1833,1410 1998,1468 28,10 57,14 85,14z"/>
      </g>
      <g>
       <g>
        <path fill="#000001" fill-rule="nonzero" d="M208528 59913c21,0 42,-1 63,-3 309,-35 532,-311 499,-621 -76,-715 -534,-1949 -1767,-2032 -1466,-100 -2143,1370 -2171,1433 -128,285 -2,619 283,747 284,128 617,3 747,-280 10,-22 404,-818 1065,-772 599,40 719,1017 720,1026 33,288 278,502 561,502z"/>
       </g>
       <g>
        <path fill="#000001" fill-rule="nonzero" d="M199746 59167c46,0 92,-5 138,-17 302,-77 486,-381 411,-683 -174,-698 -794,-1861 -2030,-1770 -1464,103 -1935,1650 -1954,1716 -88,300 83,614 382,702 299,88 612,-82 701,-380 8,-22 279,-863 950,-911 606,-34 851,909 854,918 66,255 296,425 548,425z"/>
       </g>
      </g>
      <g>
       <g>
        <path fill="#000001" d="M208532 64097c101,-1504 -831,-3348 -2397,-2513 -1566,835 -1399,4613 158,5027 1557,414 2125,-792 2239,-2514z"/>
       </g>
       <g>
        <path fill="#000001" d="M199802 63524c120,-1438 -679,-3176 -2100,-2344 -1421,833 -1347,4435 41,4795 1389,359 1922,-805 2059,-2451z"/>
       </g>
      </g>
      <g>
       <path fill="#F26756" d="M200701 72713c0,0 1165,3723 4319,2824 3413,-973 3206,-4942 3206,-4942l-7525 2118z"/>
       <g>
        <g>
         <path fill="#ED2811" d="M202815 75386c440,-1063 1215,-2347 2514,-2932 1183,-534 2059,-540 2736,-330 -281,1228 -1035,2840 -3045,3413 -886,253 -1615,140 -2205,-151z"/>
        </g>
       </g>
      </g>
     </g>
     <g>
      <g>
       <path fill="#000001" d="M232137 48102c-4188,-1909 -12871,6219 -13788,9216 -1195,3899 -1696,6823 -848,7571 1224,1079 2639,-53 3202,-1072 606,-1098 1313,8613 2517,10907 1283,2450 2038,3187 3747,3138 4155,-121 9364,-7759 10280,-13606 916,-5847 -205,-13919 -5110,-16154z"/>
      </g>
      <path fill="#000001" d="M217444 60694c4633,828 16158,-10002 16100,-11718 -228,-6578 -9246,-10317 -16153,-10419 -4838,-72 -9024,788 -12644,2804 -2883,1606 -3595,2951 -5748,4730 -920,759 -2874,325 -3178,946 -646,1324 1452,3110 2301,3425 1829,681 3822,470 6652,-792 -1124,1433 -2383,3431 -1571,4002 1315,925 5352,-508 7054,-1451 -1088,1351 -1854,2677 -406,3257 2479,993 5740,-689 7162,-1633 -1090,2396 -1157,6565 431,6849z"/>
     </g>
     <g>
      <g>
       <path fill="#FBAA79" d="M220703 63816c508,-1242 2473,-2002 3868,93 1509,2267 693,7495 -4604,7578 0,0 177,-6303 736,-7671z"/>
      </g>
      <g>
       <g>
        <path fill="#FB7E36" fill-rule="nonzero" d="M221053 68414c116,0 220,-79 248,-197 5,-21 522,-2160 1814,-2727 129,-57 187,-207 131,-336 -57,-128 -207,-186 -336,-130 -1525,670 -2082,2979 -2105,3078 -32,136 53,273 190,305 19,5 39,7 58,7z"/>
       </g>
       <path fill="#FB7E36" fill-rule="nonzero" d="M222754 68146c18,0 36,-2 54,-6 138,-31 225,-166 195,-303 -190,-864 -1075,-1521 -1113,-1549 -113,-83 -271,-59 -354,54 -84,113 -60,272 53,356 8,5 768,573 916,1248 26,119 132,200 249,200z"/>
      </g>
     </g>
    </g>
    <g>
     <path fill="#FFC359" d="M213883 89463c0,0 12944,-6414 13068,-7974 0,0 2242,794 2516,1665 216,690 -121,2357 -764,3074 -2404,2679 -8223,6435 -9487,6490 -1901,82 -5333,-3255 -5333,-3255z"/>
    </g>
    <g>
     <path fill="#244259" d="M198870 132640c0,0 1512,10857 3087,19256 1574,8401 2581,12897 4330,14772 2677,2871 27954,-6376 27727,-10370 -227,-3993 -8610,-14792 -10989,-20447 -2380,-5654 -8397,-7296 -24155,-3211z"/>
    </g>
    <g>
     <g>
      <path fill="#FBAA79" d="M200624 133659c0,0 -4480,-888 -6288,-1444 -3019,-925 -4260,-1517 -5617,-1549 -878,-21 -1637,1227 -579,2159 1019,898 4894,2626 4894,2626 0,0 -7271,2318 -8559,2659 -1299,345 -1865,1038 -1607,2118 144,607 712,1047 1491,869 2072,-476 5510,-1361 7050,-1773 -1033,531 -6211,2331 -7304,2847 -573,271 -646,950 -455,1510 127,373 513,976 1485,777 191,-39 7458,-2267 7297,-2162 -990,654 -5559,2401 -6850,3023 -669,322 -974,967 -739,1608 117,316 734,1022 1509,847 1421,-320 6475,-1993 7446,-2184 -1211,438 -5707,2277 -6632,2827 -750,445 -745,1053 -512,1460 295,514 951,658 1774,523 1592,-264 3753,-1028 5537,-1654 1810,-634 5409,-1990 7870,-3285 1881,-990 3575,-2724 3575,-2724l-4786 -9078z"/>
     </g>
     <g>
      <g>
       <path fill="white" d="M190563 127862c-38,-109 -118,-198 -221,-249 -104,-49 -223,-57 -332,-19 -1884,652 -9687,3353 -11571,4005 -109,38 -198,117 -249,221 -51,104 -57,223 -20,331 823,2376 4959,14326 5781,16700 38,110 117,199 221,249 104,51 222,58 332,20 1883,-652 9687,-3353 11570,-4005 110,-38 199,-117 249,-221 50,-103 58,-222 20,-332 -822,-2375 -4958,-14325 -5780,-16700z"/>
      </g>
      <g>
       <g>
        <path fill="#97DAE6" fill-rule="nonzero" d="M193599 144565c24,0 49,-4 73,-12 117,-41 179,-169 139,-286l-2046 -5911c-41,-117 -169,-179 -286,-139 -117,41 -179,169 -139,286l2046 5911c32,93 120,151 213,151z"/>
       </g>
       <g>
        <path fill="#97DAE6" fill-rule="nonzero" d="M192294 145017c24,0 49,-4 73,-13 117,-40 179,-168 139,-285l-2047 -5911c-40,-117 -168,-179 -285,-139 -117,41 -179,169 -139,286l2046 5911c32,92 120,151 213,151z"/>
       </g>
       <g>
        <path fill="#97DAE6" fill-rule="nonzero" d="M190988 145469c25,0 50,-4 74,-13 117,-40 179,-168 139,-285l-2047 -5911c-40,-117 -168,-179 -285,-139 -117,41 -179,169 -139,286l2046 5911c32,92 119,151 212,151z"/>
       </g>
       <g>
        <path fill="#97DAE6" fill-rule="nonzero" d="M189682 145921c25,0 50,-4 74,-13 117,-40 179,-168 139,-285l-2046 -5911c-41,-117 -170,-180 -286,-139 -117,41 -179,169 -139,286l2046 5911c32,92 119,151 212,151z"/>
       </g>
       <g>
        <path fill="#97DAE6" fill-rule="nonzero" d="M188377 146373c25,0 49,-5 73,-13 118,-40 180,-168 139,-285l-2046 -5911c-40,-117 -169,-180 -285,-139 -117,41 -180,168 -139,286l2046 5910c32,93 119,152 212,152z"/>
       </g>
       <g>
        <path fill="#97DAE6" fill-rule="nonzero" d="M187072 146824c24,0 49,-4 73,-12 118,-41 179,-168 139,-286l-2046 -5910c-40,-117 -169,-179 -286,-139 -117,41 -179,168 -138,286l2046 5910c32,93 119,151 212,151z"/>
       </g>
       <g>
        <path fill="#97DAE6" fill-rule="nonzero" d="M185766 147277c24,0 49,-5 73,-13 118,-40 179,-168 139,-285l-2046 -5911c-40,-117 -169,-180 -286,-139 -117,41 -179,168 -138,286l2046 5910c32,93 119,152 212,152z"/>
       </g>
      </g>
      <g>
       <polygon fill="#97DAE6" points="179719,132747 189651,129309 192258,136842 182326,140280 "/>
      </g>
      <g>
       <g>
        <path fill="#1A4266" d="M190368 133278c-326,-942 -1355,-1442 -2297,-1115 -943,326 -1443,1354 -1116,2297 326,942 1354,1441 2297,1116 942,-327 1442,-1356 1116,-2298z"/>
       </g>
       <path fill="#1A4266" d="M183393 132089c1675,-580 3503,308 4083,1983 43,123 85,247 128,370 580,1675 -308,3503 -1983,4083 -541,187 -1984,687 -2320,803 -114,39 -240,32 -349,-21 -110,-54 -194,-148 -234,-263 -405,-1172 -1522,-4397 -1927,-5569 -40,-115 -33,-241 21,-350 53,-109 147,-193 262,-234 335,-115 1778,-614 2319,-802z"/>
      </g>
     </g>
     <g>
      <path fill="#FBAA79" d="M201835 145461c218,-115 -6060,-10657 -6060,-10657l-2741 647c0,0 -7271,2318 -8559,2659 -1299,345 -1865,1038 -1607,2118 144,607 712,1047 1491,869 2072,-476 5510,-1361 7050,-1773 -1033,531 -6211,2331 -7304,2847 -573,271 -646,950 -455,1510 127,373 513,976 1485,777 191,-39 7458,-2267 7297,-2162 -990,654 -5559,2401 -6850,3023 -669,322 -974,967 -739,1608 117,316 734,1022 1509,847 1421,-320 6475,-1993 7446,-2184 -1211,438 -5707,2277 -6632,2827 -750,445 -745,1053 -512,1460 295,514 951,658 1774,523 1592,-264 3753,-1028 5537,-1654 1810,-634 5409,-1990 7870,-3285z"/>
     </g>
     <g>
      <path fill="#FBAA79" d="M222173 120601c4589,-2394 12031,-4283 13033,5129 754,7095 -21855,14099 -30480,17607 -1958,797 -6015,-8988 -4348,-9759 5068,-2343 15405,-9644 21795,-12977z"/>
     </g>
     <g>
      <path fill="#FBAA79" d="M235096 127008c-759,3201 -8871,4784 -12897,147 -1380,-1590 -366,-7658 727,-14241 1289,-7775 2943,-16253 4539,-18713 2481,-3820 12683,2113 12420,5704 -328,4507 -3191,20373 -4789,27103z"/>
     </g>
     <g>
      <path fill="white" d="M239707 113260c-205,1116 -19011,-716 -18745,-2654 923,-6722 1618,-15410 4538,-19648 3013,-4371 14191,-889 14828,3403 453,3053 517,12710 -621,18899z"/>
     </g>
     <g>
      <path fill="#FFC359" fill-rule="nonzero" d="M237451 113823c2379,0 2441,-341 2475,-523 482,-2620 801,-6208 898,-10103 3,-123 -94,-225 -217,-228 -114,0 -225,94 -228,217 -96,3854 -410,7402 -884,9997 -894,638 -14534,-392 -17836,-2121 -368,-193 -487,-350 -476,-425 134,-982 264,-2004 397,-3050 439,-3461 894,-7040 1647,-10212 29,-120 -45,-240 -165,-268 -119,-28 -240,45 -268,165 -760,3196 -1216,6787 -1656,10259 -133,1044 -262,2065 -397,3045 -42,310 -172,1254 6314,2296 2625,422 5735,754 8318,889 838,44 1522,62 2078,62z"/>
     </g>
     <g>
      <path fill="#FFC359" fill-rule="nonzero" d="M239020 110802c135,0 247,-105 253,-241 7,-140 -101,-259 -241,-266 -134,-6 -13409,-665 -15462,-1569 -129,-56 -278,2 -335,130 -56,129 2,279 130,335 2139,942 15092,1584 15642,1611 4,0 9,0 13,0z"/>
     </g>
    </g>
    <g>
     <g>
      <path fill="#244259" d="M218544 122649c2900,-291 7899,4460 11103,11028 3205,6568 7676,17990 8996,22299 1320,4307 -19635,9692 -24128,10828 -4494,1136 -6773,-14261 -8212,-19874 -1439,-5614 -4905,-14315 -7433,-14290 0,0 -596,-2165 2631,-3772 3865,-1926 14142,-5929 17043,-6219z"/>
     </g>
     <g>
      <g>
       <path fill="white" fill-rule="nonzero" d="M213331 166972c95,0 185,-53 229,-144 60,-126 7,-278 -119,-339 -1383,-665 -2581,-2543 -3286,-5153 -252,-938 -613,-2466 -1030,-4234 -733,-3109 -1645,-6977 -2577,-10242 -3767,-13186 -6618,-14133 -6738,-14167 -135,-38 -275,40 -313,174 -38,133 37,271 169,312 54,21 2776,1154 6393,13821 929,3253 1840,7115 2572,10218 418,1773 779,3304 1035,4250 743,2752 2038,4749 3555,5479 36,17 73,25 110,25z"/>
      </g>
      <g>
       <path fill="white" fill-rule="nonzero" d="M215335 164308c36,0 74,-8 109,-25 127,-61 180,-212 119,-338 -37,-78 -3738,-7868 -5126,-14664 -1397,-6846 -5937,-17970 -8895,-18753 -136,-36 -275,46 -310,181 -36,135 45,274 180,310 2507,663 7074,11243 8528,18364 1400,6858 5128,14702 5165,14780 44,92 135,145 230,145z"/>
      </g>
     </g>
     <g>
      <g>
       <path fill="white" fill-rule="nonzero" d="M216160 146253c15,0 31,-2 47,-4 4951,-943 11911,-3961 11982,-3991 128,-56 187,-206 131,-334 -56,-129 -207,-187 -335,-131 -69,30 -6978,3025 -11873,3957 -137,26 -228,159 -202,297 23,121 130,206 250,206z"/>
      </g>
      <g>
       <path fill="white" fill-rule="nonzero" d="M217004 148287c16,0 32,-1 48,-4 4950,-942 11912,-3960 11981,-3991 128,-56 188,-205 132,-333 -56,-129 -207,-187 -334,-132 -70,30 -6980,3025 -11874,3957 -138,26 -228,159 -202,297 23,121 130,206 249,206z"/>
      </g>
     </g>
    </g>
   </g>
   <g>
    <g>
     <path fill="#F26756" d="M268888 185156c-120,-3752 -3196,-6731 -6950,-6731 -7762,0 -20466,0 -28411,0 -1883,0 -3685,763 -4994,2115 -1311,1353 -2016,3179 -1956,5061 594,18562 2174,67966 2752,86025 120,3752 3196,6731 6950,6731 7762,0 20465,0 28410,0 1883,0 3686,-763 4995,-2116 1311,-1352 2015,-3178 1955,-5060 -593,-18562 -2173,-67967 -2751,-86025z"/>
    </g>
    <g>
     <path fill="#F05441" d="M259786 190136c-120,-3752 -3196,-6731 -6951,-6731 -4622,0 -10750,0 -15466,0 -1883,0 -3685,763 -4995,2116 -1310,1352 -2015,3178 -1955,5060 544,16996 1904,59523 2433,76065 120,3752 3196,6731 6950,6731 4623,0 10751,0 15466,0 1884,0 3685,-763 4996,-2116 1310,-1352 2015,-3178 1954,-5059 -543,-16998 -1903,-59524 -2432,-76066z"/>
    </g>
    <g>
     <path fill="#F69387" d="M268880 184920l-4071 0c-706,0 -1382,286 -1873,793 -491,507 -755,1191 -733,1898 415,12991 2211,69112 2614,81727 45,1407 1199,2524 2606,2524 1922,0 4238,0 4238,0l-2781 -86942z"/>
    </g>
    <g>
     <path fill="#153450" d="M248561 178488c-8,-235 -200,-420 -434,-420 -357,0 -865,0 -1229,0 -117,0 -230,47 -312,131 -82,86 -126,199 -122,317 223,6976 2976,93065 3193,99826 7,235 200,421 434,421 356,0 865,0 1228,0 118,0 231,-48 312,-132 82,-85 126,-199 122,-316 -222,-6976 -2976,-93066 -3192,-99827z"/>
    </g>
    <g>
     <g>
      <path fill="#2D75B6" d="M225273 144841l-3137 0c0,0 3535,110521 4001,125098 28,881 750,1581 1632,1581 1,0 1,0 2,0 407,0 798,-166 1081,-459 283,-292 436,-688 423,-1095 -463,-14469 -4002,-125125 -4002,-125125z"/>
     </g>
     <g>
      <path fill="#153450" d="M226801 145009c-30,-938 -799,-1683 -1737,-1683 -839,0 -1854,0 -2708,0 -471,0 -921,191 -1249,529 -328,338 -504,795 -489,1265 44,1367 103,3234 147,4572 30,938 799,1683 1737,1683 839,0 1854,0 2708,0 471,0 921,-191 1249,-529 327,-338 504,-794 488,-1265 -43,-1366 -103,-3234 -146,-4572z"/>
     </g>
    </g>
    <g>
     <g>
      <path fill="#153450" d="M233322 265255c4536,0 8326,3531 8466,7888 139,4356 -3425,7887 -7962,7887 -4536,0 -8326,-3531 -8465,-7887 -140,-4357 3425,-7888 7961,-7888z"/>
     </g>
     <g>
      <path fill="#99C1E4" d="M233404 267812c3066,0 5627,2386 5721,5331 94,2944 -2314,5331 -5380,5331 -3066,0 -5627,-2387 -5722,-5331 -94,-2945 2315,-5331 5381,-5331z"/>
     </g>
     <g>
      <path fill="#1F4F79" d="M233459 269540c2072,0 3803,1613 3867,3603 63,1989 -1565,3602 -3637,3602 -2072,0 -3803,-1613 -3867,-3602 -63,-1990 1565,-3603 3637,-3603z"/>
     </g>
    </g>
   </g>
  </g>
  <rect fill="none" width="290869" height="290869"/>
 </g>
</svg>
