<?xml version="1.0" encoding="UTF-8"?>
<!DOCTYPE svg PUBLIC "-//W3C//DTD SVG 1.1//EN" "http://www.w3.org/Graphics/SVG/1.1/DTD/svg11.dtd">
<!-- Creator: CorelDRAW X8 -->
<svg xmlns="http://www.w3.org/2000/svg" xml:space="preserve" width="59.2666mm" height="59.2666mm" version="1.1" shape-rendering="geometricPrecision" text-rendering="geometricPrecision" image-rendering="optimizeQuality" fill-rule="evenodd" clip-rule="evenodd"
viewBox="0 0 756 756"
 xmlns:xlink="http://www.w3.org/1999/xlink">
 <g id="Layer_x0020_1">
  <metadata id="CorelCorpID_0Corel-Layer"/>
  <g id="_1973030656672">
   <g>
    <path fill="#80BC8C" fill-rule="nonzero" d="M541 639c0,0 17,59 34,110l107 0c-34,-90 -68,-178 -73,-196 -7,-29 -14,-47 -27,-70 -27,-1 -55,-5 -81,-1 -31,51 -39,163 -38,267l83 0c-7,-49 -5,-110 -5,-110z"/>
    <path fill="#80BC8C" fill-rule="nonzero" fill-opacity="0.501961" d="M582 483c-27,-1 -55,-5 -81,-1 -3,5 -6,11 -9,17 6,5 53,38 91,80 42,44 99,170 99,170 -34,-90 -68,-178 -73,-196 -7,-29 -14,-47 -27,-70z"/>
    <g>
     <g>
      <path fill="#38251E" fill-rule="nonzero" d="M628 403c0,0 -20,-13 -16,-32 5,-20 -8,-26 -20,-38 -11,-11 -5,-7 -1,-42 4,-27 -12,-43 -18,-46 -3,-1 -5,-2 -7,-4 0,0 -21,-18 -44,-3 -12,8 -17,32 -17,38l-19 66 -5 53c31,28 135,17 135,17l-7 -13 10 9 9 -5z"/>
      <g>
       <path fill="#38251E" fill-rule="nonzero" d="M560 283l0 -2c-13,-1 -24,-8 -29,-18 -6,-11 -1,-22 1,-25l-1 0c-2,3 -7,14 -1,26 5,10 17,17 30,19z"/>
       <path fill="#F09A6C" fill-rule="nonzero" d="M550 240c-23,-6 -39,6 -45,27 0,0 -2,15 -2,17 0,0 -12,23 7,47 1,1 2,1 4,2 35,9 40,-26 40,-26 1,-1 17,-17 18,-19 6,-22 2,-42 -22,-48z"/>
       <path fill="#F09A6C" fill-rule="nonzero" d="M558 295l-4 50 -31 -3c0,0 0,0 0,-1l4 -49 31 3z"/>
       <path fill="#38251E" fill-rule="nonzero" d="M539 231c0,0 -10,-9 -26,8 -7,8 -9,17 -10,19 -1,5 -3,13 -6,14 13,-2 24,-25 31,-25 1,9 -8,19 13,31 15,8 13,24 13,24 0,0 10,-6 15,-9 5,-3 13,-26 9,-37 -5,-12 -25,-30 -39,-25z"/>
       <path fill="#38251E" fill-rule="nonzero" d="M520 312c-3,0 -4,-1 -5,-1l1 -1c0,0 7,4 17,-3l1 1c-6,4 -11,4 -14,4z"/>
       <path fill="#38251E" fill-rule="nonzero" d="M533 276c2,-1 9,3 10,3 2,2 1,4 1,4 -1,1 -2,0 -4,-1 -5,-2 -7,-1 -8,-3 0,-1 0,-2 1,-3z"/>
       <path fill="#38251E" fill-rule="nonzero" d="M516 274c-1,-2 -8,0 -8,0 -2,0 -3,2 -2,2 0,0 1,0 3,0 4,0 5,1 7,0 0,0 0,-1 0,-2z"/>
       <path fill="#38251E" fill-rule="nonzero" d="M516 301c0,0 -3,-2 -3,-4 0,-2 1,-5 4,-7l1 1c-3,2 -4,4 -4,6 0,2 3,3 3,3l-1 1z"/>
       <g>
        <path fill="#F09A6C" fill-rule="nonzero" d="M572 308c-2,6 -9,10 -15,8 -7,-2 -10,-9 -8,-16 2,-7 9,-10 16,-8 6,2 9,9 7,16z"/>
        <path fill="#38251E" fill-rule="nonzero" d="M561 308c0,-2 -4,-3 -5,-3l-1 0 1 -1c1,-3 3,-5 5,-5 2,-1 5,0 5,0l-1 1c0,0 -2,-1 -4,0 -1,0 -3,2 -4,4 2,0 5,1 6,4l-2 0z"/>
       </g>
       <g>
        <path fill="#EE7B58" fill-rule="nonzero" d="M554 307c1,-5 1,-11 1,-11 -8,-1 -15,5 -16,13 -1,6 3,12 8,15 6,-8 7,-17 7,-17z"/>
        <path fill="#EE7B58" fill-rule="nonzero" d="M501 288c-2,6 -3,14 0,25 3,-3 6,-7 6,-11 0,-6 -2,-11 -6,-14z"/>
       </g>
       <path fill="#38251E" fill-rule="nonzero" d="M537 290c0,2 -1,3 -2,3 -1,-1 -1,-2 -1,-4 1,-1 2,-2 3,-2 0,0 1,2 0,3z"/>
       <path fill="#38251E" fill-rule="nonzero" d="M511 286c0,1 -1,2 -2,2 -1,0 -1,-2 -1,-3 1,-1 2,-2 2,-2 1,0 2,1 1,3z"/>
      </g>
     </g>
     <g>
      <path fill="#F09A6C" fill-rule="nonzero" d="M362 406c5,2 63,90 96,93 0,0 12,-1 53,-81l-39 -23c0,0 -23,56 -26,55l-63 -63c0,0 -4,-19 -6,-22 -6,-6 -16,-18 -18,-17 -5,2 6,18 6,18 0,0 -27,-16 -34,-18 -8,-1 6,10 6,10 0,0 -8,-4 -9,-3 -2,2 6,8 6,8 0,0 -10,-3 -9,1 2,3 10,9 10,9 0,0 -12,-4 -9,2 2,5 36,31 36,31z"/>
      <path fill="#F2CD90" fill-rule="nonzero" d="M470 397c0,0 -21,54 -24,53l-46 -46c-6,9 -29,35 -34,44 21,27 83,72 105,74 0,0 23,-25 40,-104l-41 -21z"/>
      <path fill="#F0A852" fill-rule="nonzero" d="M367 447c-1,1 -1,1 -1,1 21,27 83,72 105,74 0,0 5,-6 13,-21 -28,-4 -86,-31 -117,-54z"/>
      <g>
       <g>
        <polygon fill="#EB8050" fill-rule="nonzero" points="351,366 335,357 335,356 351,366 "/>
       </g>
       <g>
        <polygon fill="#EB8050" fill-rule="nonzero" points="347,370 334,364 334,363 347,370 "/>
       </g>
       <g>
        <polygon fill="#EB8050" fill-rule="nonzero" points="342,377 333,373 333,373 342,376 "/>
       </g>
       <g>
        <path fill="#EB8050" fill-rule="nonzero" d="M341 380l0 0c2,-9 13,-17 13,-17l0 0c0,0 -11,8 -13,17z"/>
       </g>
       <g>
        <path fill="#EB8050" fill-rule="nonzero" d="M362 383c-2,-5 -2,-8 -1,-11 0,-2 1,-4 1,-4l0 0c0,0 -3,6 0,15l0 0z"/>
       </g>
      </g>
     </g>
     <g>
      <path fill="#F09A6C" fill-rule="nonzero" d="M559 359c1,6 2,9 3,10 -17,16 -64,58 -47,-6 0,0 2,-16 3,-30l39 -17c0,11 2,36 2,43z"/>
      <path fill="#F09A6C" fill-rule="nonzero" d="M568 363c0,0 -3,9 -6,6 4,-4 6,-6 6,-6z"/>
     </g>
     <path fill="#F2CD90" fill-rule="nonzero" d="M516 354c0,0 -26,-8 -36,15 -7,17 -18,47 -18,47l45 26c0,0 9,-65 9,-88z"/>
     <g>
      <path fill="#F2CD90" fill-rule="nonzero" d="M515 355c1,2 -35,67 -34,88 1,21 2,54 1,57 0,0 81,0 119,0 3,-42 3,-112 -6,-138 0,0 -29,-13 -37,-13 0,0 -40,45 -43,6z"/>
     </g>
     <path fill="#F0A852" fill-rule="nonzero" d="M586 358c-22,30 -62,84 -78,94 -9,5 -19,0 -27,-9 1,21 2,54 1,57 0,0 81,0 119,0 3,-42 3,-112 -6,-138 0,0 -4,-2 -9,-4z"/>
     <g>
      <path fill="#F09A6C" fill-rule="nonzero" d="M720 350c-2,9 -11,18 -11,18 0,0 -48,131 -66,131 -19,0 -43,-48 -69,-85 -29,-41 -10,-61 4,-59 25,4 57,70 65,77 13,-19 37,-62 43,-74 0,0 -3,-16 -2,-24 0,-1 1,-2 2,-3l5 -2c0,0 5,-13 6,-15 0,-2 11,-12 12,-11 3,2 -7,14 -7,15 0,1 0,6 0,6 0,0 3,0 4,-1 1,0 3,2 3,2 0,0 1,-1 3,-1 2,0 3,4 3,4 0,0 3,-1 3,0 1,0 6,16 6,17 -1,1 -4,-1 -4,-1l0 6z"/>
      <path fill="#F2CD90" fill-rule="nonzero" d="M673 374c-10,18 -22,35 -31,48 -8,-7 -39,-63 -64,-67 -14,-2 -33,18 -4,59 26,37 50,95 69,95 12,0 55,-57 74,-89 -7,-7 -37,-39 -44,-46z"/>
      <path fill="#F2CD90" fill-rule="nonzero" d="M624 402c3,-2 -51,18 -51,18 0,0 -40,-53 -12,-67 18,-9 42,-13 63,49z"/>
      <g>
       <g>
        <g>
         <path fill="#F2706B" fill-rule="nonzero" d="M686 332c5,-2 10,-3 16,-4 0,0 1,0 1,0 0,0 0,0 0,0 1,0 1,1 1,1 0,0 0,1 -1,1 0,2 -1,2 -2,3 0,0 -1,1 -2,1 0,0 -1,0 -1,1 -1,0 -1,0 -1,1 1,0 1,1 1,2 1,2 2,5 2,8 0,0 0,0 0,0 1,-3 -1,-6 -2,-9 0,0 0,0 0,-1 0,0 -1,-1 0,-1 0,0 0,-1 1,-1 0,0 0,0 1,0 1,-1 2,-1 3,-2 1,-1 1,-3 0,-4 0,0 0,0 0,0 -4,0 -9,1 -14,3 -1,0 -2,1 -3,1 -1,0 -1,0 0,0z"/>
        </g>
        <g>
         <path fill="#F2706B" fill-rule="nonzero" d="M703 333c2,4 4,8 8,11 0,0 0,0 1,0 0,0 0,0 0,0 0,-1 0,-1 0,-1 0,-1 0,-2 0,-2 -1,-3 -1,-5 -2,-8 -1,-3 -2,-5 -3,-8 0,0 0,0 0,0 2,5 3,9 4,14 0,1 1,2 1,3 0,1 0,1 0,2 0,0 0,0 -1,0 0,0 0,0 0,0 -2,-2 -3,-3 -5,-5 -1,-2 -2,-4 -3,-6 0,0 0,0 0,0z"/>
        </g>
        <g>
         <path fill="#F2706B" fill-rule="nonzero" d="M714 328c2,5 3,10 4,14 0,2 0,3 1,5 0,0 0,0 0,-1 -4,-1 -6,-3 -8,-7 0,0 0,0 0,1 1,3 4,6 8,7 0,0 0,0 0,0 -1,-5 -2,-10 -3,-15 -1,-1 -1,-3 -1,-4 0,0 -1,0 -1,0z"/>
        </g>
        <g>
         <path fill="#F2706B" fill-rule="nonzero" d="M718 343c1,0 2,1 3,2 0,0 0,0 1,1 0,0 0,0 1,0 0,0 0,-1 0,-2 0,-1 0,-2 0,-3 -1,-4 -2,-8 -4,-12 0,-1 0,-2 -1,-2 -1,-1 -2,-1 -2,0 0,0 0,0 0,0 0,0 1,0 1,0 1,0 1,0 1,0 1,1 1,2 1,3 1,1 2,3 2,5 1,1 1,3 2,5 0,1 0,2 0,3 0,0 0,1 0,1 0,0 0,1 0,1 0,1 0,1 0,1 -1,0 -1,0 -1,0 0,-1 -1,-1 -1,-1 -1,-1 -2,-2 -3,-2 0,0 0,0 0,0z"/>
        </g>
       </g>
       <g>
        <path fill="#F2706B" fill-rule="nonzero" d="M712 342c0,0 0,0 0,0 0,0 0,0 0,0z"/>
        <path fill="#F2706B" fill-rule="nonzero" d="M716 346c0,0 0,0 0,-1 -2,-1 -3,-2 -4,-3 0,1 0,2 -1,2 -1,0 -2,-1 -2,-2 -3,-2 -5,-5 -7,-9 0,0 0,0 -1,0 0,0 0,0 0,0 -2,0 -3,1 -4,3l0 0c1,3 2,5 3,8 1,2 2,4 4,6 1,2 3,3 5,3 3,0 6,-3 7,-6 0,0 0,0 0,-1z"/>
       </g>
      </g>
     </g>
     <path fill="#ED6949" fill-rule="nonzero" d="M518 334c0,0 18,2 30,-7 0,0 -16,18 -31,18l1 -11z"/>
    </g>
   </g>
   <g>
    <g>
     <g>
      <path fill="#F09A6C" fill-rule="nonzero" d="M476 474c-17,-15 -51,-40 -51,-40 0,0 -47,-44 -46,-47 2,-3 20,8 20,8 -1,-3 -17,-16 -16,-17 1,-2 21,13 22,12 1,-1 -20,-16 -18,-19 1,-2 23,14 24,13 2,0 -20,-17 -17,-19 4,-2 32,27 35,27 3,0 -5,-16 -3,-22 1,-7 19,29 19,29 6,6 53,39 53,39l-22 36z"/>
      <path fill="#EE7B58" fill-rule="nonzero" d="M426 390l7 17c0,0 -2,-17 -1,-18l-6 1z"/>
      <path fill="#508E7B" fill-rule="nonzero" d="M509 423c0,0 75,-121 116,-76 23,26 -83,157 -104,168l-97 -69 30 -52 55 29z"/>
      <g>
       <polygon fill="#36568C" fill-rule="nonzero" points="440,458 440,458 471,404 471,404 "/>
      </g>
      <path fill="#508E7B" fill-rule="nonzero" stroke="#C8D4E8" stroke-width="3.13853" d="M625 347c-11,-12 -46,-9 -77,41 -10,18 -22,35 -34,52 -3,4 -6,9 -9,13 -2,3 -4,6 -7,8 -6,2 -9,-1 -15,-3 -7,-4 -17,-9 -24,-13 -4,-3 -6,-5 -6,-5 0,0 -4,8 -6,11l74 64c21,-11 127,-142 104,-168z"/>
     </g>
     <g>
      <path fill="#1A114B" fill-rule="nonzero" d="M557 745l88 0c12,-64 28,-127 46,-162l-121 -8c0,0 -11,128 -13,170z"/>
      <g>
       <path fill="#344F9C" fill-rule="nonzero" d="M695 742c-2,-38 6,-114 9,-164l-134 -3c0,0 1,93 25,170l100 0c0,-1 0,-2 0,-3z"/>
       <g>
        <g>
         <polygon fill="#0A152A" fill-rule="nonzero" points="657,628 617,576 618,576 657,628 "/>
        </g>
       </g>
      </g>
      <g>
       <path fill="white" fill-rule="nonzero" d="M711 377c-1,-32 -33,-43 -33,-43l-18 -13 0 1 -39 25 -3 -7 1 -6 -10 4c-4,0 -31,29 -38,81l-3 168 130 10c0,0 15,-171 13,-220z"/>
       <g>
        <polygon fill="white" fill-rule="nonzero" points="712,583 551,572 551,571 712,583 "/>
       </g>
       <g>
        <path fill="#508E7B" fill-rule="nonzero" d="M665 323c0,0 -22,28 -37,93 -13,56 -27,189 -27,189l111 1c0,0 5,-88 3,-101 -2,-13 55,-139 -14,-161l-36 -21z"/>
       </g>
       <g>
        <path fill="#508E7B" fill-rule="nonzero" d="M610 357l-1 3 -21 244 -38 -2 14 -176c2,-27 12,-52 28,-74 8,-9 17,-17 24,-18l-6 23z"/>
       </g>
      </g>
      <path fill="white" fill-rule="nonzero" d="M606 510c0,2 0,4 1,5 1,0 2,-2 2,-5 1,-3 0,-5 -1,-5 0,0 -1,2 -2,5z"/>
      <g>
       <g>
        <path fill="#F09A6C" fill-rule="nonzero" d="M659 324l-16 18c-10,14 -30,13 -25,-2 4,-16 2,-33 2,-31 -1,0 -2,0 -4,0 0,0 0,0 0,0l38 -20c1,10 5,35 5,35z"/>
        <polygon fill="#822F4B" fill-rule="nonzero" points="616,309 630,307 618,342 "/>
       </g>
      </g>
      <g>
       <g>
        <path fill="white" fill-rule="nonzero" d="M573 502l-26 -90c-2,-4 -5,-7 -8,-9l-92 -28c-6,-2 -11,4 -9,11l24 72c2,4 5,8 10,10l94 36c2,1 8,0 7,-2z"/>
        <path fill="#4475AA" fill-rule="nonzero" d="M568 505l-28 -91c-1,-3 -3,-5 -6,-7l-98 -30c-4,-1 -7,3 -6,7l25 75c2,5 4,7 8,10 17,8 106,37 105,36z"/>
        <polygon fill="#0A152A" fill-rule="nonzero" points="555,441 552,457 561,458 "/>
       </g>
       <path fill="#F09A6C" fill-rule="nonzero" d="M595 529c-48,-33 -75,-59 -81,-63 -3,-3 -11,-12 -10,-13 2,-4 18,14 18,13 -1,-1 -22,-19 -20,-22 1,-4 24,16 24,16 6,5 -22,-18 -22,-21 1,-4 15,6 15,7 0,0 11,9 12,8 1,-1 -18,-27 -15,-27 4,-1 16,15 20,18 4,4 13,7 16,9 5,4 5,-8 3,-12 0,0 8,10 11,18 2,5 3,10 3,10l40 27 -14 32z"/>
       <path fill="#508E7B" fill-rule="nonzero" stroke="#C8D4E8" stroke-width="3.13853" d="M731 409l-28 132c-5,36 -38,58 -63,32l-24 -25 115 -139z"/>
       <path fill="#508E7B" fill-rule="nonzero" d="M676 378c0,0 20,-31 38,-20 30,18 35,92 -27,184 -14,21 -54,24 -72,6l-65 -40 28 -44 42 29 56 -115z"/>
      </g>
     </g>
    </g>
    <g>
     <path fill="#38251E" fill-rule="nonzero" d="M674 233c0,0 -11,-15 -21,-17 -9,-3 -14,3 -14,3 0,0 -2,-4 -4,-4 -3,0 -6,2 -6,2 0,0 -5,-5 -12,-5 -7,0 -11,4 -12,7 0,0 -11,-6 -12,8 -1,5 3,8 3,8 0,0 -1,11 4,13 0,0 -1,7 2,7l56 36c19,5 34,-54 16,-58z"/>
     <g>
      <g>
       <path fill="#F09A6C" fill-rule="nonzero" d="M644 226c-21,-3 -34,3 -41,25 0,1 0,2 -1,3 -1,5 -2,12 -1,15 0,0 -11,27 11,51 2,2 14,1 18,0 28,-5 25,-37 25,-37 1,-2 11,-2 12,-4 6,-19 3,-49 -23,-53z"/>
       <g>
        <path fill="#EE7B58" fill-rule="nonzero" d="M608 285c0,7 -2,14 -7,18 -6,-18 0,-34 0,-34 0,0 0,-1 0,-1 5,4 7,11 7,17z"/>
       </g>
       <path fill="#EE7B58" fill-rule="nonzero" d="M654 275c4,0 7,2 9,5 -3,1 -8,2 -8,3 0,0 1,13 -5,24 -5,-3 -9,-9 -9,-16 0,-9 6,-16 13,-16z"/>
       <path fill="#38251E" fill-rule="nonzero" d="M622 298c-3,0 -5,-1 -5,-1l1 -1c0,0 8,3 18,-5l0 1c-5,5 -11,6 -14,6z"/>
       <path fill="#38251E" fill-rule="nonzero" d="M632 259c2,-2 10,2 11,3 2,1 1,3 1,4 0,0 -1,-1 -4,-1 -5,-2 -7,-1 -8,-3 -1,-1 -1,-2 0,-3z"/>
       <path fill="#38251E" fill-rule="nonzero" d="M614 258c-1,-1 -8,1 -8,1 -2,1 -3,3 -2,4 0,0 1,0 3,-1 4,0 5,1 7,-1 0,-1 0,-2 0,-3z"/>
       <path fill="#38251E" fill-rule="nonzero" d="M637 274c0,2 -1,3 -2,2 -1,0 -2,-1 -1,-2 0,-2 1,-3 2,-3 1,1 1,2 1,3z"/>
       <path fill="#38251E" fill-rule="nonzero" d="M611 271c0,1 -1,2 -2,2 -1,0 -1,-1 -1,-3 1,-1 2,-2 2,-2 1,0 2,2 1,3z"/>
       <path fill="#38251E" fill-rule="nonzero" d="M603 251c0,0 -15,-24 -3,-27 12,-4 32,-11 50,0 19,11 25,25 27,29 4,6 -3,25 -10,38 -2,4 -12,0 -12,0l-2 -43c0,0 -36,2 -45,-6 0,0 -4,3 -5,9z"/>
       <g>
        <path fill="#EE7B58" fill-rule="nonzero" d="M671 287c-2,6 -8,10 -14,8 -5,-2 -8,-8 -6,-15 2,-6 8,-10 14,-8 5,2 8,9 6,15z"/>
        <path fill="#38251E" fill-rule="nonzero" d="M662 287c-1,-1 -4,-2 -5,-2l-1 -1 1 0c1,-3 2,-5 4,-5 3,-1 5,0 5,0l-1 1c0,0 -1,-1 -3,0 -2,0 -3,2 -4,3 1,1 4,2 5,4l-1 0z"/>
       </g>
       <path fill="#38251E" fill-rule="nonzero" d="M646 239c0,0 -3,42 9,44l-1 -36 -8 -8z"/>
       <path fill="#38251E" fill-rule="nonzero" d="M616 285c0,-1 -3,-3 -5,-5 0,-1 0,-1 0,-2 1,-2 8,-3 9,-3l0 1c-3,0 -7,2 -8,3 0,0 0,0 0,0 2,2 5,4 5,4l-1 2z"/>
      </g>
     </g>
    </g>
   </g>
   <g>
    <g>
     <g>
      <polygon fill="#34488A" fill-rule="nonzero" points="422,637 456,637 456,526 422,526 "/>
     </g>
     <g>
      <polygon fill="#344F9C" fill-rule="nonzero" points="339,637 422,637 422,526 339,526 "/>
     </g>
     <g>
      <path fill="#DDE6FD" fill-rule="nonzero" d="M445 540c0,-3 -3,-6 -6,-6 -3,0 -6,3 -6,6 0,3 3,6 6,6 3,0 6,-3 6,-6z"/>
     </g>
     <g>
      <path fill="#344F9C" fill-rule="nonzero" d="M443 540c0,-2 -2,-4 -4,-4 -2,0 -4,2 -4,4 0,2 2,4 4,4 2,0 4,-2 4,-4z"/>
     </g>
     <g>
      <polygon fill="#DFE6F2" fill-rule="nonzero" points="431,583 447,583 447,554 431,554 "/>
     </g>
    </g>
    <g>
     <g>
      <polygon fill="#34488A" fill-rule="nonzero" points="299,637 333,637 333,526 299,526 "/>
     </g>
     <g>
      <polygon fill="#344F9C" fill-rule="nonzero" points="216,637 299,637 299,526 216,526 "/>
     </g>
     <g>
      <path fill="#DDE6FD" fill-rule="nonzero" d="M322 540c0,-3 -3,-6 -6,-6 -3,0 -6,3 -6,6 0,3 3,6 6,6 3,0 6,-3 6,-6z"/>
     </g>
     <g>
      <path fill="#344F9C" fill-rule="nonzero" d="M320 540c0,-2 -2,-4 -4,-4 -2,0 -4,2 -4,4 0,2 2,4 4,4 2,0 4,-2 4,-4z"/>
     </g>
     <g>
      <polygon fill="#DFE6F2" fill-rule="nonzero" points="308,583 324,583 324,554 308,554 "/>
     </g>
    </g>
    <g>
     <g>
      <polygon fill="#F0A852" fill-rule="nonzero" points="211,743 405,743 405,599 211,599 "/>
     </g>
     <g>
      <polygon fill="#F2CD90" fill-rule="nonzero" points="315,743 469,743 469,599 315,599 "/>
     </g>
     <g>
      <path fill="#344F9C" fill-rule="nonzero" d="M381 622l40 0c2,0 4,-2 4,-4l0 -1c0,-2 -2,-4 -4,-4l-40 0c-2,0 -4,2 -4,4l0 1c0,2 2,4 4,4z"/>
     </g>
    </g>
   </g>
   <g>
    <path fill="#1A114B" fill-rule="nonzero" d="M138 487c-13,23 -23,47 -35,75 -15,35 -43,110 -72,187l227 0c0,-102 -8,-210 -38,-260 -26,-3 -55,-3 -82,-2z"/>
    <g>
     <g>
      <path fill="#001A2F" fill-rule="nonzero" d="M228 330c-2,-8 5,-11 5,-22 1,-11 -7,-16 -15,-21 -7,-4 -5,-16 -3,-21 2,-6 8,-24 -8,-36 -15,-12 -31,-3 -31,-3 0,0 -26,-6 -33,66 0,1 5,64 5,64 0,0 55,-1 64,-7 8,-7 23,-6 23,-10 -1,-3 -5,-2 -7,-10z"/>
      <g>
       <path fill="#001A2F" fill-rule="nonzero" d="M234 337l-1 -1c0,0 2,-2 3,-4 1,-3 1,-6 -1,-8 -5,-6 -3,-12 -1,-18 1,-4 3,-7 2,-10 -1,-3 -4,-4 -8,-5 -5,-1 -11,-3 -13,-12 0,-5 0,-10 1,-14 0,-10 1,-19 -8,-23l0 -2c11,6 10,15 9,25 0,4 -1,9 0,13 2,9 7,10 12,12 3,1 7,2 8,5 1,4 0,8 -1,12 -2,5 -4,10 0,16 2,3 3,6 1,10 -1,2 -3,4 -3,4zm0 0l0 0 -1 -1c0,0 0,0 0,0l1 1z"/>
      </g>
     </g>
     <path fill="#F09A6C" fill-rule="nonzero" d="M156 354c0,6 29,27 40,24 6,-2 3,-36 1,-50l-34 -29c-1,11 -6,48 -7,55z"/>
     <path fill="#EE7B58" fill-rule="nonzero" d="M198 329c-2,0 -22,-8 -36,-21 0,2 0,3 -1,5 3,11 13,33 38,28 -1,-5 -1,-9 -1,-12z"/>
     <path fill="#F09A6C" fill-rule="nonzero" d="M165 236c23,-6 39,6 45,27 0,0 2,15 3,16 0,1 11,24 -7,47 -1,1 -3,2 -5,2 -34,10 -39,-25 -39,-25 -1,-2 -17,-18 -18,-19 -6,-22 -2,-42 21,-48z"/>
     <path fill="#38251E" fill-rule="nonzero" d="M195 308c3,-1 5,-1 5,-1l-1 -2c0,1 -7,4 -16,-2l-1 1c5,3 10,4 13,4z"/>
     <path fill="#38251E" fill-rule="nonzero" d="M182 272c-1,-2 -9,3 -9,3 -3,2 -2,3 -1,4 0,0 1,0 3,-1 5,-2 7,-2 8,-3 0,-1 0,-2 -1,-3z"/>
     <path fill="#38251E" fill-rule="nonzero" d="M199 270c1,-2 8,-1 8,-1 3,1 3,2 3,3 -1,0 -1,0 -3,0 -5,0 -6,1 -7,0 -1,0 -1,-2 -1,-2z"/>
     <path fill="#38251E" fill-rule="nonzero" d="M199 296c0,0 3,-1 3,-4 0,-2 -1,-4 -4,-6l-1 1c3,2 4,4 4,5 0,2 -3,3 -3,3l1 1z"/>
     <g>
      <path fill="#F09A6C" fill-rule="nonzero" d="M144 303c2,7 9,11 15,9 6,-2 9,-9 7,-16 -2,-7 -9,-11 -15,-9 -6,2 -9,9 -7,16z"/>
      <path fill="#38251E" fill-rule="nonzero" d="M154 304c1,-2 4,-3 5,-3l1 0 0 -1c-1,-3 -3,-5 -5,-6 -3,-1 -5,1 -5,1l0 1c1,0 2,-1 4,0 2,0 3,1 4,4 -1,0 -4,1 -5,3l1 1z"/>
     </g>
     <g>
      <path fill="#EE7B58" fill-rule="nonzero" d="M161 303c-1,-6 -1,-12 -1,-12 8,0 16,6 16,14 1,6 -2,12 -8,14 -5,-7 -7,-16 -7,-16z"/>
      <path fill="#EE7B58" fill-rule="nonzero" d="M214 284c2,5 3,14 1,24 -4,-2 -6,-6 -7,-11 0,-5 2,-10 6,-13z"/>
     </g>
     <path fill="#38251E" fill-rule="nonzero" d="M178 286c0,1 2,2 2,2 1,0 2,-2 1,-3 0,-2 -1,-3 -2,-2 -1,0 -1,1 -1,3z"/>
     <path fill="#38251E" fill-rule="nonzero" d="M204 282c1,1 2,2 2,2 1,-1 1,-2 1,-3 0,-2 -1,-3 -2,-2 -1,0 -1,1 -1,3z"/>
     <g>
      <path fill="#001A2F" fill-rule="nonzero" d="M134 229c-14,10 -17,22 -19,34 -3,12 -21,15 -24,23 -4,9 1,10 -1,17 -1,7 -14,9 -13,18 0,9 -5,12 -10,13 -5,2 -7,9 -3,10 4,2 12,2 24,6 13,5 61,9 61,9 6,-8 6,-17 4,-28 -2,-12 2,-11 9,-23 6,-13 4,-14 2,-25 -1,-11 5,-15 11,-27 7,-12 3,-17 3,-17l6 -15c-14,-11 -35,-5 -50,5z"/>
      <g>
       <path fill="#001A2F" fill-rule="nonzero" d="M61 328l-1 -2c11,-2 10,-11 9,-14 -1,-4 0,-7 1,-9 2,-3 6,-5 11,-6 4,-1 4,-3 3,-8 0,-4 0,-8 3,-11 3,-2 5,-3 8,-5 6,-3 13,-6 15,-13 2,-9 10,-24 24,-32 11,-5 22,-6 36,-1l-1 2c-13,-5 -24,-5 -34,1 -15,8 -22,24 -24,30 -2,8 -9,12 -15,15 -3,1 -6,3 -8,4 -3,3 -2,6 -2,10 0,4 1,9 -5,10 -4,1 -7,2 -9,5 -2,2 -2,4 -1,7 0,3 1,6 -1,10 -2,3 -5,6 -9,7z"/>
      </g>
     </g>
     <path fill="#001A2F" fill-rule="nonzero" d="M169 228c0,0 -1,18 22,24 9,2 21,23 21,23 0,0 6,-22 1,-35 -6,-14 -22,-23 -44,-12z"/>
    </g>
    <g>
     <path fill="#F09A6C" fill-rule="nonzero" d="M311 363c-2,2 -11,63 -27,99 -8,17 -30,-22 -29,-24l30 -84c0,0 -6,-18 -5,-22 3,-8 7,-23 9,-23 5,0 2,18 2,18 0,0 17,-25 23,-30 7,-4 -1,12 -1,12 0,0 5,-8 7,-7 2,0 -2,10 -2,10 0,0 8,-7 8,-3 0,3 -5,12 -5,12 0,0 10,-8 9,-3 0,6 -19,45 -19,45z"/>
     <path fill="#344F9C" fill-rule="nonzero" d="M239 375c0,0 17,44 18,42l14 -41c9,6 36,17 45,23 -6,23 -24,62 -42,88 -10,15 -32,-1 -46,-13 -14,-11 11,-99 11,-99z"/>
     <g>
      <g>
       <polygon fill="#EB8050" fill-rule="nonzero" points="304,322 303,322 314,306 314,306 "/>
      </g>
      <g>
       <polygon fill="#EB8050" fill-rule="nonzero" points="309,324 309,324 318,312 318,312 "/>
      </g>
      <g>
       <polygon fill="#EB8050" fill-rule="nonzero" points="317,327 316,327 323,320 323,320 "/>
      </g>
      <g>
       <path fill="#EB8050" fill-rule="nonzero" d="M319 330c-6,-7 -19,-9 -19,-9l0 -1c0,0 13,3 19,10l0 0z"/>
      </g>
      <g>
       <path fill="#EB8050" fill-rule="nonzero" d="M301 342c-1,-10 -6,-13 -6,-13l0 0c0,0 5,3 6,13l0 0z"/>
      </g>
     </g>
    </g>
    <g>
     <path fill="#F09A6C" fill-rule="nonzero" d="M148 358c0,0 3,9 6,6 -4,-3 -6,-6 -6,-6z"/>
    </g>
    <path fill="#344F9C" fill-rule="nonzero" d="M199 350c0,0 26,-9 36,14 7,17 18,46 18,46l-45 27c0,0 -9,-65 -9,-87z"/>
    <g>
     <path fill="#344F9C" fill-rule="nonzero" d="M200 350c-1,2 35,67 34,88 -1,21 -2,53 -1,56 0,0 -80,0 -119,1 -2,-43 -2,-112 7,-138 0,0 29,-12 36,-13 0,0 41,45 43,6z"/>
    </g>
    <g>
     <path fill="#F2CD90" fill-rule="nonzero" d="M158 344c-2,0 -6,1 -10,2 4,17 12,49 15,58 3,12 12,73 15,90 8,0 15,0 22,0l5 -49 2 -78c-4,-9 -8,-17 -8,-18 -12,16 -41,-5 -41,-5z"/>
     <path fill="#F2CD90" fill-rule="nonzero" d="M200 350c0,0 0,0 0,0 0,0 0,0 0,0z"/>
    </g>
    <path fill="#E9AA89" fill-rule="nonzero" d="M162 355c0,0 15,23 33,-2 0,0 -16,40 -33,2z"/>
    <path fill="#1A114B" fill-rule="nonzero" d="M152 339c0,0 -16,20 -16,37 0,16 26,43 26,43 0,0 -8,23 -3,34 5,12 19,40 19,40 0,0 1,-57 -1,-67 -3,-10 -25,-87 -25,-87z"/>
    <path fill="#1A114B" fill-rule="nonzero" d="M146 494c-22,0 -15,0 -32,1 -2,-33 -2,-82 2,-115 19,39 8,77 30,114z"/>
    <path fill="#1A114B" fill-rule="nonzero" d="M205 343c0,0 27,41 23,54 -4,13 -19,23 -19,23 0,0 8,12 6,21 -2,8 -14,55 -14,55 0,0 -2,-80 -1,-90 1,-11 5,-63 5,-63z"/>
    <g>
     <path fill="#508E7B" fill-rule="nonzero" d="M148 504l69 0c1,0 2,-1 2,-2 2,-6 9,-32 13,-47l2 -8 6 -26c0,-3 -1,-5 -3,-5l-69 0c-2,0 -4,2 -4,4l-14 58 -5 22c-1,2 1,4 3,4z"/>
     <path fill="#5B9A87" fill-rule="nonzero" d="M148 500l19 -80c1,-2 2,-4 5,-4l-4 0c-2,0 -4,2 -4,4l-19 80c-1,2 1,4 3,4l4 0c-3,0 -4,-2 -4,-4z"/>
     <path fill="#5B9A87" fill-rule="nonzero" d="M148 504l69 0c1,0 2,-1 2,-2 2,-6 9,-32 13,-47l2 -8c-11,13 -29,32 -48,36 -13,3 -26,0 -36,-5l-5 22c-1,2 1,4 3,4z"/>
    </g>
    <g>
     <path fill="#344F9C" fill-rule="nonzero" d="M109 362c0,0 -63,55 -78,109 10,32 73,-8 73,-8l14 -25c0,0 38,-110 -9,-76z"/>
     <path fill="#1A114B" fill-rule="nonzero" d="M132 379l-44 87 13 -1c2,-1 3,-2 3,-2l14 -25c0,0 12,-34 14,-59z"/>
     <path fill="#344F9C" fill-rule="nonzero" d="M138 510c0,0 -39,6 -76,6 -23,0 -39,-23 -31,-45l0 0c0,0 15,-5 44,-7 24,-1 50,-1 60,-4l3 50z"/>
     <path fill="#1A114B" fill-rule="nonzero" d="M138 510c-13,0 -11,-16 -15,-28 -5,-12 -25,-11 -35,-11 -13,0 -40,14 -40,14 0,0 4,-18 27,-21 24,-3 50,-1 60,-4l3 50z"/>
     <g>
      <path fill="#F09A6C" fill-rule="nonzero" d="M135 463c0,0 10,-5 13,-9 3,-3 10,-7 10,-7l-1 7c0,0 35,-10 39,-9 4,2 -4,7 -4,7 0,0 8,-3 8,-2 0,2 -2,6 -4,7 0,0 2,0 2,2 1,2 -10,10 -19,14 0,0 10,-2 13,0 0,0 -14,7 -20,8 -5,2 -35,5 -35,5l-2 -23z"/>
      <g>
       <polygon fill="#C17552" fill-rule="nonzero" points="166,461 166,460 192,451 192,452 "/>
      </g>
      <g>
       <path fill="#C17552" fill-rule="nonzero" d="M169 467l0 -1c9,-2 27,-9 27,-9l0 1c0,0 -17,7 -27,9z"/>
      </g>
      <g>
       <polygon fill="#C17552" fill-rule="nonzero" points="171,475 171,475 179,472 179,473 "/>
      </g>
      <polygon fill="#EE7B58" fill-rule="nonzero" points="135,463 137,486 142,486 "/>
     </g>
    </g>
   </g>
   <polygon fill="#C17552" fill-rule="nonzero" points="19,756 737,756 737,743 19,743 "/>
  </g>
  <rect fill="none" width="756" height="756"/>
 </g>
</svg>
