<?xml version="1.0" encoding="UTF-8"?>
<!DOCTYPE svg PUBLIC "-//W3C//DTD SVG 1.1//EN" "http://www.w3.org/Graphics/SVG/1.1/DTD/svg11.dtd">
<!-- Creator: CorelDRAW X8 -->
<svg xmlns="http://www.w3.org/2000/svg" xml:space="preserve" width="59.2666mm" height="59.3516mm" version="1.1" shape-rendering="geometricPrecision" text-rendering="geometricPrecision" image-rendering="optimizeQuality" fill-rule="evenodd" clip-rule="evenodd"
viewBox="0 0 835 836"
 xmlns:xlink="http://www.w3.org/1999/xlink">
 <g id="Layer_x0020_1">
  <metadata id="CorelCorpID_0Corel-Layer"/>
  <g id="_1972957885360">
   <g>
    <path fill="white" fill-rule="nonzero" d="M676 496c0,0 -4,-3 -5,2 0,0 -9,-5 -15,6 0,0 -5,-5 -10,3l63 0c0,0 -3,-8 -9,-5 0,0 -1,-8 -8,-9 -2,-4 -11,-8 -16,3z"/>
    <polygon fill="#F7B397" fill-rule="nonzero" points="603,708 602,738 616,739 618,699 "/>
    <path fill="#F7B397" fill-rule="nonzero" d="M601 735c0,0 10,6 16,-3l37 21 -59 -2 6 -16z"/>
    <path fill="#F7F6F2" fill-rule="nonzero" d="M640 745c-2,2 -4,4 -5,8l19 0 -14 -8z"/>
    <polygon fill="#F7F6F2" fill-rule="nonzero" points="654,758 595,756 595,751 654,753 "/>
    <path fill="#F7F6F2" fill-rule="nonzero" d="M621 742c0,0 0,0 0,0 3,-3 5,-5 5,-5 1,0 1,-1 0,-1 0,-1 0,-1 -1,0 0,0 -3,1 -5,4 -1,1 0,1 0,2 0,0 1,0 1,0z"/>
    <path fill="#F7F6F2" fill-rule="nonzero" d="M626 744c0,0 0,0 0,0 3,-3 5,-4 5,-4 0,-1 1,-1 0,-2 0,0 -1,0 -1,0 0,0 -3,2 -5,5 -1,0 -1,1 0,1 0,1 0,1 1,0z"/>
    <path fill="#F7F6F2" fill-rule="nonzero" d="M631 747c0,0 0,0 0,0 2,-3 5,-5 5,-5 0,0 0,-1 0,-1 0,0 -1,-1 -1,0 0,0 -3,1 -6,5 0,0 0,1 1,1 0,0 0,0 1,0z"/>
    <path fill="#603131" fill-rule="nonzero" d="M617 477c0,0 24,31 14,111l-10 134 -21 -1 -7 -244 24 0z"/>
    <polygon fill="#F7B397" fill-rule="nonzero" points="574,707 574,738 559,738 560,697 "/>
    <path fill="#F7B397" fill-rule="nonzero" d="M574 734c0,0 -10,6 -15,-4l-39 19 60 2 -6 -17z"/>
    <path fill="#F7F6F2" fill-rule="nonzero" d="M536 742c1,2 3,4 4,8l-20 -1 16 -7z"/>
    <polygon fill="#F7F6F2" fill-rule="nonzero" points="520,755 580,756 580,751 520,749 "/>
    <path fill="#F7F6F2" fill-rule="nonzero" d="M554 740c0,0 0,0 0,0 -2,-3 -4,-5 -5,-5 0,0 0,-1 0,-1 1,-1 1,-1 2,-1 0,1 2,2 5,6 0,0 0,1 -1,1 0,0 0,0 -1,0z"/>
    <path fill="#F7F6F2" fill-rule="nonzero" d="M549 742c0,0 0,0 0,0 -2,-3 -4,-5 -4,-5 -1,0 -1,-1 -1,-1 1,0 1,-1 2,0 0,0 2,2 5,5 0,0 0,1 -1,1 0,0 0,0 -1,0z"/>
    <path fill="#F7F6F2" fill-rule="nonzero" d="M545 745c-1,0 -1,-1 -1,-1 -2,-3 -4,-4 -4,-4 -1,-1 -1,-1 -1,-2 1,0 1,0 2,0 0,0 2,2 5,5 0,1 0,1 0,2 -1,0 -1,0 -1,0z"/>
    <path fill="#603131" fill-rule="nonzero" d="M572 476c0,0 -26,29 -20,110l2 134 23 0 18 -243 -23 -1z"/>
    <polygon fill="#603131" fill-rule="nonzero" points="612,533 572,532 573,492 613,493 "/>
    <path fill="#6E97FD" fill-rule="nonzero" d="M598 532c0,0 0,0 0,1 0,0 0,0 0,0l-19 -1c0,0 0,-1 0,-1 0,0 0,-1 1,-1l18 2z"/>
    <path fill="#F7B397" fill-rule="nonzero" d="M551 470c0,0 12,4 5,16 -5,12 -15,14 -23,11 -2,0 -2,-1 -2,-3 1,-1 2,-1 2,-1 3,0 9,0 10,-4 2,-5 0,-11 3,-16l5 -3z"/>
    <polygon fill="#F7B397" fill-rule="nonzero" points="551,470 545,458 534,464 546,478 "/>
    <path fill="#6E97FD" fill-rule="nonzero" d="M553 394c0,0 -20,9 -45,33 -3,3 -4,7 -3,10 2,6 8,17 28,31l17 -8 -14 -21 29 -11 -12 -34z"/>
    <polygon fill="#F7F6F2" fill-rule="nonzero" points="629,497 561,496 571,390 625,392 "/>
    <path fill="#6E97FD" fill-rule="nonzero" d="M563 390l-10 4c0,0 13,49 -9,125l17 4c0,0 20,-54 20,-128l-18 -5z"/>
    <path fill="#6E97FD" fill-rule="nonzero" d="M634 393c28,31 31,119 31,119l-33 -3 -10 -99 12 -17z"/>
    <path fill="#6E97FD" fill-rule="nonzero" d="M632 392l4 2c3,1 4,4 3,7 -3,15 -10,59 4,121l-17 3c0,0 -17,-55 -13,-129l19 -4z"/>
    <path fill="#6E97FD" fill-rule="nonzero" fill-opacity="0.400000" d="M632 442c0,0 0,-1 1,-1 0,0 0,1 0,1l4 44c0,0 0,0 -1,0 0,0 0,0 0,0l-4 -44z"/>
    <path fill="#F7B397" fill-rule="nonzero" d="M607 372c0,0 -4,3 -7,4 -4,0 -7,-2 -7,-2 0,0 -4,-3 -4,-3l-2 19 1 1c5,5 13,5 19,0l1 -1 -1 -18z"/>
    <path fill="#F7B397" fill-rule="nonzero" d="M620 343c0,8 -2,15 -3,20 -1,5 -5,8 -10,11l-1 1c-5,3 -11,2 -16,-1 -6,-3 -9,-6 -10,-12 -2,-10 -2,-20 -2,-20 0,0 -1,-23 22,-22 22,1 20,23 20,23z"/>
    <path fill="#282829" fill-rule="nonzero" d="M591 349c0,1 -1,1 -2,1 -1,0 -2,-1 -2,-2 0,-1 1,-1 2,-1 1,0 2,1 2,2z"/>
    <path fill="#282829" fill-rule="nonzero" d="M609 349c0,1 -1,2 -2,2 -1,0 -2,-1 -2,-2 0,-1 1,-2 2,-2 1,0 2,1 2,2z"/>
    <path fill="#DB7267" fill-rule="nonzero" d="M596 353c0,0 0,0 0,0 1,0 1,0 1,0l0 3 1 0c1,0 1,0 1,0 0,1 0,1 -1,1l-2 0c0,0 0,0 0,-1l0 -3z"/>
    <path fill="#282829" fill-rule="nonzero" d="M583 341l11 -1c0,0 0,-3 -5,-3 -5,0 -6,4 -6,4z"/>
    <path fill="#282829" fill-rule="nonzero" d="M613 341l-12 -1c0,0 2,-3 6,-2 5,0 6,3 6,3z"/>
    <path fill="#DB7267" fill-rule="nonzero" d="M590 359c0,0 0,0 0,0 0,-1 1,-1 1,0 0,0 3,2 7,1 1,0 1,1 1,1 0,0 0,0 0,0 -5,1 -9,-2 -9,-2z"/>
    <path fill="#F7F6F2" fill-rule="nonzero" d="M579 333c0,0 15,-10 41,2 0,0 -2,-17 -20,-17 -18,-1 -21,15 -21,15z"/>
    <path fill="#603131" fill-rule="nonzero" d="M628 341c-1,-15 -11,-23 -19,-26 -6,-3 -13,-3 -19,-1 -7,3 -18,11 -20,26 -3,19 12,40 12,40l16 -3 15 4c0,0 16,-20 15,-40zm-26 33l0 0c-3,1 -6,1 -9,0 -10,-6 -15,-19 -14,-32 1,-8 6,-13 10,-17 6,-4 15,-4 20,1 5,3 9,9 10,17 0,14 -6,26 -17,31z"/>
    <path fill="#603131" fill-rule="nonzero" d="M584 376l-21 14c0,0 26,23 71,3l-22 -16 -28 -1z"/>
    <path fill="#603131" fill-rule="nonzero" d="M563 390c-15,7 -29,14 -36,22 0,0 57,47 84,36 28,-12 40,-34 40,-34 0,0 -12,-17 -17,-21 -6,-4 -55,4 -71,-3z"/>
    <path fill="#6E97FD" fill-rule="nonzero" fill-opacity="0.400000" d="M582 378c0,0 0,0 0,-1 0,0 1,0 1,1 0,0 5,5 15,5 0,0 0,0 0,0 0,0 0,1 0,1 -10,0 -16,-6 -16,-6z"/>
    <path fill="#6E97FD" fill-rule="nonzero" fill-opacity="0.400000" d="M581 390c0,0 0,0 0,-1 0,0 0,0 0,0 0,0 21,9 43,-2 1,0 1,0 1,0 0,0 0,1 0,1 -23,11 -44,2 -44,2z"/>
    <path fill="#6E97FD" fill-rule="nonzero" fill-opacity="0.400000" d="M589 378c0,0 -1,-1 -1,-1 1,0 1,0 1,0 0,0 7,2 14,-4 1,0 1,0 1,0 0,0 0,1 0,1 -8,6 -15,4 -15,4z"/>
    <path fill="#6E97FD" fill-rule="nonzero" fill-opacity="0.400000" d="M613 378c0,0 0,0 1,0 0,0 0,1 0,1 0,0 -1,3 -6,3 0,0 0,0 -1,0 0,-1 1,-1 1,-1 4,0 5,-3 5,-3z"/>
    <path fill="#6E97FD" fill-rule="nonzero" fill-opacity="0.400000" d="M536 439c0,0 0,0 0,0 0,1 0,1 0,1l-9 -2c0,0 0,0 0,-1 0,0 0,0 1,0l8 2z"/>
    <polygon fill="#F7B397" fill-rule="nonzero" points="317,693 315,725 301,725 300,686 "/>
    <path fill="#DD504D" fill-rule="nonzero" d="M315 721c0,0 -9,6 -14,-3l-37 19 57 0 -6 -16z"/>
    <polygon fill="#F7F6F2" fill-rule="nonzero" points="264,742 321,742 321,737 264,737 "/>
    <path fill="#F7F6F2" fill-rule="nonzero" d="M296 727c0,0 0,0 0,0 -2,-3 -4,-4 -4,-4 -1,0 -1,-1 -1,-1 1,-1 1,-1 2,-1 0,0 2,2 5,5 0,0 0,1 -1,1 0,1 0,1 -1,0z"/>
    <path fill="#F7F6F2" fill-rule="nonzero" d="M292 730c0,0 0,0 -1,-1 -2,-2 -4,-4 -4,-4 -1,0 -1,-1 0,-1 0,-1 1,-1 1,0 0,0 3,1 5,4 0,1 0,1 0,2 -1,0 -1,0 -1,0z"/>
    <path fill="#F7F6F2" fill-rule="nonzero" d="M287 732c0,0 0,0 0,0 -2,-3 -5,-5 -5,-5 0,0 0,0 0,-1 0,0 1,0 1,0 0,0 3,2 5,5 1,0 1,1 0,1 0,0 -1,0 -1,0z"/>
    <polygon fill="#F7B397" fill-rule="nonzero" points="354,693 357,725 370,725 371,686 "/>
    <path fill="#DD504D" fill-rule="nonzero" d="M356 721c0,0 10,6 15,-3l36 19 -57 0 6 -16z"/>
    <polygon fill="#F7F6F2" fill-rule="nonzero" points="407,742 350,742 350,737 407,737 "/>
    <path fill="#F7F6F2" fill-rule="nonzero" d="M375 727c0,0 0,0 0,0 2,-3 5,-4 5,-4 0,0 0,-1 0,-1 0,-1 -1,-1 -1,-1 0,0 -3,2 -5,5 -1,0 -1,1 0,1 0,1 1,1 1,0z"/>
    <path fill="#F7F6F2" fill-rule="nonzero" d="M380 730c0,0 0,0 0,-1 2,-2 4,-4 4,-4 1,0 1,-1 1,-1 -1,-1 -1,-1 -2,0 0,0 -2,1 -5,4 0,1 0,1 1,2 0,0 0,0 1,0z"/>
    <path fill="#F7F6F2" fill-rule="nonzero" d="M384 732c0,0 0,0 1,0 2,-3 4,-5 4,-5 0,0 1,0 0,-1 0,0 -1,0 -1,0 0,0 -3,2 -5,5 0,0 0,1 0,1 1,0 1,0 1,0z"/>
    <path fill="#603131" fill-rule="nonzero" d="M371 488c0,0 4,28 4,123l3 99 -29 0 -5 -98 -6 -87 -12 0 0 -37 45 0z"/>
    <path fill="#603131" fill-rule="nonzero" d="M301 488c0,0 -4,29 -4,124l-3 98 30 0 3 -98 8 -87 12 0 0 -37 -46 0z"/>
    <path fill="#603131" fill-rule="nonzero" d="M323 525c-1,0 -1,0 -1,0 0,-1 0,-1 1,-1l22 0c1,0 1,0 1,1 0,0 0,0 -1,0l-22 0z"/>
    <path fill="#F7B397" fill-rule="nonzero" d="M297 473l-13 60 -9 0c0,0 3,-38 6,-62 1,-4 6,-8 10,-7 3,1 7,5 6,9z"/>
    <path fill="#F7B397" fill-rule="nonzero" d="M283 529c0,0 4,7 1,15l2 8c1,2 0,3 -1,3 -1,1 -3,0 -3,-1l-2 -5 0 2c-1,3 0,6 1,8l4 7c1,1 1,2 0,3l0 0c-1,1 -3,1 -4,0l-6 -8c-2,-3 -3,-8 -2,-12l3 -21 7 1z"/>
    <polygon fill="#F7B397" fill-rule="nonzero" points="281,471 289,419 306,425 297,474 "/>
    <path fill="#FF9526" fill-rule="nonzero" d="M308 398c0,0 -12,1 -18,17 -6,16 -14,32 -14,32l27 15 5 -64z"/>
    <path fill="#F7B397" fill-rule="nonzero" d="M384 474l47 -46 -7 -11c0,0 -34,28 -52,45 -3,3 -2,10 1,13 3,2 8,2 11,-1z"/>
    <polygon fill="#F7B397" fill-rule="nonzero" points="391,471 379,419 362,425 375,478 "/>
    <path fill="#FF9526" fill-rule="nonzero" d="M362 397c0,0 13,2 20,18 6,16 13,30 13,30l-26 16 -7 -64z"/>
    <path fill="#FF9526" fill-rule="nonzero" d="M368 400c-4,-3 -12,-4 -12,-4l-20 2 -21 -2c0,0 -7,1 -12,4l0 47 -9 66 84 0 -9 -65 -1 -48z"/>
    <path fill="#FF9526" fill-rule="nonzero" d="M308 398l24 -7 8 0 22 6c-11,11 -39,20 -53,1l-1 0z"/>
    <path fill="#FF9526" fill-rule="nonzero" d="M302 461c0,1 -1,1 -1,1 0,0 0,-1 0,-1l1 -15 -2 -23c0,0 1,0 1,0 0,0 0,0 0,0l2 23 0 0 -1 15z"/>
    <path fill="#FF9526" fill-rule="nonzero" d="M371 460c0,0 -1,1 -1,1 0,0 0,-1 0,-1l-2 -14c0,-6 2,-16 3,-23 0,0 0,-1 0,-1 0,0 1,1 1,1l-3 23 2 14z"/>
    <path fill="#282829" fill-rule="nonzero" d="M372 376c0,-2 0,-4 0,-6 3,-9 0,-18 -5,-24 -5,-5 -6,-13 -6,-13 -3,-11 -14,-19 -25,-19 -10,0 -21,7 -25,18 0,0 -1,9 -6,14 -4,7 -7,15 -5,24 1,2 1,4 0,6 0,1 0,3 -1,4l74 0c-1,-1 -1,-3 -1,-4z"/>
    <path fill="#F7B397" fill-rule="nonzero" d="M323 355c0,4 -3,7 -7,7 -4,1 -7,-3 -7,-7 0,-4 3,-7 7,-7 4,0 7,3 7,7z"/>
    <path fill="#DB7267" fill-rule="nonzero" d="M312 355c0,0 0,0 0,-1 -1,0 0,0 0,0 0,0 3,-2 6,4 0,0 0,0 0,0 0,0 -1,0 -1,0 -2,-5 -5,-3 -5,-3z"/>
    <path fill="#F7B397" fill-rule="nonzero" d="M350 355c0,4 3,7 7,7 4,0 7,-3 7,-7 0,-4 -3,-7 -7,-7 -4,0 -7,3 -7,7z"/>
    <path fill="#DB7267" fill-rule="nonzero" d="M361 354c1,0 1,0 1,0 -1,0 -1,0 -1,0 0,0 -3,-1 -5,4 0,0 0,0 -1,0 0,0 0,0 0,0 3,-6 6,-4 6,-4z"/>
    <path fill="#282829" fill-rule="nonzero" d="M359 341c0,13 -10,23 -23,23 -12,0 -22,-10 -22,-23 0,-12 10,-23 22,-23 13,0 23,11 23,23z"/>
    <path fill="#F7B397" fill-rule="nonzero" d="M344 370c0,0 -4,3 -6,3 -3,1 -6,-1 -6,-1 0,0 -3,-3 -3,-3l-2 24 1 1c4,5 11,5 16,0l1 -1 -1 -23z"/>
    <path fill="#DB7267" fill-rule="nonzero" d="M326 366c0,0 4,14 12,14 5,0 7,-13 7,-13l-19 -1z"/>
    <path fill="#F7B397" fill-rule="nonzero" d="M356 342c0,7 -1,14 -2,19 -1,5 -4,8 -9,11l-1 0c-5,3 -11,3 -16,1 -5,-3 -8,-7 -9,-12 -2,-9 -3,-19 -3,-19 0,0 -1,-22 20,-21 22,0 20,21 20,21z"/>
    <path fill="#DB7267" fill-rule="nonzero" d="M334 353c0,0 0,0 1,0 0,0 0,0 0,0l0 3 2 0c0,0 0,0 0,0 0,1 0,1 0,1l-2 0c-1,0 -1,0 -1,-1l0 -3z"/>
    <path fill="#282829" fill-rule="nonzero" d="M320 340l11 -1c0,0 -1,-3 -5,-3 -5,1 -6,4 -6,4z"/>
    <path fill="#282829" fill-rule="nonzero" d="M351 340l-11 -1c0,0 1,-3 5,-3 5,1 6,4 6,4z"/>
    <path fill="#F7F6F2" fill-rule="nonzero" d="M329 359l13 0c0,0 -1,3 -7,3 -4,0 -6,-3 -6,-3z"/>
    <path fill="#282829" fill-rule="nonzero" d="M330 349c1,0 1,0 1,0 -1,1 -1,1 -1,0 0,0 -3,-2 -5,0 0,1 -1,1 -1,0 0,0 0,0 0,0 3,-3 6,0 6,0z"/>
    <path fill="#282829" fill-rule="nonzero" d="M347 349c0,0 0,0 0,0 0,1 -1,1 -1,0 0,0 -2,-2 -4,0 -1,1 -1,1 -1,0 0,0 0,0 0,0 3,-3 6,0 6,0z"/>
    <path fill="#F7F6F2" fill-rule="nonzero" fill-opacity="0.231373" d="M325 341l8 11c0,0 -3,5 -7,5l-8 -11c0,0 2,-5 7,-5z"/>
    <path fill="#F7F6F2" fill-rule="nonzero" fill-opacity="0.231373" d="M345 341l8 11c0,0 -2,5 -6,5l-9 -11c0,0 3,-5 7,-5z"/>
    <path fill="#F7F6F2" fill-rule="nonzero" d="M334 349c0,2 -1,4 -3,6 -1,1 -3,2 -6,2 -2,0 -4,-1 -6,-2 -1,-2 -2,-4 -2,-6 0,-2 1,-4 2,-6 2,-1 4,-2 6,-2 3,0 5,1 6,2 2,2 3,4 3,6zm-3 6c1,-2 2,-4 2,-6 0,-2 -1,-4 -2,-5 -1,-2 -3,-3 -6,-3 -2,0 -4,1 -5,3 -2,1 -2,3 -2,5 0,2 0,4 2,6 1,1 3,2 5,2 3,0 5,-1 6,-2z"/>
    <path fill="#F7F6F2" fill-rule="nonzero" d="M354 349c0,2 -1,4 -2,6 -2,1 -4,2 -6,2 -2,0 -5,-1 -6,-2 -2,-2 -3,-4 -3,-6 0,-2 1,-4 3,-6 1,-1 4,-2 6,-2 2,0 4,1 6,2 1,2 2,4 2,6zm-3 6c2,-2 3,-4 3,-6 0,-2 -1,-4 -3,-5 -1,-2 -3,-3 -5,-3 -2,0 -4,1 -6,3 -1,1 -2,3 -2,5 0,2 1,4 2,6 2,1 4,2 6,2 2,0 4,-1 5,-2z"/>
    <path fill="#F7F6F2" fill-rule="nonzero" d="M333 349c0,0 3,-1 5,0l0 0c-2,-1 -4,0 -4,0l-1 0z"/>
    <path fill="#282829" fill-rule="nonzero" d="M314 337c0,0 20,-4 23,-18 0,0 -20,-7 -23,18z"/>
    <path fill="#282829" fill-rule="nonzero" d="M356 337c0,0 -19,-4 -23,-18 0,0 20,-7 23,18z"/>
    <polygon fill="#F7F6F2" fill-rule="nonzero" points="327,388 336,397 345,388 352,395 343,407 336,398 329,406 318,395 "/>
    <path fill="#F7F6F2" fill-rule="nonzero" d="M339 411c0,1 -1,2 -2,2 -2,0 -3,-1 -3,-2 0,-2 1,-3 3,-3 1,0 2,1 2,3z"/>
    <path fill="#F7F6F2" fill-rule="nonzero" d="M339 434c0,1 -1,3 -2,3 -2,0 -3,-2 -3,-3 0,-2 1,-3 3,-3 1,0 2,1 2,3z"/>
    <path fill="#F7F6F2" fill-rule="nonzero" d="M339 457c0,2 -1,3 -2,3 -2,0 -3,-1 -3,-3 0,-1 1,-2 3,-2 1,0 2,1 2,2z"/>
    <polygon fill="#F7F6F2" fill-rule="nonzero" fill-opacity="0.400000" points="323,429 311,429 311,425 323,425 "/>
    <path fill="#603131" fill-rule="nonzero" d="M519 745l12 7c1,1 2,2 2,4 -1,1 -2,2 -4,2 -6,0 -32,-6 -32,-6l0 4 -12 -1c0,0 -1,-17 3,-19l31 9z"/>
    <path fill="#F7B397" fill-rule="nonzero" d="M504 734l15 11c0,0 -2,6 -11,2 -9,-5 -20,-11 -20,-11l2 -4 14 2z"/>
    <polygon fill="#F7B397" fill-rule="nonzero" points="490,732 490,682 506,684 504,739 "/>
    <path fill="#603131" fill-rule="nonzero" d="M384 740l-12 6c-1,1 -2,3 -1,4 0,1 1,2 3,2 6,1 32,-3 32,-3l0 4 12 0c0,0 2,-17 -2,-19l-32 6z"/>
    <path fill="#F7B397" fill-rule="nonzero" d="M401 730l-17 10c0,0 2,6 11,3 10,-4 21,-9 21,-9l-1 -5 -14 1z"/>
    <polygon fill="#F7B397" fill-rule="nonzero" points="415,729 429,680 413,680 399,736 "/>
    <path fill="#FB80A1" fill-rule="nonzero" d="M505 459c0,0 20,31 19,65 -2,34 -15,193 -15,193l-25 -1 -1 -209 -4 1 -53 206 -24 -3 35 -188c2,-12 6,-24 11,-35 4,-10 10,-21 17,-29l40 0z"/>
    <path fill="#FB80A1" fill-rule="nonzero" d="M472 509c0,0 -1,0 -1,-1 0,0 0,0 1,0l16 -2c1,0 1,0 1,0 0,0 0,1 -1,1l-16 2z"/>
    <path fill="#FB80A1" fill-rule="nonzero" d="M459 477c1,0 1,0 1,0 0,0 1,0 0,1l-8 22c0,0 -1,1 -1,0 0,0 0,0 0,0l8 -23z"/>
    <path fill="#282829" fill-rule="nonzero" d="M453 327c0,0 -2,18 -23,32 -22,14 -8,58 32,57 44,-1 64,-56 37,-99l-46 10z"/>
    <path fill="#908C54" fill-rule="nonzero" d="M521 401l-8 28 -8 30 -40 0 -12 -30 -10 -24c-1,-5 1,-10 5,-14 2,-1 5,-3 7,-3l27 -7 25 4c0,0 0,0 1,0 1,0 2,1 3,1 6,3 11,9 10,15z"/>
    <path fill="#F7B397" fill-rule="nonzero" d="M455 388l27 -7 25 4 -1 0c-15,12 -35,13 -51,3z"/>
    <path fill="#F7B397" fill-rule="nonzero" d="M538 455l-31 25 5 10 35 -20c6,-4 9,-11 7,-17 0,0 -1,0 -1,-1l-3 -8 -12 11z"/>
    <path fill="#908C54" fill-rule="nonzero" d="M550 453l-12 3c-2,1 -4,0 -5,-1 -3,-4 -15,-14 -20,-26 -1,-4 -2,-8 -2,-12l-6 -13 1 -12 1 -7c0,0 0,0 1,0 1,0 2,0 3,1 10,3 18,11 20,16l23 43c1,4 0,7 -4,8z"/>
    <path fill="#908C54" fill-rule="nonzero" d="M514 430c0,0 0,0 -1,0 0,0 0,0 0,-1l6 -18c0,0 1,0 1,0 0,0 0,0 0,0l-6 19z"/>
    <path fill="#F7B397" fill-rule="nonzero" d="M517 482c0,0 -5,18 -5,18l-5 -20 10 2z"/>
    <path fill="#FB80A1" fill-rule="nonzero" d="M506 478c0,0 0,0 1,0 0,-1 0,0 0,0l6 24c0,0 0,1 0,1 0,0 -1,0 -1,-1l-6 -24z"/>
    <path fill="#908C54" fill-rule="nonzero" d="M454 415c-1,4 3,3 0,6 -11,10 -38,18 -43,20 -2,1 0,-4 -2,-5l-6 -7c-3,-2 -3,-6 0,-8l41 -28c4,-3 10,-6 19,-5 3,0 5,1 7,2l-1 6 -3 11 -12 8z"/>
    <path fill="white" fill-rule="nonzero" d="M510 390c-1,2 -3,2 -4,2 -1,0 -2,0 -2,0 0,0 1,6 -5,8 -7,2 -9,-3 -9,-3 0,0 -1,7 -8,7 -6,0 -7,-5 -7,-5 0,0 -3,4 -10,3 -7,-2 -5,-9 -5,-9 0,0 -1,0 -3,1 -4,1 -9,1 -9,-3 0,0 0,-1 0,-1 2,-1 5,-2 7,-2l27 -7 25 4c0,0 0,0 1,0 1,0 2,0 3,1 0,0 0,0 0,0 1,1 1,3 -1,4z"/>
    <path fill="#908C54" fill-rule="nonzero" d="M457 436c0,0 0,1 0,1 -1,0 -1,0 -1,0l-11 -29c0,-1 1,-1 1,-1 0,0 0,0 0,0l11 29z"/>
    <path fill="#F7B397" fill-rule="nonzero" d="M407 366l-10 -2 3 66c-1,6 4,12 11,11 6,-1 10,-6 9,-11l-13 -64z"/>
    <path fill="#F7B397" fill-rule="nonzero" d="M406 368l3 -1c2,-1 4,-3 5,-5l3 -6c0,0 2,-4 -5,-5 -8,-2 -8,-2 -9,0 0,0 1,3 5,5l-2 12z"/>
    <path fill="#F7B397" fill-rule="nonzero" d="M397 366c0,0 -6,-6 -2,-18 1,-1 2,-2 4,-3 2,0 8,-1 10,2l2 8 -5 13 -9 -2z"/>
    <path fill="#F7B397" fill-rule="nonzero" d="M413 353l11 -18c0,-1 0,-2 -1,-3 -1,0 -2,0 -3,1l-9 13 -1 0 0 -17c0,-1 -1,-2 -3,-2 -1,0 -1,1 -2,2l-2 22 10 2z"/>
    <path fill="#DB7267" fill-rule="nonzero" d="M414 351c0,0 0,0 0,1 0,0 0,0 0,0 0,0 -9,-4 -10,-1l0 0c0,0 -1,3 4,5 0,0 0,0 0,1 0,0 0,0 0,0 0,0 -4,0 -6,3 0,1 0,1 0,1 0,-1 0,-1 0,-1 1,-3 3,-4 4,-4 -4,-2 -3,-5 -3,-5l0 0c2,-4 11,0 11,0z"/>
    <path fill="#F7B397" fill-rule="nonzero" d="M466 348c0,4 -3,7 -7,7 -4,1 -7,-2 -8,-6 0,-4 3,-8 7,-8 4,0 7,3 8,7z"/>
    <path fill="#DB7267" fill-rule="nonzero" d="M455 348c-1,0 -1,0 -1,-1 0,0 0,0 0,0 0,0 3,-2 6,3 1,1 1,1 0,1 0,0 0,0 0,0 -3,-5 -5,-3 -5,-3z"/>
    <path fill="#F7B397" fill-rule="nonzero" d="M492 346c0,4 4,7 8,7 4,0 7,-3 6,-7 0,-4 -3,-7 -7,-7 -4,0 -7,3 -7,7z"/>
    <path fill="#DB7267" fill-rule="nonzero" d="M503 344c1,0 1,1 1,1 0,0 -1,0 -1,0 0,0 -3,-1 -5,4 0,0 0,0 0,0 0,0 -1,0 0,0 2,-6 5,-5 5,-5z"/>
    <path fill="#282829" fill-rule="nonzero" d="M503 328c0,13 -10,24 -24,25 -14,0 -25,-9 -26,-22 -1,-13 10,-24 24,-25 13,0 25,10 26,22z"/>
    <path fill="#F7B397" fill-rule="nonzero" d="M487 361c0,0 -3,3 -6,4 -3,1 -6,-1 -6,-1 0,0 -3,-3 -3,-3l-1 24 1 1c5,5 12,4 16,-1l1 -1 -2 -23z"/>
    <path fill="#DB7267" fill-rule="nonzero" d="M469 358c0,0 5,14 12,14 6,-1 7,-14 7,-14l-19 0z"/>
    <path fill="#F7B397" fill-rule="nonzero" d="M498 333c0,7 -1,14 -2,19 0,5 -4,8 -8,11l-1 1c-4,3 -10,3 -16,1 -5,-3 -8,-6 -10,-11 -2,-9 -3,-19 -3,-19 0,0 -2,-21 19,-22 21,-1 21,20 21,20z"/>
    <path fill="#DB7267" fill-rule="nonzero" d="M476 345c0,-1 1,-1 1,-1 0,0 0,0 0,0l0 3 2 0c0,0 0,0 0,0 0,1 0,1 0,1l-2 0c0,0 0,0 0,0l-1 -3z"/>
    <path fill="#282829" fill-rule="nonzero" d="M462 334l11 -1c0,0 -1,-3 -6,-2 -4,0 -5,3 -5,3z"/>
    <path fill="#282829" fill-rule="nonzero" d="M493 333l-12 -1c0,0 1,-3 6,-2 5,0 6,3 6,3z"/>
    <path fill="#282829" fill-rule="nonzero" d="M471 341c0,1 -1,1 -2,1 -1,1 -1,0 -2,-1 0,-1 1,-2 2,-2 1,0 2,1 2,2z"/>
    <path fill="#282829" fill-rule="nonzero" d="M488 340c0,1 -1,2 -2,2 -1,0 -2,-1 -2,-2 0,-1 1,-2 2,-2 1,0 2,1 2,2z"/>
    <path fill="#DB7267" fill-rule="nonzero" d="M472 353c0,-1 -1,-1 0,-1 0,0 0,0 0,0 0,0 5,2 12,-1 0,0 1,0 1,0 0,1 0,1 0,1 -8,3 -13,1 -13,1z"/>
    <path fill="#282829" fill-rule="nonzero" d="M497 328c0,0 -31,3 -30,-16 0,0 27,-9 30,16z"/>
    <path fill="#282829" fill-rule="nonzero" d="M458 330c0,0 10,-5 10,-17 0,0 -11,2 -10,17z"/>
    <polygon fill="#F9C864" fill-rule="nonzero" points="192,768 171,768 137,785 196,785 "/>
    <path fill="#603131" fill-rule="nonzero" d="M182 789c1,0 3,1 3,3l11 0 0 -7 -59 0 0 8 41 -1 0 0c0,-2 2,-3 4,-3z"/>
    <path fill="#603131" fill-rule="nonzero" d="M157 775c0,0 -1,0 -1,0 0,-1 0,-1 1,-1 0,0 4,-1 6,3 1,0 1,1 0,1 0,0 -1,0 -1,0 -2,-4 -5,-3 -5,-3z"/>
    <path fill="#603131" fill-rule="nonzero" d="M163 772c0,0 -1,0 -1,0 0,-1 0,-1 1,-1 0,0 3,-1 6,3 0,0 0,1 0,1 0,0 -1,0 -1,0 -2,-3 -5,-3 -5,-3z"/>
    <polygon fill="#F7B397" fill-rule="nonzero" points="171,740 192,740 192,768 171,768 "/>
    <polygon fill="#F9C864" fill-rule="nonzero" points="218,768 239,768 273,785 214,785 "/>
    <path fill="#603131" fill-rule="nonzero" d="M228 789c-2,0 -3,1 -3,3l-11 0 0 -7 59 0 0 8 -41 -1 0 0c0,-2 -2,-3 -4,-3z"/>
    <path fill="#603131" fill-rule="nonzero" d="M253 774c0,0 1,0 1,1 0,0 -1,0 -1,0 0,0 -3,-1 -5,3 0,0 -1,0 -1,0 -1,0 -1,-1 -1,-1 3,-4 7,-3 7,-3z"/>
    <path fill="#603131" fill-rule="nonzero" d="M247 771c1,0 1,0 1,1 0,0 -1,0 -1,0 0,0 -3,0 -5,3 0,0 -1,0 -1,0 0,0 -1,-1 0,-1 2,-4 6,-3 6,-3z"/>
    <polygon fill="#F7B397" fill-rule="nonzero" points="239,740 218,740 218,768 239,768 "/>
    <polygon fill="#DD504D" fill-rule="nonzero" points="241,507 242,746 215,746 205,509 "/>
    <path fill="#DD504D" fill-rule="nonzero" d="M215 744l27 0c1,0 2,0 2,2l0 11c0,1 0,1 -1,2l-29 0c-1,-1 -1,-1 -1,-2l0 -11c0,-1 1,-2 2,-2z"/>
    <path fill="#DD504D" fill-rule="nonzero" d="M215 745c0,0 -1,-1 -1,-1 0,0 1,0 1,0l27 -1c0,0 0,1 0,1 0,0 0,0 0,0l-27 1z"/>
    <polygon fill="#DD504D" fill-rule="nonzero" points="169,507 167,746 195,746 204,509 "/>
    <path fill="#DD504D" fill-rule="nonzero" d="M194 744l-28 0c-1,0 -2,1 -2,2l0 11c0,0 0,1 1,2l30 0c1,-1 1,-2 1,-2l0 -11c0,-1 -1,-2 -2,-2z"/>
    <path fill="#DD504D" fill-rule="nonzero" d="M166 745c0,0 0,-1 0,-1 0,0 0,0 0,0l28 -1c1,0 1,1 1,1 0,0 0,0 -1,0l-28 1z"/>
    <polygon fill="#DD504D" fill-rule="nonzero" points="234,507 183,507 183,544 234,544 "/>
    <path fill="#DD504D" fill-rule="nonzero" d="M214 544c0,0 1,0 1,0 0,1 -1,1 -1,1l-22 0c-1,0 -1,0 -1,-1 0,0 0,0 1,0l22 0z"/>
    <path fill="#F7B397" fill-rule="nonzero" d="M256 529c0,0 -4,5 -1,14l-1 8c0,2 0,3 2,4 1,0 3,-1 3,-2l2 -5 0 2c1,2 1,5 -1,8l-3 8c-1,0 -1,2 0,2 1,2 3,2 4,0l6 -9c3,-4 3,-8 2,-12l-4 -21 -9 3z"/>
    <path fill="#F7B397" fill-rule="nonzero" d="M256 529l-18 -84c-1,-5 4,-12 10,-13 5,-1 11,3 11,9l6 85 -9 3z"/>
    <path fill="#6E97FD" fill-rule="nonzero" d="M244 404c0,0 22,9 22,55l-36 1 14 -56z"/>
    <polygon fill="#F7B397" fill-rule="nonzero" points="128,465 179,428 156,415 117,445 "/>
    <path fill="#6E97FD" fill-rule="nonzero" d="M166 404c-10,6 -28,20 -28,20l14 32 32 -13 -18 -39z"/>
    <path fill="#F7B397" fill-rule="nonzero" d="M86 497l15 10 36 -48c5,-6 3,-16 -4,-20 -6,-3 -13,-1 -17,5l-30 53z"/>
    <path fill="#603131" fill-rule="nonzero" d="M223 395l21 9 -1 118c0,0 -36,6 -76,0l-1 -118 22 -9 35 0z"/>
    <path fill="#F7F6F2" fill-rule="nonzero" fill-opacity="0.400000" d="M232 437c0,0 -24,10 -55,0l0 -15c31,11 55,0 55,0l0 15z"/>
    <path fill="#F7F6F2" fill-rule="nonzero" fill-opacity="0.400000" d="M232 469c0,0 -24,10 -55,0l0 -15c31,10 55,0 55,0l0 15z"/>
    <path fill="#F7F6F2" fill-rule="nonzero" fill-opacity="0.400000" d="M232 501c0,0 -24,10 -55,0l0 -15c31,10 55,0 55,0l0 15z"/>
    <polygon fill="#6E97FD" fill-rule="nonzero" points="223,395 230,534 255,531 244,454 244,404 "/>
    <path fill="#6E97FD" fill-rule="nonzero" d="M244 460c0,0 0,0 0,0 -1,0 -1,0 -1,0l0 -30c0,0 0,-1 1,-1 0,0 0,1 0,1l0 30z"/>
    <polygon fill="#6E97FD" fill-rule="nonzero" points="188,395 186,536 155,536 164,451 157,454 166,404 "/>
    <path fill="#6E97FD" fill-rule="nonzero" d="M167 450c0,1 0,1 0,1 -1,0 -1,0 -1,-1l0 -21c0,-1 0,-1 1,-1 0,0 0,0 0,1l0 21z"/>
    <path fill="#F7B397" fill-rule="nonzero" d="M206 388l17 7c0,0 -12,9 -35,0l18 -7z"/>
    <polygon fill="#F7F6F2" fill-rule="nonzero" fill-opacity="0.400000" points="181,504 166,504 166,500 181,500 "/>
    <polygon fill="#F7F6F2" fill-rule="nonzero" fill-opacity="0.400000" points="249,504 234,504 234,500 249,500 "/>
    <path fill="#282829" fill-rule="nonzero" d="M193 323c0,0 -12,-2 -13,9 -1,9 3,18 3,18l3 -21 7 -6z"/>
    <path fill="#282829" fill-rule="nonzero" d="M219 320c0,0 12,1 13,12 1,8 -4,18 -4,18l-3 -21 -6 -9z"/>
    <path fill="#F7B397" fill-rule="nonzero" d="M185 349c0,0 -4,-3 -6,1 -5,5 3,15 9,10l-3 -11z"/>
    <path fill="#DB7267" fill-rule="nonzero" d="M181 353c0,0 0,0 0,0 0,0 0,-1 0,-1 0,0 3,0 5,5 0,0 0,0 0,0 0,0 -1,0 -1,0 -1,-4 -4,-4 -4,-4z"/>
    <path fill="#F7B397" fill-rule="nonzero" d="M226 349c0,0 4,-3 7,1 4,5 -4,15 -10,10l3 -11z"/>
    <path fill="#DB7267" fill-rule="nonzero" d="M230 352c0,0 0,1 0,1 0,0 0,0 0,0 0,0 -3,0 -4,4 0,0 0,0 -1,0 0,0 0,0 0,0 2,-5 5,-5 5,-5z"/>
    <path fill="#282829" fill-rule="nonzero" d="M231 338c0,14 -12,25 -25,25 -14,0 -26,-11 -26,-25 0,-14 12,-25 26,-25 13,0 25,11 25,25z"/>
    <polygon fill="#F7B397" fill-rule="nonzero" points="198,372 196,395 216,395 213,372 "/>
    <path fill="#DB7267" fill-rule="nonzero" d="M199 372c0,0 2,7 8,7 5,0 6,-7 6,-7l-14 0z"/>
    <path fill="#F7B397" fill-rule="nonzero" d="M185 337c0,0 -2,38 20,38 24,0 22,-38 22,-38 0,0 0,-16 -21,-16 -19,0 -21,16 -21,16z"/>
    <path fill="#603131" fill-rule="nonzero" d="M198 349c0,1 0,2 -1,2 -1,0 -2,-1 -2,-2 0,-1 1,-2 2,-2 1,0 1,1 1,2z"/>
    <path fill="#603131" fill-rule="nonzero" d="M216 349c0,1 -1,2 -2,2 -1,0 -1,-1 -1,-2 0,-1 0,-2 1,-2 1,0 2,1 2,2z"/>
    <path fill="#DB7267" fill-rule="nonzero" d="M204 354c0,-1 0,-1 1,-1 0,0 0,0 0,1l0 2 2 0c0,0 0,0 0,0 0,1 0,1 0,1l-2 0c-1,0 -1,0 -1,-1l0 -2z"/>
    <path fill="#DB7267" fill-rule="nonzero" d="M200 360c0,0 0,0 0,0 0,-1 1,-1 1,0 0,0 2,2 8,0 0,0 1,1 1,1 0,0 0,0 -1,0 -6,2 -9,-1 -9,-1z"/>
    <path fill="#282829" fill-rule="nonzero" d="M190 341l10 0c1,-1 2,-2 1,-3 -2,-1 -3,-1 -6,-1 -3,0 -5,1 -6,2 -1,1 0,3 1,2z"/>
    <path fill="#282829" fill-rule="nonzero" d="M219 341l-10 0c-1,-1 -1,-2 0,-3 1,-1 3,-1 5,-1 3,0 5,1 6,2 1,1 1,3 -1,2z"/>
    <path fill="#F7F6F2" fill-rule="nonzero" fill-opacity="0.231373" d="M194 341l9 13c0,0 -3,6 -7,5l-10 -12c0,0 3,-6 8,-6z"/>
    <path fill="#F7F6F2" fill-rule="nonzero" fill-opacity="0.231373" d="M215 341l10 13c0,0 -3,6 -8,5l-9 -12c0,0 3,-6 7,-6z"/>
    <path fill="#F7F6F2" fill-rule="nonzero" d="M204 350c0,3 -1,5 -3,7 -1,2 -4,3 -6,3 -3,0 -5,-1 -7,-3 -2,-2 -3,-4 -3,-7 0,-2 1,-5 3,-6 2,-2 4,-3 7,-3 2,0 5,1 6,3 2,1 3,4 3,6zm-3 7c2,-2 3,-4 3,-7 0,-2 -1,-4 -3,-6 -2,-2 -4,-3 -6,-3 -3,0 -5,1 -7,3 -1,2 -2,4 -2,6 0,3 1,5 2,7 2,1 4,2 7,2 2,0 4,-1 6,-2z"/>
    <path fill="#F7F6F2" fill-rule="nonzero" d="M226 350c0,3 -1,5 -3,7 -2,2 -4,3 -7,3 -2,0 -5,-1 -6,-3 -2,-2 -3,-4 -3,-7 0,-2 1,-5 3,-6 1,-2 4,-3 6,-3 3,0 5,1 7,3 2,1 3,4 3,6zm-3 7c1,-2 2,-4 2,-7 0,-2 -1,-4 -2,-6 -2,-2 -4,-3 -7,-3 -2,0 -4,1 -6,3 -1,2 -2,4 -2,6 0,3 1,5 2,7 2,1 4,2 6,2 3,0 5,-1 7,-2z"/>
    <path fill="#F7F6F2" fill-rule="nonzero" d="M204 350c0,0 2,-1 3,0l0 1c-1,-1 -3,0 -3,0l0 -1z"/>
    <path fill="#282829" fill-rule="nonzero" d="M223 319c0,0 -7,9 5,19 0,0 3,-11 -5,-19z"/>
    <path fill="#282829" fill-rule="nonzero" d="M189 319c0,0 7,9 -5,19 0,0 -2,-11 5,-19z"/>
    <path fill="#282829" fill-rule="nonzero" d="M184 323c0,0 -1,-12 13,-12 13,0 24,4 28,-4 0,0 13,18 -10,23 -20,4 -30,-1 -31,-7z"/>
    <polygon fill="#DB7267" fill-rule="nonzero" points="588,835 589,804 570,804 569,835 "/>
    <path fill="#F9C864" fill-rule="nonzero" d="M590 835l-24 0c0,0 0,0 0,0l24 0 0 0z"/>
    <polygon fill="#DB7267" fill-rule="nonzero" points="619,835 618,804 637,804 638,835 "/>
    <path fill="#F9C864" fill-rule="nonzero" d="M617 835l23 0c0,0 0,0 1,0l-24 0 0 0z"/>
    <path fill="#6E97FD" fill-rule="nonzero" d="M566 567l0 52 -1 200 32 0 5 -210 9 210 32 0c0,0 -1,-183 -5,-241l-1 -11 -33 -15 -38 15z"/>
    <path fill="#6E97FD" fill-rule="nonzero" d="M603 609c0,0 0,0 0,1 0,0 0,0 -1,0l-15 -6c0,0 0,0 0,-1 0,0 0,0 0,0l16 6z"/>
    <path fill="#DB7267" fill-rule="nonzero" d="M581 408c0,0 -4,-3 -7,0 -4,5 3,15 10,10l-3 -10z"/>
    <path fill="#DB7267" fill-rule="nonzero" d="M577 412c0,0 0,0 -1,-1 0,0 1,0 1,0 0,0 2,-1 5,4 0,0 0,0 -1,0 0,0 0,0 0,0 -2,-4 -4,-3 -4,-3z"/>
    <path fill="#DB7267" fill-rule="nonzero" d="M620 408c0,0 4,-3 6,0 4,5 -3,15 -9,10l3 -10z"/>
    <path fill="#DB7267" fill-rule="nonzero" d="M624 411c0,0 0,0 0,0 0,1 0,1 0,1 0,0 -2,-1 -4,3 0,0 -1,0 -1,0 0,0 0,0 0,0 2,-5 5,-4 5,-4z"/>
    <path fill="#282829" fill-rule="nonzero" d="M625 397c0,13 -11,24 -24,24 -14,0 -25,-11 -25,-24 0,-14 11,-25 25,-25 13,0 24,11 24,25z"/>
    <polygon fill="#DB7267" fill-rule="nonzero" points="593,430 591,449 611,449 607,430 "/>
    <path fill="#DB7267" fill-rule="nonzero" d="M593 428c0,0 3,11 9,11 6,0 6,-11 6,-11l-15 0z"/>
    <path fill="#DB7267" fill-rule="nonzero" d="M581 396c0,0 -3,37 19,38 24,0 21,-38 21,-38 0,0 0,-19 -21,-19 -18,0 -19,19 -19,19z"/>
    <path fill="#282829" fill-rule="nonzero" d="M582 386c0,0 15,4 38,0 0,0 -2,-10 -19,-10 -17,0 -19,10 -19,10z"/>
    <path fill="#282829" fill-rule="nonzero" d="M584 385c0,0 2,5 -3,11l-2 -4 5 -10 0 3z"/>
    <path fill="#282829" fill-rule="nonzero" d="M618 385c0,0 -2,5 3,11l1 -4 -4 -10 0 3z"/>
    <path fill="#282829" fill-rule="nonzero" d="M593 407c0,1 -1,2 -2,2 -1,0 -1,-1 -1,-2 0,0 0,-1 1,-1 1,0 2,1 2,1z"/>
    <path fill="#282829" fill-rule="nonzero" d="M610 407c0,1 -1,2 -2,2 -1,0 -1,-1 -1,-2 0,0 0,-1 1,-1 1,0 2,1 2,1z"/>
    <path fill="#282829" fill-rule="nonzero" d="M585 400l10 -1c1,0 2,-2 1,-2 -2,-1 -3,-2 -6,-1 -3,0 -5,1 -6,2 -1,0 0,2 1,2z"/>
    <path fill="#282829" fill-rule="nonzero" d="M614 400l-10 -1c-1,0 -1,-2 0,-2 1,-1 3,-2 5,-1 3,0 5,1 6,2 1,0 1,2 -1,2z"/>
    <path fill="#DB7267" fill-rule="nonzero" d="M598 410c0,-1 0,-1 0,-1 0,0 1,0 1,1l0 4 2 0c0,0 0,0 0,1 0,0 0,0 0,0l-3 0c0,0 0,0 0,-1l0 -4z"/>
    <path fill="#F7F6F2" fill-rule="nonzero" d="M593 417l14 0c0,0 -1,5 -7,5 -6,0 -7,-5 -7,-5z"/>
    <path fill="#DB7267" fill-rule="nonzero" d="M658 478l20 37c4,6 1,14 -5,18 -6,3 -14,1 -18,-5l-21 -33 24 -17z"/>
    <path fill="#FB80A1" fill-rule="nonzero" d="M664 484l-29 18 -13 -21c-4,-8 -2,-19 6,-24l0 0c8,-5 18,-2 23,6l13 21z"/>
    <path fill="#DB7267" fill-rule="nonzero" d="M555 488l-35 6c-7,1 -14,-4 -15,-11 -2,-7 3,-14 10,-15l35 -7 5 27z"/>
    <polygon fill="#FB80A1" fill-rule="nonzero" points="538,460 571,452 575,488 545,491 "/>
    <path fill="#FB80A1" fill-rule="nonzero" d="M641 571c0,0 -39,16 -77,0l1 -111c0,-4 3,-7 7,-8l19 -2 19 -1 22 5c4,1 6,4 6,7l2 55 0 34 1 21z"/>
    <path fill="#F7F6F2" fill-rule="nonzero" d="M604 476c0,2 -1,3 -3,3 -2,0 -4,-1 -4,-3 0,-2 2,-4 4,-4 2,0 3,2 3,4z"/>
    <path fill="#F7F6F2" fill-rule="nonzero" d="M604 502c0,2 -1,3 -3,3 -2,0 -4,-1 -4,-3 0,-2 2,-4 4,-4 2,0 3,2 3,4z"/>
    <path fill="#F7F6F2" fill-rule="nonzero" d="M641 571c0,0 -39,16 -77,0l0 -11c33,12 66,4 77,0l0 11z"/>
    <path fill="#FB80A1" fill-rule="nonzero" d="M638 501c0,0 0,0 -1,0 0,0 0,0 0,0l0 -26c0,-1 0,-1 1,-1 0,0 0,0 0,1l0 26z"/>
    <path fill="#FB80A1" fill-rule="nonzero" d="M566 489c0,0 0,0 0,0 -1,0 -1,0 -1,0l0 -13c0,-1 0,-1 0,-1 1,0 1,0 1,1l0 13z"/>
    <polygon fill="#DB7267" fill-rule="nonzero" points="611,449 600,468 590,449 "/>
    <polygon fill="#F7F6F2" fill-rule="nonzero" points="612,448 618,451 611,466 604,461 "/>
    <polygon fill="#F7F6F2" fill-rule="nonzero" points="590,447 583,451 590,465 597,461 "/>
    <polygon fill="#F7F6F2" fill-rule="nonzero" points="489,835 488,813 469,811 470,835 "/>
    <polygon fill="#F7F6F2" fill-rule="nonzero" points="525,835 523,813 542,811 544,835 "/>
    <path fill="#908C54" fill-rule="nonzero" d="M457 571c0,0 -7,20 -5,59l12 197 28 0 0 -201 28 201 28 0 -20 -250 -18 0 -53 -6z"/>
    <path fill="#6E97FD" fill-rule="nonzero" d="M500 628c1,0 1,0 1,0 0,1 -1,1 -1,1l-24 -5c0,0 -1,0 -1,0 1,0 1,-1 1,-1l24 5z"/>
    <path fill="#282829" fill-rule="nonzero" d="M483 399c0,0 -13,0 -14,9 -1,8 4,18 4,18l3 -21 7 -6z"/>
    <path fill="#282829" fill-rule="nonzero" d="M507 394c0,0 16,-4 17,9 1,11 -7,25 -7,25l-1 -22 -9 -12z"/>
    <path fill="#282829" fill-rule="nonzero" d="M510 404c0,0 10,-10 -1,-17 -8,-6 -14,-1 -25,-3 -12,-2 -17,6 -17,13 1,12 21,17 21,17l22 -10z"/>
    <path fill="#F7B397" fill-rule="nonzero" d="M475 426c0,0 -4,-3 -7,0 -4,6 4,15 10,10l-3 -10z"/>
    <path fill="#DB7267" fill-rule="nonzero" d="M471 430c0,0 0,-1 0,-1 0,0 0,0 0,0 0,0 3,0 5,4 0,0 0,0 0,0 0,1 -1,0 -1,0 -1,-3 -4,-3 -4,-3z"/>
    <path fill="#F7B397" fill-rule="nonzero" d="M516 426c0,0 4,-3 7,0 4,6 -4,15 -10,10l3 -10z"/>
    <path fill="#DB7267" fill-rule="nonzero" d="M520 429c0,0 0,0 0,0 0,0 0,1 0,1 0,0 -3,0 -4,3 0,0 -1,1 -1,0 0,0 0,0 0,0 1,-4 5,-4 5,-4z"/>
    <path fill="#282829" fill-rule="nonzero" d="M521 415c0,14 -12,25 -26,25 -13,0 -25,-11 -25,-25 0,-14 12,-25 25,-25 14,0 26,11 26,25z"/>
    <polygon fill="#F7B397" fill-rule="nonzero" points="488,448 486,471 505,471 503,448 "/>
    <path fill="#DB7267" fill-rule="nonzero" d="M485 442c0,0 3,14 12,14 7,0 8,-14 8,-14l-20 0z"/>
    <path fill="#F7B397" fill-rule="nonzero" d="M475 414c0,0 -2,38 20,38 23,0 22,-38 22,-38 0,0 0,-17 -21,-17 -20,0 -21,17 -21,17z"/>
    <path fill="#282829" fill-rule="nonzero" d="M505 414c0,0 -5,-1 -5,1 0,0 0,2 4,3 4,0 7,1 7,-1 1,-2 -4,-3 -6,-3z"/>
    <path fill="#282829" fill-rule="nonzero" d="M483 414c0,0 -4,0 -4,3 0,0 0,1 5,1 4,0 7,-1 7,-2 0,-3 -5,-2 -8,-2z"/>
    <path fill="#282829" fill-rule="nonzero" d="M488 425c0,1 -1,2 -2,2 -1,0 -1,-1 -1,-2 0,-1 0,-2 1,-2 1,0 2,1 2,2z"/>
    <path fill="#282829" fill-rule="nonzero" d="M506 425c0,1 -1,2 -2,2 -1,0 -2,-1 -2,-2 0,-1 1,-2 2,-2 1,0 2,1 2,2z"/>
    <path fill="#DB7267" fill-rule="nonzero" d="M493 429c0,0 0,-1 1,-1 0,0 0,1 0,1l0 3 2 0c0,0 0,0 0,1 0,0 0,0 0,0l-2 0c-1,0 -1,0 -1,0l0 -4z"/>
    <path fill="#F7F6F2" fill-rule="nonzero" d="M488 437l14 0c0,0 -6,9 -14,0z"/>
    <path fill="#282829" fill-rule="nonzero" d="M476 409c0,0 2,-8 17,-9 9,0 20,6 23,-1l-8 -11 -32 5 0 16z"/>
    <path fill="#282829" fill-rule="nonzero" d="M513 396c0,0 -7,9 5,18 0,0 2,-11 -5,-18z"/>
    <path fill="#F7B397" fill-rule="nonzero" d="M547 611c0,0 -5,5 -2,14l-1 9c0,2 0,3 2,4 1,0 3,-1 3,-2l2 -5 1 1c0,4 0,7 -2,9l-4 8c0,1 0,2 0,3 1,2 4,2 5,0l7 -9c2,-4 3,-9 2,-13l-4 -22 -9 3z"/>
    <path fill="#F7B397" fill-rule="nonzero" d="M547 611l-17 -85c-1,-6 4,-13 10,-14 6,-1 12,4 12,10l4 86 -9 3z"/>
    <path fill="#FF9526" fill-rule="nonzero" d="M536 478c0,0 23,9 23,57l-37 2 14 -59z"/>
    <polygon fill="#908C54" fill-rule="nonzero" points="534,529 560,529 560,539 533,542 "/>
    <polygon fill="#F7B397" fill-rule="nonzero" points="420,526 467,503 443,489 421,502 "/>
    <path fill="#F7B397" fill-rule="nonzero" d="M404 449l-10 0 10 67c0,7 8,12 15,10l0 0c6,-2 9,-8 7,-14l-22 -63z"/>
    <path fill="#F7B397" fill-rule="nonzero" d="M404 449l2 -7c1,-3 2,-6 1,-10l0 -6c-1,-1 -2,-2 -3,-2 -2,0 -2,2 -3,3l0 6 -11 -23c0,-1 -1,-1 -2,-1l-1 1c-1,0 -1,1 -1,2l6 14 -9 -15c0,-1 -2,-2 -2,-1l-1 0c-1,1 -1,2 0,3l8 15 -9 -11c-1,-1 -2,-1 -3,0l0 0c-1,1 -1,2 0,2l8 13 -6 -7c-1,-1 -2,-1 -3,1 0,0 0,1 0,1l20 29 9 -7z"/>
    <path fill="#DB7267" fill-rule="nonzero" d="M401 433c0,0 0,0 0,0 0,0 0,0 0,1 0,0 -4,2 -4,8 0,1 0,1 0,1 -1,0 -1,0 -1,-1 0,-6 5,-9 5,-9z"/>
    <path fill="#FF9526" fill-rule="nonzero" d="M453 478c-10,6 -28,22 -28,22l14 33 34 -14 -20 -41z"/>
    <polygon fill="#908C54" fill-rule="nonzero" points="432,493 449,530 438,535 423,497 "/>
    <path fill="#F9C864" fill-rule="nonzero" d="M523 472l13 6 -6 111c0,0 -36,5 -78,-2l1 -109 15 -6 55 0z"/>
    <polygon fill="#F7F6F2" fill-rule="nonzero" fill-opacity="0.400000" points="523,510 494,510 494,503 523,503 "/>
    <path fill="#FF9526" fill-rule="nonzero" d="M533 537c0,0 0,0 0,0 -1,0 -1,0 -1,0l2 -33c0,0 0,0 1,0 0,0 0,0 0,1l-2 32z"/>
    <path fill="#FF9526" fill-rule="nonzero" d="M453 527c0,0 0,1 0,1 0,0 -1,-1 -1,-1l1 -27c0,0 0,0 0,0 1,0 1,0 1,0l-1 27z"/>
    <path fill="#FF9526" fill-rule="nonzero" d="M496 460l27 12c0,0 -27,22 -55,0l28 -12z"/>
    <path fill="#908C54" fill-rule="nonzero" d="M486 458c10,2 20,0 20,0 0,0 3,4 1,7 0,0 -15,4 -22,0 0,0 -3,-5 1,-7z"/>
    <polygon fill="#DB7267" fill-rule="nonzero" points="159,504 196,485 190,464 165,477 "/>
    <path fill="#F7B397" fill-rule="nonzero" d="M177 420l-10 -5 -25 72c-4,8 1,16 9,18 7,1 13,-3 15,-10l11 -75z"/>
    <path fill="#F7B397" fill-rule="nonzero" d="M177 420l5 -5c3,-3 5,-6 7,-10l2 -6c1,-1 0,-3 -2,-3 -1,-1 -2,0 -3,1l-4 6 2 -23c0,-1 -1,-2 -2,-2l-1 0c-1,0 -2,1 -2,2l-2 11 -1 -14c0,-1 -1,-2 -2,-2l-1 0c-1,0 -1,1 -1,2l0 15 -3 -11c-1,-1 -2,-2 -3,-1l0 0c-1,0 -2,1 -2,2l2 12 -2 -5c-1,-2 -2,-2 -4,-1 0,0 0,1 0,2l5 32 12 -2z"/>
    <path fill="#DB7267" fill-rule="nonzero" d="M182 403c0,0 0,0 0,0 0,0 0,1 0,1 0,0 -6,0 -9,6 0,1 0,1 0,0 -1,0 -1,0 -1,0 4,-6 10,-7 10,-7z"/>
    <path fill="#DB7267" fill-rule="nonzero" d="M168 476c0,0 1,0 1,0 0,0 0,0 0,0l-2 14c0,0 0,0 -1,0 0,0 0,0 0,0l2 -14z"/>
    <polygon fill="#FF9526" fill-rule="nonzero" points="247,830 224,830 215,835 248,835 "/>
    <path fill="#F9C864" fill-rule="nonzero" d="M216 835c-1,0 -1,-1 -1,-2 0,0 1,-1 1,0l4 1c1,0 1,0 1,1 0,1 -1,1 -1,1l-4 -1z"/>
    <polygon fill="#F7B397" fill-rule="nonzero" points="224,799 247,799 247,830 224,830 "/>
    <polygon fill="#FF9526" fill-rule="nonzero" points="287,830 309,830 318,835 286,835 "/>
    <path fill="#F9C864" fill-rule="nonzero" d="M317 833c1,-1 1,0 2,0 0,1 0,2 -1,2l-3 1c0,0 -1,0 -1,-1 -1,0 0,-1 0,-1l3 -1z"/>
    <polygon fill="#F7B397" fill-rule="nonzero" points="307,799 284,799 287,830 310,830 "/>
    <path fill="#603131" fill-rule="nonzero" d="M299 561c2,18 16,260 16,260l-36 0 -16 -215 -6 0 -4 215 -34 0c0,0 -2,-225 0,-260l80 0z"/>
    <path fill="#603131" fill-rule="nonzero" d="M248 607c0,0 -1,0 -1,-1 0,0 1,0 1,0l26 0c0,0 1,0 1,0 0,1 -1,1 -1,1l-26 0z"/>
    <path fill="#282829" fill-rule="nonzero" d="M245 363c0,0 10,-13 28,-5 19,10 8,31 8,31l-41 -8 5 -18z"/>
    <path fill="#282829" fill-rule="nonzero" d="M237 389c0,0 -11,-21 8,-26l4 11 -12 15z"/>
    <path fill="#F7B397" fill-rule="nonzero" d="M246 399c0,4 -3,8 -7,8 -5,0 -8,-3 -8,-8 0,-4 3,-7 7,-7 4,0 8,3 8,7z"/>
    <path fill="#DB7267" fill-rule="nonzero" d="M234 399c0,0 0,0 0,-1 0,0 0,0 0,0 0,0 3,-2 6,4 1,0 0,0 0,0 0,0 0,0 0,0 -3,-5 -6,-3 -6,-3z"/>
    <path fill="#F7B397" fill-rule="nonzero" d="M274 399c0,4 3,8 8,8 4,0 7,-4 7,-8 0,-4 -3,-7 -7,-7 -5,0 -8,3 -8,7z"/>
    <path fill="#DB7267" fill-rule="nonzero" d="M286 398c0,0 0,0 0,0 0,0 0,1 0,0 0,0 -3,-1 -5,4 -1,0 -1,1 -1,0 0,0 0,0 0,0 3,-6 6,-4 6,-4z"/>
    <path fill="#F7B397" fill-rule="nonzero" d="M270 417c0,0 -4,3 -8,4 -4,0 -8,-2 -8,-2 0,0 -5,-3 -5,-3l-2 26 1 0c7,6 16,6 23,0l1 -1 -2 -24z"/>
    <path fill="#DB7267" fill-rule="nonzero" d="M247 414c0,0 5,14 15,14 8,0 9,-14 9,-14l-24 0z"/>
    <path fill="#F7B397" fill-rule="nonzero" d="M281 386c0,9 -1,16 -3,21 -1,6 -5,9 -10,12l-1 1c-5,3 -9,3 -14,0 -6,-3 -11,-7 -12,-13 -2,-10 -2,-21 -2,-21 0,0 -3,-23 20,-23 22,0 22,23 22,23z"/>
    <path fill="#282829" fill-rule="nonzero" d="M252 393c0,1 -1,2 -2,2 -1,0 -2,-1 -2,-2 0,-1 1,-2 2,-2 1,0 2,1 2,2z"/>
    <path fill="#282829" fill-rule="nonzero" d="M270 393c0,1 -1,2 -2,2 -1,0 -2,-1 -2,-2 0,-1 1,-2 2,-2 1,0 2,1 2,2z"/>
    <path fill="#DB7267" fill-rule="nonzero" d="M257 398c0,-1 0,-1 0,-1 1,0 1,0 1,1l0 2 2 0c0,0 0,0 0,1 0,0 0,0 0,0l-3 0c0,0 0,0 0,0l0 -3z"/>
    <path fill="#282829" fill-rule="nonzero" d="M243 385l12 -1c0,0 -1,-3 -6,-3 -5,1 -6,4 -6,4z"/>
    <path fill="#282829" fill-rule="nonzero" d="M274 385l-12 -1c0,0 1,-3 6,-3 5,1 6,4 6,4z"/>
    <path fill="white" fill-rule="nonzero" d="M253 405l12 0c0,0 0,3 -6,3 -5,0 -6,-3 -6,-3z"/>
    <path fill="#282829" fill-rule="nonzero" d="M240 397c0,0 1,-28 0,-29 0,0 -10,9 0,29z"/>
    <path fill="#282829" fill-rule="nonzero" d="M280 397l-2 -31c0,0 10,10 2,31z"/>
    <path fill="#282829" fill-rule="nonzero" d="M249 365c0,0 -7,2 -7,9 1,7 -4,14 -4,14l-2 -7c0,0 -2,-13 13,-16z"/>
    <path fill="#282829" fill-rule="nonzero" d="M247 366c0,0 6,-3 11,3 4,6 16,12 23,6 0,0 -5,-16 -22,-15 -17,0 -12,6 -12,6z"/>
    <path fill="#F9C864" fill-rule="nonzero" d="M222 490l-41 11 -25 7c-5,1 -11,-1 -14,-5 -4,-4 -5,-9 -3,-14l0 -1 19 -62 20 2 -6 41c0,0 17,-9 56,-18l-6 39z"/>
    <polygon fill="#F7B397" fill-rule="nonzero" points="314,578 325,606 334,605 327,568 "/>
    <path fill="#F7B397" fill-rule="nonzero" d="M325 601c0,0 -4,8 -1,18l-1 9c-1,2 0,3 1,4 2,0 3,-1 4,-2l2 -5 0 2c1,3 0,6 -1,9l-4 8c-1,1 0,2 0,3 1,2 3,2 5,0l6 -10c3,-4 3,-8 2,-13l-5 -25 -8 2z"/>
    <path fill="#F9C864" fill-rule="nonzero" d="M293 450c0,0 12,3 19,22 13,36 27,135 27,135l-24 4 -32 -126 10 -35z"/>
    <path fill="#F9C864" fill-rule="nonzero" d="M286 447l10 4c4,2 7,6 7,11l0 114 -87 0 0 -114c0,-5 3,-9 7,-11l11 -4 52 0z"/>
    <polygon fill="white" fill-rule="nonzero" fill-opacity="0.600000" points="303,507 216,507 216,483 303,483 "/>
    <polygon fill="white" fill-rule="nonzero" fill-opacity="0.600000" points="303,544 216,544 216,521 303,521 "/>
    <path fill="#F7B397" fill-rule="nonzero" d="M260 436l26 11c0,0 -26,23 -52,0l26 -11z"/>
    <path fill="white" fill-rule="nonzero" d="M235 446c0,0 8,10 25,10 16,0 25,-10 25,-10l2 2c0,0 -10,11 -27,11 -18,0 -27,-11 -27,-12l2 -1z"/>
    <path fill="#F9C864" fill-rule="nonzero" d="M304 563c0,0 0,0 -1,0 0,0 0,0 0,0l0 -76c0,0 0,0 0,0 0,0 1,0 1,0l0 76z"/>
    <path fill="#F9C864" fill-rule="nonzero" d="M216 500c0,0 0,0 0,0 0,0 -1,0 -1,0l0 -13c0,0 1,-1 1,-1 0,0 0,1 0,1l0 13z"/>
    <polygon fill="#F7B397" fill-rule="nonzero" points="401,808 401,835 416,835 417,799 "/>
    <path fill="#F7B397" fill-rule="nonzero" d="M414 835c1,-1 1,-2 2,-3l5 3 -7 0z"/>
    <path fill="#6E97FD" fill-rule="nonzero" d="M409 573c0,0 26,30 17,112l-6 137 -21 0 -14 -249 24 0z"/>
    <polygon fill="#F7B397" fill-rule="nonzero" points="372,808 372,835 357,835 357,799 "/>
    <path fill="#F7B397" fill-rule="nonzero" d="M359 835c-1,-1 -1,-2 -2,-3l-5 3 7 0z"/>
    <path fill="#6E97FD" fill-rule="nonzero" d="M363 573c0,0 -26,30 -18,112l7 137 23 0 12 -249 -24 0z"/>
    <polygon fill="#6E97FD" fill-rule="nonzero" points="405,630 365,630 365,590 405,590 "/>
    <path fill="#6E97FD" fill-rule="nonzero" d="M391 629c0,0 0,1 0,1 0,0 0,0 0,0l-19 -1c0,0 0,0 0,0 0,-1 0,-1 0,-1l19 1z"/>
    <path fill="#F7B397" fill-rule="nonzero" d="M485 481l10 3 -20 60c-2,7 -10,10 -16,6 -5,-3 -7,-10 -4,-15l30 -54z"/>
    <path fill="#F7B397" fill-rule="nonzero" d="M486 479l1 -2c0,-3 2,-6 5,-9l4 -4c1,-1 2,-1 3,0 1,1 1,3 0,4l-3 5 19 -10c1,-1 2,0 2,1l1 0c0,1 0,2 -1,2l-13 8 16 -7c1,0 2,0 2,1l1 1c0,0 -1,1 -1,2l-14 6 12 -2c1,-1 2,0 2,1l0 0c0,1 -1,2 -1,2l-12 4 6 -1c2,0 3,1 3,2 -1,1 -1,1 -2,2l-29 8 -1 -6c-1,-3 -1,-5 0,-8z"/>
    <path fill="#DB7267" fill-rule="nonzero" d="M495 473c0,0 1,0 1,0 0,-1 0,0 0,0 0,0 2,5 -2,10 0,0 0,0 0,0 -1,0 -1,-1 0,-1 3,-4 1,-9 1,-9z"/>
    <path fill="#FB80A1" fill-rule="nonzero" d="M419 484c0,0 16,4 40,41l11 -32 25 12 -17 45c-5,12 -20,16 -29,7 -8,-7 -32,-33 -36,-42l6 -31z"/>
    <path fill="#F7B397" fill-rule="nonzero" d="M342 568c0,0 12,3 6,16 -6,11 -16,14 -24,12 -2,0 -2,-2 -2,-3 1,-1 1,-2 2,-2 3,0 9,0 10,-4 2,-5 -1,-11 2,-16l6 -3z"/>
    <polygon fill="#F7B397" fill-rule="nonzero" points="342,568 335,556 324,562 337,576 "/>
    <path fill="#FB80A1" fill-rule="nonzero" d="M342 490c0,0 -20,10 -46,35 -2,3 -3,7 -2,10 2,7 8,17 29,31l18 -9 -16 -20 30 -13 -13 -34z"/>
    <polygon fill="#F7F6F2" fill-rule="nonzero" points="422,593 352,593 360,485 414,485 "/>
    <path fill="#FB80A1" fill-rule="nonzero" d="M351 485l-9 5c0,0 14,50 -6,127l17 4c0,0 19,-56 17,-131l-19 -5z"/>
    <path fill="#FB80A1" fill-rule="nonzero" d="M421 486l5 2c3,1 4,4 3,7 -2,15 -8,60 8,122l-17 4c0,0 -19,-56 -17,-131l18 -4z"/>
    <path fill="#F7B397" fill-rule="nonzero" d="M395 466c0,0 -3,3 -7,4 -3,1 -6,-2 -6,-2 0,0 -4,-2 -4,-2l-2 19 1 0c5,6 13,6 19,1l1 -1 -2 -19z"/>
    <path fill="#F7B397" fill-rule="nonzero" d="M408 436c0,8 -1,16 -2,21 -2,5 -5,8 -10,11l-1 1c-5,3 -12,3 -17,0 -5,-3 -9,-7 -10,-12 -2,-10 -3,-21 -3,-21 0,0 -1,-23 22,-23 23,1 21,23 21,23z"/>
    <path fill="#282829" fill-rule="nonzero" d="M379 443c0,1 -1,1 -2,1 -1,0 -2,0 -2,-1 0,-1 1,-2 2,-2 1,0 2,1 2,2z"/>
    <path fill="#282829" fill-rule="nonzero" d="M397 443c0,1 -1,1 -2,1 -1,0 -2,0 -2,-1 0,-1 1,-2 2,-2 1,0 2,1 2,2z"/>
    <path fill="#DB7267" fill-rule="nonzero" d="M384 447c0,0 0,0 0,0 1,0 1,0 1,0l0 3 2 0c0,0 0,0 0,0 0,1 0,1 0,1l-3 0c0,0 0,0 0,-1l0 -3z"/>
    <path fill="#282829" fill-rule="nonzero" d="M370 435l12 -1c0,0 -1,-3 -6,-3 -5,1 -6,4 -6,4z"/>
    <path fill="#282829" fill-rule="nonzero" d="M401 435l-12 -1c0,0 1,-3 6,-3 5,1 6,4 6,4z"/>
    <path fill="#DB7267" fill-rule="nonzero" d="M378 454c0,-1 0,-1 0,-1 1,0 1,0 1,0 0,0 3,2 8,1 0,0 0,1 0,1 0,0 0,0 0,0 -5,1 -9,-1 -9,-1z"/>
    <path fill="#F7F6F2" fill-rule="nonzero" d="M366 428c0,0 15,-12 42,0 0,0 -2,-17 -21,-17 -19,0 -21,17 -21,17z"/>
    <path fill="#6E97FD" fill-rule="nonzero" d="M416 434c-1,-15 -12,-23 -20,-26 -6,-3 -13,-3 -19,0 -7,3 -18,11 -20,26 -2,20 14,41 14,41l16 -4 15 4c0,0 16,-21 14,-41zm-25 34l0 0c-3,2 -6,2 -9,0 -11,-5 -16,-18 -15,-32 0,-8 5,-13 9,-17 7,-5 15,-5 21,0 5,4 9,9 10,17 0,14 -6,27 -16,32z"/>
    <path fill="#6E97FD" fill-rule="nonzero" d="M373 471l-22 14c0,0 28,23 73,2l-23 -16 -28 0z"/>
    <path fill="#6E97FD" fill-rule="nonzero" fill-opacity="0.400000" d="M371 473c-1,0 -1,0 0,-1 0,0 0,0 0,0 0,0 6,6 16,5 0,0 0,0 0,1 0,0 0,0 0,0 -11,1 -16,-5 -16,-5z"/>
    <path fill="#6E97FD" fill-rule="nonzero" fill-opacity="0.400000" d="M370 485c-1,0 -1,0 -1,0 1,-1 1,-1 1,-1 0,0 21,9 44,-3 0,0 1,0 1,0 0,0 0,0 -1,1 -23,12 -44,3 -44,3z"/>
    <path fill="#6E97FD" fill-rule="nonzero" fill-opacity="0.400000" d="M377 472c0,0 0,0 0,0 0,-1 0,-1 1,-1 0,0 7,2 14,-4 0,0 1,0 1,0 0,1 0,1 0,1 -8,6 -16,4 -16,4z"/>
    <path fill="#6E97FD" fill-rule="nonzero" fill-opacity="0.400000" d="M402 472c0,0 0,0 1,0 0,0 0,1 0,1 0,0 -1,3 -6,3 0,0 0,0 0,0 -1,0 0,-1 0,-1 4,0 5,-3 5,-3z"/>
    <path fill="#FB80A1" fill-rule="nonzero" d="M343 502c0,0 0,-1 1,-1 0,0 0,0 0,1 4,15 3,27 3,27 0,1 0,1 -1,1 0,0 0,-1 0,-1 0,0 1,-12 -3,-27z"/>
    <path fill="#FB80A1" fill-rule="nonzero" d="M325 536c1,0 1,0 1,1 0,0 -1,0 -1,0l-8 -1c-1,-1 -1,-1 -1,-1 0,0 1,-1 1,-1l8 2z"/>
    <path fill="#FB80A1" fill-rule="nonzero" d="M427 510c0,-1 0,-1 0,-1 1,0 1,1 1,1 -3,11 -1,22 -1,22 0,1 -1,1 -1,1 0,0 0,0 -1,0 0,-1 -1,-12 2,-23z"/>
    <path fill="#FB80A1" fill-rule="nonzero" d="M458 525c0,0 0,0 0,-1 1,0 1,0 1,1 4,6 4,14 4,14 0,1 0,1 0,1 -1,0 -1,0 -1,-1 0,0 0,-8 -4,-14z"/>
    <path fill="#282829" fill-rule="nonzero" d="M722 444c2,-7 2,-13 -4,-17 -5,-4 -6,-10 -6,-10l-25 23 -26 -23c0,0 -1,6 -6,10 -6,4 -5,10 -3,17 2,7 -4,8 -5,16 0,0 9,-1 16,7 3,4 13,6 24,6 11,0 21,-2 24,-6 7,-8 16,-7 16,-7 -1,-8 -7,-9 -5,-16z"/>
    <path fill="#F7B397" fill-rule="nonzero" d="M667 431c0,0 -4,-3 -6,1 -4,5 3,14 9,9l-3 -10z"/>
    <path fill="#DB7267" fill-rule="nonzero" d="M664 435c-1,0 -1,0 -1,0 0,-1 0,-1 0,-1 0,0 3,-1 5,4 0,0 0,0 0,0 0,1 -1,0 -1,0 -2,-4 -3,-3 -3,-3z"/>
    <path fill="#F7B397" fill-rule="nonzero" d="M706 431c0,0 4,-3 6,1 4,5 -3,14 -9,9l3 -10z"/>
    <path fill="#DB7267" fill-rule="nonzero" d="M710 434c0,0 0,0 0,1 0,0 0,0 0,0 0,0 -2,-1 -4,3 0,0 0,1 -1,0 0,0 0,0 0,0 3,-5 5,-4 5,-4z"/>
    <path fill="#282829" fill-rule="nonzero" d="M710 421c0,13 -10,23 -23,23 -13,0 -24,-10 -24,-23 0,-12 11,-22 24,-22 13,0 23,10 23,22z"/>
    <polygon fill="#F7B397" fill-rule="nonzero" points="681,452 679,476 695,476 692,451 "/>
    <path fill="#DB7267" fill-rule="nonzero" d="M680 453c0,0 3,8 8,8 4,0 5,-8 5,-8l-13 0z"/>
    <path fill="#F7B397" fill-rule="nonzero" d="M667 420c0,0 -2,35 19,35 23,0 21,-35 21,-35 0,0 -1,-16 -20,-16 -18,0 -20,16 -20,16z"/>
    <path fill="#282829" fill-rule="nonzero" d="M696 431c0,1 -1,2 -2,2 -1,0 -1,-1 -1,-2 0,-1 0,-2 1,-2 1,0 2,1 2,2z"/>
    <path fill="#282829" fill-rule="nonzero" d="M681 431c0,1 -1,2 -2,2 -1,0 -2,-1 -2,-2 0,-1 1,-2 2,-2 1,0 2,1 2,2z"/>
    <path fill="#F7F6F2" fill-rule="nonzero" d="M680 442l11 0c0,0 -1,3 -5,3 -5,0 -6,-3 -6,-3z"/>
    <path fill="#DB7267" fill-rule="nonzero" d="M684 436c0,0 1,0 1,0 0,0 0,0 0,0l0 2 2 1c0,0 0,0 0,0 0,0 0,0 0,0l-2 0c0,0 -1,0 -1,0l0 -3z"/>
    <path fill="#282829" fill-rule="nonzero" d="M695 421c0,0 -5,-1 -5,2 0,0 0,1 4,2 4,1 6,1 7,-1 0,-1 -4,-3 -6,-3z"/>
    <path fill="#282829" fill-rule="nonzero" d="M675 422c0,0 -4,0 -4,2 0,0 1,2 4,1 4,0 7,0 7,-2 0,-2 -5,-2 -7,-1z"/>
    <path fill="#282829" fill-rule="nonzero" d="M661 423c0,0 34,-5 35,-20 0,0 -7,-13 -24,-5 -15,7 -11,25 -11,25z"/>
    <path fill="#282829" fill-rule="nonzero" d="M691 403c0,0 1,11 17,23 0,0 10,-12 2,-21 -8,-8 -19,-2 -19,-2z"/>
    <path fill="#F9C864" fill-rule="nonzero" d="M669 487c0,0 0,1 0,1l-17 53c0,1 0,1 0,1 -2,5 -7,8 -12,8l0 -34 8 -32c1,-5 6,-8 11,-7 5,1 10,5 10,10z"/>
    <path fill="#F9C864" fill-rule="nonzero" d="M731 555c4,-1 6,-5 6,-9l-7 -61c0,-5 -5,-9 -10,-8 -5,0 -9,5 -8,10l8 61c1,6 5,10 11,7z"/>
    <path fill="#F7B397" fill-rule="nonzero" d="M739 614l8 -1 -10 -66c-1,-6 -6,-15 -13,-12 -5,2 -4,9 -3,14 3,17 18,65 18,65z"/>
    <path fill="#F7B397" fill-rule="nonzero" d="M738 612c0,0 -1,6 6,11l3 8c0,1 1,2 2,2 2,0 3,-2 3,-3l-1 -5 1 1c2,2 3,5 3,8l0 8c0,1 1,1 2,2 1,0 3,-1 3,-2l1 -11c0,-4 -1,-8 -4,-11l-14 -14 -5 6z"/>
    <polygon fill="#F9C864" fill-rule="nonzero" points="686,469 654,477 667,547 709,547 720,477 "/>
    <polygon fill="#F9C864" fill-rule="nonzero" points="667,547 656,507 672,492 687,501 703,492 719,506 709,547 "/>
    <path fill="#F9C864" fill-rule="nonzero" d="M673 492c0,0 -1,1 -1,1 0,0 0,-1 0,-1l0 -19c0,0 0,-1 0,-1 0,0 1,1 1,1l0 19z"/>
    <path fill="#F9C864" fill-rule="nonzero" d="M703 492c0,0 0,1 0,1 -1,0 -1,-1 -1,-1l0 -19c0,0 0,-1 1,-1 0,0 0,1 0,1l0 19z"/>
    <polygon fill="#F7B397" fill-rule="nonzero" points="677,835 682,691 656,695 660,835 "/>
    <polygon fill="#F7B397" fill-rule="nonzero" points="695,835 690,691 716,695 712,835 "/>
    <path fill="#F9C864" fill-rule="nonzero" d="M667 547c0,0 -28,46 -28,198l94 0c0,0 10,-114 -24,-198l-42 0z"/>
    <path fill="#282829" fill-rule="nonzero" d="M146 389c0,0 11,-5 15,4 4,10 -11,18 -11,18l-4 -22z"/>
    <path fill="#DB7267" fill-rule="nonzero" d="M125 427c0,5 -4,8 -8,8 -4,0 -8,-3 -8,-7 0,-5 3,-8 8,-8 4,0 7,3 8,7z"/>
    <path fill="#DB7267" fill-rule="nonzero" d="M113 427c-1,0 -1,0 -1,0 0,-1 0,-1 0,-1 0,0 4,-2 7,4 0,0 0,1 0,1 -1,0 -1,0 -1,-1 -3,-5 -5,-3 -5,-3z"/>
    <path fill="#DB7267" fill-rule="nonzero" d="M153 427c0,5 3,8 8,8 4,0 7,-3 7,-8 0,-4 -3,-7 -7,-7 -5,0 -8,3 -8,7z"/>
    <path fill="#DB7267" fill-rule="nonzero" d="M165 426c0,0 0,0 0,0 0,1 0,1 0,1 0,0 -3,-2 -6,3 0,1 0,1 0,1 0,0 -1,-1 0,-1 3,-6 6,-4 6,-4z"/>
    <path fill="#DB7267" fill-rule="nonzero" d="M149 445c0,0 -5,3 -9,4 -4,1 -8,-1 -8,-1 0,0 -4,-3 -4,-3l-2 25 0 1c7,5 17,5 24,0l1 -1 -2 -25z"/>
    <path fill="#DB7267" fill-rule="nonzero" d="M126 442c0,0 4,14 14,14 8,0 10,-14 10,-14l-24 0z"/>
    <path fill="#DB7267" fill-rule="nonzero" d="M160 414c0,9 -2,16 -3,22 -1,5 -4,9 -9,12l-1 0c-5,3 -12,3 -17,0 -5,-3 -9,-7 -10,-12 -2,-10 -3,-22 -3,-22 0,0 -3,-23 20,-23 23,0 23,23 23,23z"/>
    <path fill="#282829" fill-rule="nonzero" d="M130 421c0,1 0,2 -1,2 -1,0 -2,-1 -2,-2 0,-1 1,-2 2,-2 1,0 1,1 1,2z"/>
    <path fill="#282829" fill-rule="nonzero" d="M149 421c0,1 -1,2 -2,2 -1,0 -2,-1 -2,-2 0,-1 1,-2 2,-2 1,0 2,1 2,2z"/>
    <path fill="#DB7267" fill-rule="nonzero" d="M135 424c0,-1 1,-1 1,-1 0,0 0,0 0,1l0 4 3 0c1,0 1,0 1,1 0,0 0,0 -1,0l-3 0c0,0 -1,0 -1,0l0 -5z"/>
    <path fill="#282829" fill-rule="nonzero" d="M122 413l12 -1c0,0 -1,-3 -6,-3 -5,1 -6,4 -6,4z"/>
    <path fill="#282829" fill-rule="nonzero" d="M153 413l-12 -1c0,0 1,-3 6,-3 5,1 6,4 6,4z"/>
    <path fill="#F7F6F2" fill-rule="nonzero" d="M132 433l12 0c0,0 -1,4 -6,4 -6,0 -6,-4 -6,-4z"/>
    <path fill="#282829" fill-rule="nonzero" d="M118 425c0,0 3,-25 2,-29 0,0 -12,9 -2,29z"/>
    <path fill="#282829" fill-rule="nonzero" d="M159 425c0,0 -4,-24 -3,-31 0,0 11,10 3,31z"/>
    <path fill="#282829" fill-rule="nonzero" d="M155 392l-10 -2 -1 -1 -6 0 -5 0 -1 1 -11 2 -1 6 0 6c0,0 2,-7 8,-6 1,1 3,1 5,2 1,0 3,0 5,0 0,0 0,0 0,0 0,0 1,0 1,0 1,0 3,0 5,0 2,-1 3,-1 5,-2 5,-2 7,6 7,6l1 -6 -2 -6z"/>
    <path fill="#282829" fill-rule="nonzero" d="M155 398c0,0 -7,6 -16,2 0,0 -22,14 -28,-1 -5,-13 16,-30 39,-11l5 10z"/>
    <polygon fill="#DB7267" fill-rule="nonzero" points="165,789 169,834 189,835 189,781 "/>
    <path fill="#DB7267" fill-rule="nonzero" d="M168 829c0,0 14,8 21,-4l19 10 -41 0 1 -6z"/>
    <path fill="#F7F6F2" fill-rule="nonzero" d="M198 835c2,-3 4,-4 4,-4 0,0 0,-1 0,-1 0,-1 -1,-1 -2,-1 0,0 -3,2 -6,6l4 0z"/>
    <path fill="#F7F6F2" fill-rule="nonzero" d="M208 835c0,0 0,0 0,0 1,-1 1,-2 0,-2 0,-1 -1,-1 -1,-1 -1,1 -2,1 -3,3l4 0z"/>
    <polygon fill="#DB7267" fill-rule="nonzero" points="120,789 121,834 101,835 96,781 "/>
    <path fill="#DB7267" fill-rule="nonzero" d="M121 829c0,0 -14,8 -20,-4l-19 10 41 0 -2 -6z"/>
    <path fill="#F7F6F2" fill-rule="nonzero" d="M92 835c-2,-3 -4,-4 -4,-4 -1,0 -1,-1 0,-1 0,-1 1,-1 1,-1 1,0 3,2 6,6l-3 0z"/>
    <path fill="#F7F6F2" fill-rule="nonzero" d="M82 835c0,0 0,0 0,0 -1,-1 -1,-2 -1,-2 1,-1 1,-1 2,-1 0,1 1,1 3,3l-4 0z"/>
    <path fill="#6E97FD" fill-rule="nonzero" d="M142 616l17 195 35 0 -13 -233 -43 -3 -36 -2 -15 123c-1,11 8,21 19,21 9,0 17,-7 18,-15l18 -86z"/>
    <path fill="#6E97FD" fill-rule="nonzero" fill-opacity="0.400000" d="M126 615c0,0 -1,0 -1,0 0,-1 1,-1 1,-1l23 3c0,0 0,0 0,1 0,0 0,0 -1,0l-22 -3z"/>
    <polygon fill="#908C54" fill-rule="nonzero" points="201,814 155,814 153,794 199,794 "/>
    <polygon fill="#6E97FD" fill-rule="nonzero" points="124,702 127,808 90,808 87,696 "/>
    <polygon fill="#908C54" fill-rule="nonzero" points="131,814 85,814 85,794 131,794 "/>
    <polygon fill="#F7F6F2" fill-rule="nonzero" fill-opacity="0.400000" points="201,814 155,814 153,794 199,794 "/>
    <polygon fill="#F7F6F2" fill-rule="nonzero" fill-opacity="0.400000" points="131,814 85,814 85,794 131,794 "/>
    <path fill="#603131" fill-rule="nonzero" d="M177 480l-26 -10 -25 0 -33 16c-2,1 -2,4 -1,7l7 87 82 -1 6 -88c0,-3 -8,-9 -10,-11z"/>
    <path fill="#603131" fill-rule="nonzero" d="M106 481c0,0 0,-1 1,-1 0,0 0,0 0,0 3,5 7,9 12,12 5,3 11,5 17,5 6,0 12,-1 17,-3 7,-3 12,-8 16,-15 1,0 1,0 1,0 0,0 0,0 0,0 -4,8 -10,13 -16,16 -6,2 -12,3 -18,3 -6,0 -12,-2 -17,-5 -6,-3 -10,-7 -13,-12z"/>
    <path fill="#DB7267" fill-rule="nonzero" d="M126 470l-7 4c0,0 -1,12 19,11 21,0 21,-12 21,-12l-8 -3 -25 0z"/>
    <polygon fill="#DB7267" fill-rule="nonzero" points="220,535 165,509 192,492 216,508 "/>
    <path fill="#DB7267" fill-rule="nonzero" d="M210 449l10 -4 19 75c3,8 -3,16 -11,17 -7,1 -13,-4 -14,-11l-4 -77z"/>
    <path fill="#DB7267" fill-rule="nonzero" d="M210 449l-6 -5c-2,-3 -4,-7 -5,-11l-2 -6c0,-2 1,-4 2,-4 2,0 3,1 4,2l3 7 0 -24c0,-1 1,-2 2,-2l1 0c1,0 2,1 2,2l1 12 2 -14c0,-2 1,-3 2,-2l1 0c1,0 2,1 2,2l-2 15 4 -11c0,-1 2,-1 3,-1l0 0c1,1 2,2 1,3l-2 12 2 -5c1,-2 3,-2 4,-1 0,0 1,1 0,2l-7 33 -12 -4z"/>
    <path fill="#DB7267" fill-rule="nonzero" d="M206 432c0,0 0,0 0,0 0,-1 0,-1 0,-1 0,0 6,2 9,8 0,1 0,1 0,1 0,0 -1,0 -1,0 -3,-7 -8,-8 -8,-8z"/>
    <path fill="#DB7267" fill-rule="nonzero" d="M212 506c0,0 0,0 1,0 0,0 0,0 0,0l1 14c0,1 0,1 0,1 -1,0 -1,0 -1,0l-1 -15z"/>
    <path fill="#603131" fill-rule="nonzero" d="M173 479c20,6 35,23 35,23l-16 31 -35 -17 16 -37z"/>
    <path fill="#603131" fill-rule="nonzero" d="M185 528c0,1 0,1 0,1 0,0 -1,1 -1,0l-10 -4c0,0 0,-1 0,-1 0,0 0,0 1,0l10 4z"/>
    <path fill="#DB7267" fill-rule="nonzero" d="M77 514l-12 45c-2,7 7,15 13,17 7,1 6,-4 8,-11l17 -42 -26 -9z"/>
    <path fill="#DB7267" fill-rule="nonzero" d="M66 564c2,9 31,29 31,29l16 0 -30 -41 -17 12z"/>
    <path fill="#DB7267" fill-rule="nonzero" d="M119 598c0,0 4,2 8,1 2,0 3,-4 1,-5 -6,-2 -17,-9 -22,-11l-7 -2 -8 8 6 4c0,0 1,7 4,10 0,0 12,2 18,-5z"/>
    <path fill="#DB7267" fill-rule="nonzero" d="M89 558c0,0 0,1 0,1 -1,0 -1,0 -1,0l-5 -7c0,0 0,0 0,-1 0,0 1,0 1,1l5 6z"/>
    <path fill="#603131" fill-rule="nonzero" d="M93 486c0,0 -20,7 -25,43l41 12 11 -35 -27 -20z"/>
    <polygon fill="#F7F6F2" fill-rule="nonzero" fill-opacity="0.400000" points="131,538 107,538 107,514 131,514 "/>
    <path fill="#603131" fill-rule="nonzero" d="M107 520c0,0 -1,-1 0,-1 0,0 0,0 0,0l12 6 12 -5c0,-1 1,-1 1,0 0,0 0,0 0,0l-13 7c0,0 0,0 0,0l-12 -7z"/>
    <path fill="#603131" fill-rule="nonzero" d="M97 538c0,0 0,1 -1,1 0,0 0,0 0,-1l-2 -20c0,0 0,-1 0,-1 1,0 1,1 1,1l2 20z"/>
    <path fill="#6E97FD" fill-rule="nonzero" d="M43 835c48,-147 198,-254 374,-254 177,0 326,107 375,254l-749 0z"/>
    <path fill="#F7F6F2" fill-rule="nonzero" fill-opacity="0.800000" d="M43 835c48,-147 198,-254 374,-254 177,0 326,107 375,254l-749 0z"/>
    <path fill="#908C54" fill-rule="nonzero" d="M682 835c0,-1 0,-2 -1,-3 -2,-5 -7,0 -13,1 -1,0 -2,1 -4,2l18 0zm-36 0c-4,-2 -8,-5 -8,-7 0,-3 18,3 24,-3 7,-5 8,-6 12,-5 5,1 12,1 26,-9 14,-11 10,5 17,3 8,-2 8,-2 16,7 5,7 11,11 15,14l6 0c1,-6 -1,-22 7,-41 3,-6 5,-10 7,-14 -32,-60 -83,-111 -146,-146 -1,0 -2,1 -3,1 -9,7 -3,28 -25,39 -22,11 -29,44 -36,54 -6,11 -19,12 -21,5 -1,-8 6,-19 -20,-11 -27,9 -20,49 -32,65 -12,15 0,21 3,28 3,7 13,3 19,-3 6,-5 2,-13 6,-19 5,-6 -1,-10 -6,-10 -4,0 -4,-16 4,-27 7,-11 1,9 4,17 3,7 10,1 18,-5 8,-6 16,-4 6,4 -9,8 -8,24 -18,37 -9,12 -17,18 -27,20 -3,0 -5,2 -6,6l71 0c2,-5 5,-9 7,-11 4,-3 -4,-4 -2,-10 2,-6 22,-12 32,-12 10,0 12,4 2,11 -10,8 -21,10 -26,19 0,1 0,2 -1,3l23 0c2,-2 4,-2 5,-1 0,0 0,0 0,1l47 0z"/>
    <path fill="#908C54" fill-rule="nonzero" d="M264 835c8,-3 16,-6 15,-13 -3,-11 -14,0 -24,-16 -10,-16 -25,1 -36,-14 -11,-15 -21,-19 -32,-19 -12,1 3,22 1,41 -1,11 -5,20 -11,21l87 0zm-89 0c-3,-1 -7,-4 -11,-10 -12,-19 -34,-9 -40,-23 -6,-14 -3,-23 12,-30 16,-7 37,2 39,-6 2,-8 -9,-20 -4,-27 5,-7 35,1 35,9 -1,8 -16,5 -18,12 -1,7 20,4 31,14 10,11 28,7 20,-9 -9,-17 23,2 17,-13 -5,-16 -41,-35 -61,-38 -14,-1 -17,-6 -24,-10l0 0c0,0 0,0 0,0 -1,-1 -1,-1 -2,-1 -2,-2 -7,-7 11,-15 22,-10 10,-21 26,-27 17,-6 46,-11 49,-17 3,-6 -5,-6 -25,-7 -7,0 -14,-1 -19,-2 -80,45 -140,116 -168,200l132 0z"/>
    <path fill="#908C54" fill-rule="nonzero" d="M219 676c0,0 -13,14 14,13 27,-1 39,1 42,19 3,17 19,4 17,26 -2,22 7,31 7,41 0,10 26,17 31,15 5,-3 5,-27 19,-29 13,-3 20,-18 42,-17 22,0 32,-11 28,-26 -4,-14 15,-16 5,-32 -10,-16 9,-22 19,-27 10,-4 20,-14 -9,-11 -29,3 -40,8 -46,3 -7,-5 29,-8 32,-12 4,-4 -52,-10 -74,-7 -22,3 -42,4 -30,9 13,6 2,7 -11,5 -13,-1 -8,9 -20,4 -12,-6 -22,0 -35,5 -12,6 -1,9 -9,13 -8,4 -11,-1 -22,8z"/>
    <path fill="#908C54" fill-rule="nonzero" d="M455 777c0,0 -11,7 -10,12 1,4 14,8 14,14 0,6 -17,9 -16,15 1,7 7,0 10,2 5,1 7,5 11,5 11,0 18,-8 15,-19 -3,-11 -15,-9 -17,-15 -1,-6 0,-18 -7,-14z"/>
    <path fill="#908C54" fill-rule="nonzero" d="M430 787c0,0 -7,3 0,11 7,7 2,10 4,13 3,2 14,-4 11,-11 -2,-7 -11,-15 -15,-13z"/>
    <path fill="#00A79C" fill-rule="nonzero" fill-opacity="0.200000" d="M649 651c43,52 70,115 76,184l67 0c-25,-75 -76,-139 -143,-184z"/>
    <path fill="white" fill-rule="nonzero" d="M326 735c0,3 -2,5 -4,5 -3,0 -5,-2 -5,-5 0,-2 2,-4 5,-4 2,0 4,2 4,4z"/>
    <path fill="white" fill-rule="nonzero" d="M322 751c-2,0 -3,-1 -3,-2l0 -11c0,-1 1,-2 3,-2 1,0 2,1 2,2l0 11c0,1 -1,2 -2,2z"/>
    <path fill="white" fill-rule="nonzero" d="M316 758c0,0 -1,0 -1,0 -1,-1 -1,-2 0,-3l5 -7c1,-1 2,-1 3,-1 1,1 1,2 0,3l-5 7c0,1 -1,1 -2,1z"/>
    <path fill="white" fill-rule="nonzero" d="M314 749c-1,0 -1,-1 -2,-1 -1,-1 -1,-2 0,-3l8 -7c1,-1 2,-1 3,0 1,1 1,2 0,3l-8 7c0,0 -1,1 -1,1z"/>
    <path fill="white" fill-rule="nonzero" d="M327 758c-1,0 -1,0 -2,-1l-5 -7c-1,-1 -1,-2 0,-3 1,0 3,0 3,1l6 7c0,1 0,2 -1,3 0,0 -1,0 -1,0z"/>
    <path fill="white" fill-rule="nonzero" d="M329 749c0,0 -1,-1 -1,-1l-8 -7c-1,-1 -1,-2 0,-3 1,-1 2,-1 3,0l8 7c1,1 1,2 0,3 -1,0 -1,1 -2,1z"/>
    <path fill="white" fill-rule="nonzero" d="M92 751c0,3 -2,5 -5,5 -2,0 -4,-2 -4,-5 0,-2 2,-4 4,-4 3,0 5,2 5,4z"/>
    <path fill="white" fill-rule="nonzero" d="M87 767c-1,0 -2,-1 -2,-2l0 -11c0,-1 1,-2 2,-2 1,0 2,1 2,2l0 11c0,1 -1,2 -2,2z"/>
    <path fill="white" fill-rule="nonzero" d="M82 774c0,0 -1,0 -1,0 -1,-1 -1,-2 -1,-3l6 -7c0,-1 2,-1 3,-1 1,1 1,2 0,3l-5 7c-1,1 -1,1 -2,1z"/>
    <path fill="white" fill-rule="nonzero" d="M80 765c-1,0 -2,-1 -2,-1 -1,-1 -1,-2 0,-3l8 -7c1,-1 2,-1 3,0 1,1 1,2 0,3l-8 7c0,0 -1,1 -1,1z"/>
    <path fill="white" fill-rule="nonzero" d="M93 774c-1,0 -2,0 -2,-1l-5 -7c-1,-1 -1,-2 0,-3 1,0 2,0 3,1l5 7c1,1 1,2 0,3 0,0 -1,0 -1,0z"/>
    <path fill="white" fill-rule="nonzero" d="M95 765c-1,0 -1,-1 -1,-1l-8 -7c-1,-1 -1,-2 0,-3 0,-1 2,-1 3,0l7 7c1,1 1,2 1,3 -1,0 -1,1 -2,1z"/>
    <path fill="white" fill-rule="nonzero" d="M142 713c0,2 -3,4 -5,4 -2,0 -4,-2 -4,-4 0,-3 2,-5 4,-5 2,0 5,2 5,5z"/>
    <path fill="white" fill-rule="nonzero" d="M137 728c-1,0 -2,-1 -2,-2l0 -10c0,-2 1,-3 2,-3 1,0 2,1 2,3l0 10c0,1 -1,2 -2,2z"/>
    <path fill="white" fill-rule="nonzero" d="M132 735c-1,0 -1,0 -2,0 -1,-1 -1,-2 0,-3l5 -7c1,-1 2,-1 3,-1 1,1 2,3 1,3l-5 8c-1,0 -2,0 -2,0z"/>
    <path fill="white" fill-rule="nonzero" d="M129 726c0,0 -1,-1 -1,-1 -1,-1 -1,-2 0,-3l8 -7c1,-1 2,-1 3,0 0,1 0,2 0,3l-8 7c-1,1 -1,1 -2,1z"/>
    <path fill="white" fill-rule="nonzero" d="M142 735c0,0 -1,0 -1,0l-6 -8c0,0 0,-2 1,-3 1,0 2,0 3,1l5 7c1,1 1,2 0,3 -1,0 -1,0 -2,0z"/>
    <path fill="white" fill-rule="nonzero" d="M145 726c-1,0 -1,0 -2,-1l-7 -7c-1,-1 -1,-2 -1,-3 1,-1 3,-1 3,0l8 7c1,1 1,2 0,3 0,0 -1,1 -1,1z"/>
    <path fill="white" fill-rule="nonzero" d="M99 794c0,3 -2,5 -4,5 -3,0 -5,-2 -5,-5 0,-2 2,-4 5,-4 2,0 4,2 4,4z"/>
    <path fill="white" fill-rule="nonzero" d="M95 810c-2,0 -3,-1 -3,-3l0 -10c0,-1 1,-2 3,-2 1,0 2,1 2,2l0 10c0,2 -1,3 -2,3z"/>
    <path fill="white" fill-rule="nonzero" d="M89 817c0,0 -1,0 -1,-1 -1,0 -1,-2 0,-3l5 -7c1,-1 2,-1 3,0 1,1 1,2 0,3l-5 7c0,1 -1,1 -2,1z"/>
    <path fill="white" fill-rule="nonzero" d="M87 807c-1,0 -1,0 -2,-1 -1,0 -1,-2 0,-3l8 -6c1,-1 2,-1 3,0 1,1 1,2 0,3l-8 7c0,0 -1,0 -1,0z"/>
    <path fill="white" fill-rule="nonzero" d="M100 817c-1,0 -1,0 -2,-1l-5 -7c-1,-1 -1,-2 0,-3 1,-1 3,-1 3,0l6 7c0,1 0,3 -1,3 0,1 -1,1 -1,1z"/>
    <path fill="white" fill-rule="nonzero" d="M102 807c0,0 -1,0 -1,0l-8 -7c-1,-1 -1,-2 0,-3 1,-1 2,-1 3,0l8 6c1,1 1,3 0,3 -1,1 -1,1 -2,1z"/>
    <path fill="white" fill-rule="nonzero" d="M127 744c0,2 -2,4 -5,4 -2,0 -4,-2 -4,-4 0,-3 2,-5 4,-5 3,0 5,2 5,5z"/>
    <path fill="white" fill-rule="nonzero" d="M122 759c-1,0 -2,-1 -2,-2l0 -10c0,-2 1,-3 2,-3 1,0 2,1 2,3l0 10c0,1 -1,2 -2,2z"/>
    <path fill="white" fill-rule="nonzero" d="M117 766c-1,0 -1,0 -1,0 -1,-1 -2,-2 -1,-3l5 -7c1,-1 3,-1 3,-1 1,1 2,3 1,3l-5 8c-1,0 -1,0 -2,0z"/>
    <path fill="white" fill-rule="nonzero" d="M114 757c0,0 -1,-1 -1,-1 -1,-1 -1,-2 0,-3l8 -7c1,-1 2,-1 3,0 1,1 0,2 0,3l-8 7c-1,1 -1,1 -2,1z"/>
    <path fill="white" fill-rule="nonzero" d="M127 766c0,0 -1,0 -1,0l-6 -8c0,0 0,-2 1,-3 1,0 2,0 3,1l5 7c1,1 1,2 0,3 -1,0 -1,0 -2,0z"/>
    <path fill="white" fill-rule="nonzero" d="M130 757c-1,0 -1,0 -2,-1l-7 -7c-1,-1 -1,-2 -1,-3 1,-1 3,-1 4,0l7 7c1,1 1,2 0,3 0,0 -1,1 -1,1z"/>
    <path fill="white" fill-rule="nonzero" d="M648 745c0,3 -2,5 -5,5 -2,0 -4,-2 -4,-5 0,-2 2,-4 4,-4 3,0 5,2 5,4z"/>
    <path fill="white" fill-rule="nonzero" d="M643 761c-1,0 -2,-1 -2,-3l0 -10c0,-1 1,-2 2,-2 1,0 2,1 2,2l0 10c0,2 -1,3 -2,3z"/>
    <path fill="white" fill-rule="nonzero" d="M638 768c-1,0 -1,0 -1,-1 -1,0 -2,-2 -1,-3l5 -7c1,-1 2,-1 3,0 1,1 2,2 1,3l-5 7c-1,1 -1,1 -2,1z"/>
    <path fill="white" fill-rule="nonzero" d="M635 758c0,0 -1,0 -1,-1 -1,0 -1,-2 0,-3l8 -7c1,0 2,0 3,1 1,1 0,2 0,3l-8 7c-1,0 -1,0 -2,0z"/>
    <path fill="white" fill-rule="nonzero" d="M648 768c0,0 -1,0 -1,-1l-6 -7c0,-1 0,-2 1,-3 1,-1 2,-1 3,0l5 7c1,1 1,3 0,3 -1,1 -1,1 -2,1z"/>
    <path fill="white" fill-rule="nonzero" d="M651 758c-1,0 -1,0 -2,0l-7 -7c-1,-1 -1,-2 -1,-3 1,-1 3,-1 4,-1l7 7c1,1 1,3 0,3 0,1 -1,1 -1,1z"/>
    <path fill="white" fill-rule="nonzero" d="M689 769c0,3 -2,5 -5,5 -2,0 -4,-2 -4,-5 0,-2 2,-4 4,-4 3,0 5,2 5,4z"/>
    <path fill="white" fill-rule="nonzero" d="M684 785c-1,0 -2,-1 -2,-3l0 -10c0,-1 1,-2 2,-2 2,0 3,1 3,2l0 10c0,2 -1,3 -3,3z"/>
    <path fill="white" fill-rule="nonzero" d="M679 792c0,0 -1,0 -1,0 -1,-1 -1,-3 -1,-4l6 -7c0,-1 2,-1 3,0 1,1 1,2 0,3l-5 7c-1,1 -1,1 -2,1z"/>
    <path fill="white" fill-rule="nonzero" d="M677 782c-1,0 -2,0 -2,0 -1,-1 -1,-3 0,-4l8 -6c1,-1 2,-1 3,0 1,1 1,2 0,3l-8 7c0,0 -1,0 -1,0z"/>
    <path fill="white" fill-rule="nonzero" d="M690 792c-1,0 -2,0 -2,-1l-5 -7c-1,-1 -1,-2 0,-3 1,-1 2,-1 3,0l5 7c1,1 1,3 0,4 0,0 -1,0 -1,0z"/>
    <path fill="white" fill-rule="nonzero" d="M692 782c0,0 -1,0 -1,0l-8 -7c-1,-1 -1,-2 0,-3 1,-1 2,-1 3,0l8 6c0,1 1,3 0,4 -1,0 -1,0 -2,0z"/>
    <path fill="white" fill-rule="nonzero" d="M651 677c0,3 -2,5 -4,5 -3,0 -5,-2 -5,-5 0,-2 2,-4 5,-4 2,0 4,2 4,4z"/>
    <path fill="white" fill-rule="nonzero" d="M647 693c-2,0 -3,-1 -3,-2l0 -11c0,-1 1,-2 3,-2 1,0 2,1 2,2l0 11c0,1 -1,2 -2,2z"/>
    <path fill="white" fill-rule="nonzero" d="M641 700c0,0 -1,0 -1,0 -1,-1 -1,-2 0,-3l5 -7c1,-1 2,-2 3,-1 1,1 1,2 0,3l-5 7c0,1 -1,1 -2,1z"/>
    <path fill="white" fill-rule="nonzero" d="M639 690c-1,0 -1,0 -2,0 -1,-1 -1,-3 0,-3l8 -7c1,-1 2,-1 3,0 1,1 1,2 0,3l-8 7c0,0 -1,0 -1,0z"/>
    <path fill="white" fill-rule="nonzero" d="M652 700c-1,0 -1,0 -2,-1l-5 -7c-1,-1 -1,-2 0,-3 1,-1 3,0 3,1l6 7c0,1 0,2 -1,3 0,0 -1,0 -1,0z"/>
    <path fill="white" fill-rule="nonzero" d="M654 690c0,0 -1,0 -1,0l-8 -7c-1,-1 -1,-2 0,-3 1,-1 2,-1 3,0l8 7c1,0 1,2 0,3 -1,0 -1,0 -2,0z"/>
    <path fill="white" fill-rule="nonzero" d="M645 792c0,3 -2,5 -4,5 -3,0 -5,-2 -5,-5 0,-2 2,-4 5,-4 2,0 4,2 4,4z"/>
    <path fill="white" fill-rule="nonzero" d="M641 808c-1,0 -2,-1 -2,-3l0 -10c0,-1 1,-2 2,-2 1,0 2,1 2,2l0 10c0,2 -1,3 -2,3z"/>
    <path fill="white" fill-rule="nonzero" d="M636 815c-1,0 -1,0 -2,0 -1,-1 -1,-3 0,-4l5 -7c1,-1 2,-1 3,0 1,1 1,2 1,3l-6 7c0,1 -1,1 -1,1z"/>
    <path fill="white" fill-rule="nonzero" d="M633 805c-1,0 -1,0 -2,0 0,-1 0,-3 1,-4l7 -6c1,-1 3,-1 3,0 1,1 1,2 0,3l-7 7c-1,0 -1,0 -2,0z"/>
    <path fill="white" fill-rule="nonzero" d="M646 815c-1,0 -1,0 -2,-1l-5 -7c-1,-1 0,-2 1,-3 0,-1 2,-1 3,0l5 7c1,1 0,3 -1,4 0,0 0,0 -1,0z"/>
    <path fill="white" fill-rule="nonzero" d="M649 805c-1,0 -2,0 -2,0l-8 -7c-1,-1 -1,-2 0,-3 1,-1 2,-1 3,0l8 6c1,1 1,3 0,4 0,0 -1,0 -1,0z"/>
    <path fill="white" fill-rule="nonzero" d="M576 765c0,2 -2,4 -5,4 -2,0 -4,-2 -4,-4 0,-2 2,-4 4,-4 3,0 5,2 5,4z"/>
    <path fill="white" fill-rule="nonzero" d="M571 781c-1,0 -2,-1 -2,-3l0 -10c0,-1 1,-2 2,-2 1,0 2,1 2,2l0 10c0,2 -1,3 -2,3z"/>
    <path fill="white" fill-rule="nonzero" d="M566 788c-1,0 -1,0 -1,-1 -1,0 -2,-2 -1,-3l5 -7c1,-1 3,-1 3,0 1,1 2,2 1,3l-5 7c-1,1 -1,1 -2,1z"/>
    <path fill="white" fill-rule="nonzero" d="M563 778c0,0 -1,0 -1,-1 -1,0 -1,-2 0,-3l8 -7c1,0 2,0 3,1 1,1 1,2 0,3l-8 7c-1,0 -1,0 -2,0z"/>
    <path fill="white" fill-rule="nonzero" d="M576 788c0,0 -1,0 -1,-1l-6 -7c0,-1 0,-2 1,-3 1,-1 2,-1 3,0l5 7c1,1 1,3 0,3 -1,1 -1,1 -2,1z"/>
    <path fill="white" fill-rule="nonzero" d="M579 778c-1,0 -1,0 -2,0l-7 -7c-1,-1 -1,-2 -1,-3 1,-1 3,-1 4,-1l7 7c1,1 1,3 0,3 0,1 -1,1 -1,1z"/>
    <path fill="white" fill-rule="nonzero" d="M547 801c0,2 -2,4 -5,4 -2,0 -4,-2 -4,-4 0,-3 2,-5 4,-5 3,0 5,2 5,5z"/>
    <path fill="white" fill-rule="nonzero" d="M542 816c-1,0 -2,-1 -2,-2l0 -10c0,-2 1,-3 2,-3 2,0 3,1 3,3l0 10c0,1 -1,2 -3,2z"/>
    <path fill="white" fill-rule="nonzero" d="M537 823c0,0 -1,0 -1,0 -1,-1 -1,-2 -1,-3l6 -7c0,-1 2,-1 3,-1 1,1 1,3 0,4l-5 7c-1,0 -1,0 -2,0z"/>
    <path fill="white" fill-rule="nonzero" d="M535 814c-1,0 -1,0 -2,-1 -1,-1 -1,-2 0,-3l8 -7c1,-1 2,-1 3,0 1,1 1,3 0,3l-8 7c0,1 -1,1 -1,1z"/>
    <path fill="white" fill-rule="nonzero" d="M548 823c-1,0 -2,0 -2,0l-5 -7c-1,-1 -1,-3 0,-4 1,0 2,0 3,1l5 7c1,1 1,2 0,3 0,0 -1,0 -1,0z"/>
    <path fill="white" fill-rule="nonzero" d="M550 814c0,0 -1,0 -1,-1l-8 -7c-1,0 -1,-2 0,-3 1,-1 2,-1 3,0l8 7c0,1 1,2 0,3 -1,1 -1,1 -2,1z"/>
    <path fill="white" fill-rule="nonzero" d="M382 704c0,3 -2,5 -4,5 -2,0 -4,-2 -4,-5 0,-2 2,-4 4,-4 2,0 4,2 4,4z"/>
    <path fill="white" fill-rule="nonzero" d="M378 720c-1,0 -2,-1 -2,-2l0 -11c0,-1 1,-2 2,-2 1,0 2,1 2,2l0 11c0,1 -1,2 -2,2z"/>
    <path fill="white" fill-rule="nonzero" d="M373 727c-1,0 -1,0 -2,0 -1,-1 -1,-2 0,-3l5 -7c1,-1 2,-2 3,-1 1,1 2,2 1,3l-5 7c-1,1 -2,1 -2,1z"/>
    <path fill="white" fill-rule="nonzero" d="M370 717c0,0 -1,0 -1,0 -1,-1 -1,-3 0,-3l8 -7c0,-1 2,-1 3,0 0,1 0,2 -1,3l-7 7c-1,0 -1,0 -2,0z"/>
    <path fill="white" fill-rule="nonzero" d="M383 727c0,0 -1,0 -1,-1l-6 -7c0,-1 0,-2 1,-3 1,-1 2,0 3,1l5 7c1,1 1,2 0,3 -1,0 -1,0 -2,0z"/>
    <path fill="white" fill-rule="nonzero" d="M386 717c-1,0 -1,0 -2,0l-7 -7c-1,-1 -1,-2 -1,-3 1,-1 3,-1 3,0l8 7c1,0 1,2 0,3 0,0 -1,0 -1,0z"/>
    <path fill="white" fill-rule="nonzero" d="M355 661c0,2 -2,4 -5,4 -2,0 -4,-2 -4,-4 0,-3 2,-5 4,-5 3,0 5,2 5,5z"/>
    <path fill="white" fill-rule="nonzero" d="M350 676c-1,0 -2,-1 -2,-2l0 -10c0,-2 1,-3 2,-3 2,0 3,1 3,3l0 10c0,1 -1,2 -3,2z"/>
    <path fill="white" fill-rule="nonzero" d="M345 684c0,0 -1,-1 -1,-1 -1,-1 -1,-2 -1,-3l6 -7c0,-1 2,-1 3,0 1,0 1,2 0,3l-5 7c0,0 -1,1 -2,1z"/>
    <path fill="white" fill-rule="nonzero" d="M343 674c-1,0 -1,0 -2,-1 -1,-1 -1,-2 0,-3l8 -7c1,-1 2,-1 3,0 1,1 1,3 0,3l-8 7c0,1 -1,1 -1,1z"/>
    <path fill="white" fill-rule="nonzero" d="M356 684c-1,0 -2,-1 -2,-1l-5 -7c-1,-1 -1,-3 0,-3 1,-1 3,-1 3,0l6 7c0,1 0,2 -1,3 0,0 -1,1 -1,1z"/>
    <path fill="white" fill-rule="nonzero" d="M358 674c0,0 -1,0 -1,-1l-8 -7c-1,0 -1,-2 0,-3 1,-1 2,-1 3,0l8 7c1,1 1,2 0,3 -1,1 -1,1 -2,1z"/>
    <path fill="white" fill-rule="nonzero" d="M306 675c0,2 -2,4 -4,4 -3,0 -5,-2 -5,-4 0,-3 2,-5 5,-5 2,0 4,2 4,5z"/>
    <path fill="white" fill-rule="nonzero" d="M302 690c-1,0 -2,-1 -2,-2l0 -10c0,-2 1,-3 2,-3 1,0 2,1 2,3l0 10c0,1 -1,2 -2,2z"/>
    <path fill="white" fill-rule="nonzero" d="M297 698c-1,0 -1,-1 -2,-1 -1,-1 -1,-2 0,-3l5 -7c1,-1 2,-1 3,0 1,0 1,2 1,3l-6 7c0,0 -1,1 -1,1z"/>
    <path fill="white" fill-rule="nonzero" d="M294 688c-1,0 -1,0 -2,-1 0,-1 0,-2 1,-3l7 -7c1,-1 3,-1 3,0 1,1 1,3 0,3l-7 7c-1,1 -1,1 -2,1z"/>
    <path fill="white" fill-rule="nonzero" d="M307 698c-1,0 -1,-1 -2,-1l-5 -7c-1,-1 0,-3 0,-3 1,-1 3,-1 4,0l5 7c1,1 0,2 -1,3 0,0 0,1 -1,1z"/>
    <path fill="white" fill-rule="nonzero" d="M309 688c0,0 -1,0 -1,-1l-8 -7c-1,0 -1,-2 0,-3 1,-1 2,-1 3,0l8 7c1,1 1,2 0,3 0,1 -1,1 -2,1z"/>
    <path fill="white" fill-rule="nonzero" d="M689 722c0,2 -2,4 -5,4 -2,0 -4,-2 -4,-4 0,-2 2,-4 4,-4 3,0 5,2 5,4z"/>
    <path fill="white" fill-rule="nonzero" d="M684 738c-1,0 -2,-1 -2,-3l0 -10c0,-1 1,-2 2,-2 1,0 2,1 2,2l0 10c0,2 -1,3 -2,3z"/>
    <path fill="white" fill-rule="nonzero" d="M679 745c0,0 -1,0 -1,-1 -1,0 -1,-2 -1,-3l6 -7c0,-1 2,-1 3,0 1,1 1,2 0,3l-5 7c-1,1 -1,1 -2,1z"/>
    <path fill="white" fill-rule="nonzero" d="M677 735c-1,0 -2,0 -2,-1 -1,0 -1,-2 0,-3l8 -7c1,0 2,0 3,1 1,1 1,2 0,3l-8 7c0,0 -1,0 -1,0z"/>
    <path fill="white" fill-rule="nonzero" d="M690 745c-1,0 -2,0 -2,-1l-5 -7c-1,-1 -1,-2 0,-3 1,-1 2,-1 3,0l5 7c1,1 1,3 0,3 0,1 -1,1 -1,1z"/>
    <path fill="white" fill-rule="nonzero" d="M692 735c-1,0 -1,0 -1,0l-8 -7c-1,-1 -1,-2 0,-3 0,-1 2,-1 3,-1l7 7c1,1 1,3 1,3 -1,1 -1,1 -2,1z"/>
    <path fill="white" fill-rule="nonzero" d="M731 761c0,2 -2,4 -4,4 -3,0 -5,-2 -5,-4 0,-2 2,-4 5,-4 2,0 4,2 4,4z"/>
    <path fill="white" fill-rule="nonzero" d="M727 777c-1,0 -2,-1 -2,-3l0 -10c0,-1 1,-2 2,-2 1,0 2,1 2,2l0 10c0,2 -1,3 -2,3z"/>
    <path fill="white" fill-rule="nonzero" d="M722 784c-1,0 -1,0 -2,-1 -1,0 -1,-2 0,-3l5 -7c1,-1 2,-1 3,0 1,1 1,2 1,3l-6 7c0,1 -1,1 -1,1z"/>
    <path fill="white" fill-rule="nonzero" d="M719 774c-1,0 -1,0 -2,-1 0,0 0,-2 1,-3l7 -7c1,0 3,0 3,1 1,1 1,2 0,3l-7 7c-1,0 -1,0 -2,0z"/>
    <path fill="white" fill-rule="nonzero" d="M732 784c-1,0 -1,0 -2,-1l-5 -7c-1,-1 0,-2 0,-3 1,-1 3,-1 4,0l5 7c1,1 0,3 -1,3 0,1 0,1 -1,1z"/>
    <path fill="white" fill-rule="nonzero" d="M734 774c0,0 -1,0 -1,0l-8 -7c-1,-1 -1,-2 0,-3 1,-1 2,-1 3,-1l8 7c1,1 1,3 0,3 0,1 -1,1 -2,1z"/>
    <path fill="white" fill-rule="nonzero" d="M614 722c0,2 -2,4 -4,4 -3,0 -5,-2 -5,-4 0,-3 2,-5 5,-5 2,0 4,2 4,5z"/>
    <path fill="white" fill-rule="nonzero" d="M610 737c-1,0 -2,-1 -2,-2l0 -10c0,-1 1,-2 2,-2 1,0 2,1 2,2l0 10c0,1 -1,2 -2,2z"/>
    <path fill="white" fill-rule="nonzero" d="M605 745c-1,0 -1,0 -2,-1 -1,0 -1,-2 0,-3l5 -7c1,-1 2,-1 3,0 1,1 1,2 1,3l-6 7c0,0 -1,1 -1,1z"/>
    <path fill="white" fill-rule="nonzero" d="M602 735c0,0 -1,0 -1,-1 -1,-1 -1,-2 0,-3l8 -7c0,0 2,0 3,1 0,0 0,2 -1,3l-7 7c-1,0 -1,0 -2,0z"/>
    <path fill="white" fill-rule="nonzero" d="M615 745c0,0 -1,-1 -1,-1l-6 -7c0,-1 0,-2 1,-3 1,-1 2,-1 3,0l5 7c1,1 1,3 0,3 -1,1 -1,1 -2,1z"/>
    <path fill="white" fill-rule="nonzero" d="M618 735c-1,0 -1,0 -2,0l-8 -7c0,-1 -1,-3 0,-3 1,-1 2,-1 3,-1l8 7c1,1 1,2 0,3 0,1 -1,1 -1,1z"/>
   </g>
   <rect fill="none" width="835" height="835"/>
  </g>
 </g>
</svg>
