<?xml version="1.0" encoding="UTF-8"?>
<!DOCTYPE svg PUBLIC "-//W3C//DTD SVG 1.1//EN" "http://www.w3.org/Graphics/SVG/1.1/DTD/svg11.dtd">
<!-- Creator: CorelDRAW X8 -->
<svg xmlns="http://www.w3.org/2000/svg" xml:space="preserve" width="59.2666mm" height="59.2666mm" version="1.1" shape-rendering="geometricPrecision" text-rendering="geometricPrecision" image-rendering="optimizeQuality" fill-rule="evenodd" clip-rule="evenodd"
viewBox="0 0 848 848"
 xmlns:xlink="http://www.w3.org/1999/xlink">
 <g id="Layer_x0020_1">
  <metadata id="CorelCorpID_0Corel-Layer"/>
  <g id="_1972726727776">
   <g>
    <g>
     <path fill="#2D5D7C" fill-rule="nonzero" d="M270 654c-2,1 -4,1 -6,1l-1 -14c3,0 6,-1 9,-1 42,-9 37,-89 32,-174 -3,-49 -6,-100 0,-141 8,-48 28,-74 63,-79 0,0 0,0 0,0l2 14c0,0 0,0 0,0 -63,10 -57,109 -51,205 6,91 11,177 -43,189 -2,0 -3,0 -5,0z"/>
    </g>
   </g>
   <g>
    <path fill="#2D5D7C" fill-rule="nonzero" fill-opacity="0.301961" d="M286 650c8,-5 13,-13 17,-21 6,-15 5,-28 2,-42 4,-33 2,-76 -1,-121 -3,-49 -6,-100 0,-141 2,-9 4,-17 6,-24 6,-6 12,-11 18,-16 5,-4 8,-7 12,-11 -31,33 -27,113 -22,191 5,84 10,164 -32,185z"/>
   </g>
   <g>
    <path fill="#EF4768" fill-rule="nonzero" d="M652 322c-38,-84 -147,-93 -202,3 -8,14 -26,19 -39,10 -96,-56 -186,5 -178,97 6,77 130,183 253,229 20,7 43,1 57,-15 85,-100 141,-254 109,-324z"/>
   </g>
   <path fill="#EC3253" fill-rule="nonzero" d="M320 562c21,17 44,32 71,38 135,33 248,-100 265,-223 1,-12 2,-24 2,-37 -1,-6 -3,-12 -6,-18 -38,-84 -147,-93 -202,3 -8,14 -26,19 -39,10 -96,-56 -186,5 -178,97 3,39 38,87 87,130z"/>
   <g>
    <path fill="#EF4768" fill-rule="nonzero" d="M530 657c-40,-32 -58,-117 -75,-199 -9,-42 -18,-84 -29,-119 4,0 9,-1 13,-3 12,35 21,77 30,119 17,82 35,167 73,193 -4,3 -8,6 -12,9z"/>
   </g>
   <path fill="#EF4768" fill-rule="nonzero" d="M579 366l-5 1c-7,-27 -11,-54 -15,-79 -2,-12 -2,-22 -1,-32 -4,0 -7,0 -10,0 -1,10 0,22 2,34 4,25 8,52 15,79l-5 1c18,70 42,109 75,120 2,-6 5,-12 7,-18 -27,-8 -48,-44 -63,-106z"/>
   <path fill="white" fill-rule="nonzero" fill-opacity="0.200000" d="M507 292c7,-7 15,-14 25,-17 4,-1 9,-1 12,3 2,4 0,9 -2,12 -5,9 -15,13 -23,18 -18,12 -32,30 -54,35 -4,1 -8,1 -12,-1 0,-2 1,-4 2,-4 2,-1 3,-1 4,-2 9,-2 18,-11 24,-18 8,-10 16,-18 24,-26z"/>
   <path fill="white" fill-rule="nonzero" fill-opacity="0.200000" d="M247 405c-2,11 -2,22 3,32 2,4 6,8 11,7 3,-2 4,-6 5,-10 3,-22 9,-45 25,-62 6,-6 13,-11 19,-18 1,-2 2,-4 2,-5 3,-22 -35,6 -39,9 -14,12 -23,29 -26,47z"/>
   <path fill="white" fill-rule="nonzero" fill-opacity="0.200000" d="M337 345c5,1 12,0 16,0 2,-1 4,-1 5,-2 1,-1 2,-2 2,-4 1,-12 -18,-11 -25,-8 -2,1 -5,2 -6,5 -1,3 1,5 3,7 2,1 3,1 5,2z"/>
   <path fill="#C1E2F9" fill-rule="nonzero" d="M126 415c4,20 -8,39 -28,43 -19,5 -38,-8 -42,-27 -5,-19 8,-39 27,-43 19,-4 38,8 43,27z"/>
   <path fill="#A1C6DB" fill-rule="nonzero" d="M118 417c3,14 -5,28 -19,31 -14,3 -27,-6 -30,-20 -3,-13 5,-27 19,-30 14,-3 27,6 30,19z"/>
   <g>
    <path fill="#2D5D7C" fill-rule="nonzero" d="M264 655c-45,4 -56,-40 -69,-90 -6,-22 -12,-46 -22,-70 -19,-48 -38,-62 -50,-66 -12,-4 -20,1 -21,1l-8 -12c1,0 14,-9 32,-3 23,7 43,32 60,74 10,25 17,50 23,73 14,53 23,81 54,79l1 14z"/>
   </g>
   <g>
    <path fill="#2D5D7C" fill-rule="nonzero" fill-opacity="0.301961" d="M253 655c-3,-1 -7,-2 -10,-4 -5,-2 -8,-7 -12,-11 -17,-24 -24,-53 -31,-81 -6,-21 -12,-46 -22,-70 -7,-17 -15,-35 -28,-49 -3,-4 -7,-8 -12,-11 -5,-4 -13,-5 -17,-10 -2,-2 -2,-4 -4,-6 -13,-1 -22,5 -23,5l8 12c1,0 9,-5 21,-1 12,4 31,18 50,66 10,24 16,48 22,70 12,46 22,86 58,90z"/>
   </g>
   <g>
    <g>
     <path fill="#2D5D7C" fill-rule="nonzero" d="M607 662c0,0 -1,0 -1,0l-2 -14c0,0 0,0 0,0 35,-6 69,-30 64,-170l14 -1c4,120 -18,176 -75,185z"/>
    </g>
   </g>
   <g>
    <path fill="#2D5D7C" fill-rule="nonzero" fill-opacity="0.301961" d="M668 480c0,-1 0,-1 0,-2l14 -1c0,1 0,2 0,4 -4,62 -14,106 -32,133 13,-24 20,-65 18,-134z"/>
   </g>
   <g>
    <g>
     <path fill="#2D5D7C" fill-rule="nonzero" d="M606 662c-2,0 -5,1 -7,1 -70,6 -97,-103 -122,-208 -24,-101 -49,-205 -108,-195l-2 -14c72,-12 98,99 124,205 24,100 49,203 106,198 3,0 5,-1 7,-1l2 14z"/>
    </g>
   </g>
   <g>
    <path fill="#2D5D7C" fill-rule="nonzero" fill-opacity="0.301961" d="M391 262c53,15 76,111 98,204 21,87 43,176 86,194 -53,-17 -76,-113 -98,-205 -21,-88 -42,-177 -86,-193z"/>
   </g>
   <g>
    <g>
     <path fill="#C1E2F9" fill-rule="nonzero" d="M583 368c-9,-27 -14,-54 -20,-78 -6,-33 -3,-58 10,-74 9,-11 24,-18 40,-17l0 9c-10,0 -23,2 -33,14 -11,13 -14,36 -7,66 5,24 11,51 19,77l-9 3z"/>
    </g>
    <g>
     <path fill="#C1E2F9" fill-rule="nonzero" d="M755 365c-22,69 -49,103 -80,103l0 0c-31,0 -57,-35 -79,-104l-18 5c25,79 56,118 97,118l0 0c3,0 7,0 10,-1 36,-6 65,-43 88,-115l-18 -6z"/>
    </g>
    <path fill="#2D5D7C" fill-rule="nonzero" fill-opacity="0.301961" d="M601 427c3,6 7,12 12,18 13,17 32,31 56,31 3,0 7,0 10,0 23,-4 41,-22 54,-40 7,-12 14,-24 19,-37 4,-10 7,-21 11,-31l10 3c-23,72 -52,109 -88,115 -3,1 -7,1 -10,1l0 0c-29,0 -54,-20 -74,-60z"/>
    <g>
     <path fill="#C1E2F9" fill-rule="nonzero" d="M769 370l-9 -3c8,-27 15,-53 20,-77 7,-30 5,-53 -6,-66 -9,-12 -23,-15 -33,-15l0 -9c17,0 31,6 40,18 13,16 16,41 9,74 -6,24 -13,51 -21,78z"/>
    </g>
    <g>
     <g>
      <polygon fill="#2D5D7C" fill-rule="nonzero" points="613,213 599,216 596,196 610,194 "/>
     </g>
     <g>
      <path fill="#2D5D7C" fill-rule="nonzero" d="M652 197c0,0 0,0 0,0 0,0 0,-1 0,-1 -4,-9 -22,-11 -27,-11 -5,-1 -10,1 -15,9l1 6 1 8 1 5c7,6 12,7 17,5 5,-2 21,-10 22,-19 0,-1 0,-1 0,-2 0,0 0,0 0,0z"/>
     </g>
    </g>
    <g>
     <path fill="#C1E2F9" fill-rule="nonzero" d="M640 212c-12,-1 -22,-7 -24,-15 0,-4 1,-8 5,-12 1,0 2,-1 4,0 5,0 23,2 27,11 0,0 0,1 0,1 0,0 0,0 0,0 0,0 0,0 0,0 0,1 0,1 0,2 0,5 -6,10 -12,13z"/>
    </g>
    <g>
     <g>
      <polygon fill="#2D5D7C" fill-rule="nonzero" points="742,213 756,215 759,196 745,194 "/>
     </g>
     <g>
      <path fill="#2D5D7C" fill-rule="nonzero" d="M703 198c0,0 0,0 0,0 0,-1 0,-1 0,-2 4,-8 22,-11 27,-11 5,-1 10,1 15,9l-1 6 -1 7 -1 6c-7,6 -12,7 -17,5 -5,-2 -21,-10 -22,-19 0,0 0,-1 0,-1 0,0 0,0 0,0z"/>
     </g>
    </g>
    <g>
     <path fill="#C1E2F9" fill-rule="nonzero" d="M715 213c13,-2 22,-8 24,-16 0,-4 -1,-8 -5,-12 -1,-1 -2,-1 -4,0 -5,0 -23,3 -27,11 0,1 0,1 0,2 0,0 0,0 0,0 0,0 0,0 0,0 0,0 0,1 0,1 0,5 6,10 12,14z"/>
    </g>
    <path fill="#2D5D7C" fill-rule="nonzero" d="M113 418c3,13 -5,25 -17,28 -13,2 -25,-6 -28,-18 -2,-12 5,-24 18,-27 12,-3 24,5 27,17z"/>
    <path fill="#C1E2F9" fill-rule="nonzero" fill-opacity="0.200000" d="M99 436c-12,3 -24,-5 -27,-17 -1,-3 -1,-6 0,-8 -4,5 -5,11 -4,17 3,13 15,20 28,18 9,-2 16,-10 17,-20 -3,5 -8,9 -14,10z"/>
   </g>
   <path fill="#C1E2F9" fill-rule="nonzero" d="M388 439l40 0c4,0 7,3 7,7l0 22c0,3 -3,6 -7,6l-40 0c-4,0 -7,3 -7,7l0 41c0,4 -3,7 -7,7l-22 1c-1,0 -3,-1 -4,-2 -2,-2 -3,-3 -3,-5l0 -42c0,-4 -3,-7 -6,-7l-42 0c-3,0 -6,-3 -6,-6l0 -22c0,-4 3,-7 6,-7l42 0c3,0 6,-3 6,-7l0 -41c0,-4 4,-7 7,-7l22 0c4,0 7,3 7,7l0 41c0,4 3,7 7,7z"/>
   <path fill="white" d="M388 442c-6,0 -10,-4 -10,-10l0 -41c0,-2 -2,-3 -4,-3l-22 0c-2,0 -3,1 -3,3l0 41c0,6 -5,10 -10,10l-42 0c-2,0 -3,2 -3,4l0 22c0,2 1,3 3,3l42 0c5,0 10,5 10,10l0 42c0,1 0,2 1,2 1,1 1,1 2,1l22 0c2,0 4,-2 4,-4l0 -41c0,-5 4,-10 10,-10l40 0c2,0 4,-1 4,-3l0 -22c0,-2 -2,-4 -4,-4l-40 0z"/>
  </g>
  <rect fill="none" width="848" height="848"/>
 </g>
</svg>
