<?xml version="1.0" encoding="UTF-8"?>
<!DOCTYPE svg PUBLIC "-//W3C//DTD SVG 1.1//EN" "http://www.w3.org/Graphics/SVG/1.1/DTD/svg11.dtd">
<!-- Creator: CorelDRAW X8 -->
<svg xmlns="http://www.w3.org/2000/svg" xml:space="preserve" width="59.2666mm" height="59.2666mm" version="1.1" shape-rendering="geometricPrecision" text-rendering="geometricPrecision" image-rendering="optimizeQuality" fill-rule="evenodd" clip-rule="evenodd"
viewBox="0 0 749 749"
 xmlns:xlink="http://www.w3.org/1999/xlink">
 <g id="Layer_x0020_1">
  <metadata id="CorelCorpID_0Corel-Layer"/>
  <g id="_1973030672192">
   <g>
    <g>
     <polygon fill="#C6D3DB" fill-rule="nonzero" points="130,749 619,749 619,719 130,719 "/>
     <g>
      <polygon fill="#95A5AF" fill-rule="nonzero" points="619,749 130,749 130,741 619,741 "/>
     </g>
    </g>
   </g>
   <g>
    <g>
     <g>
      <path fill="#05181C" fill-rule="nonzero" d="M283 305c-2,7 -2,15 2,21 4,5 11,8 18,12 6,4 12,10 11,16 -2,9 -14,12 -24,16 -10,4 -20,10 -24,19 -5,9 -2,21 7,26 12,8 33,5 40,16 3,7 -1,15 -5,21 -6,10 -14,19 -18,29 -5,11 -6,23 0,33 7,11 23,18 38,20 15,3 31,2 47,3 -9,-5 -19,-8 -28,-13 -9,-4 -17,-11 -19,-19 -3,-14 10,-26 23,-35 12,-10 24,-24 17,-37 -2,-5 -7,-8 -12,-12 -6,-4 -12,-9 -15,-15 -4,-6 -5,-14 0,-20 5,-7 16,-9 22,-16 9,-10 2,-25 -9,-34 -5,-4 -10,-8 -12,-14 -5,-14 14,-25 18,-39 3,-10 -4,-21 -15,-26 -30,-10 -57,29 -62,48z"/>
     </g>
     <g>
      <g>
       <path fill="#05181C" fill-rule="nonzero" d="M499 218c0,68 -53,64 -113,64 -60,0 -104,4 -104,-64 0,-68 48,-123 108,-123 61,0 109,55 109,123z"/>
      </g>
      <polygon fill="#F4B582" fill-rule="nonzero" points="425,403 372,403 372,324 425,324 "/>
      <g>
       <polygon fill="#F4B582" fill-rule="nonzero" points="425,403 372,403 372,324 425,324 "/>
      </g>
      <path fill="#D46734" fill-rule="nonzero" d="M426 327c-2,-1 -3,-2 -5,-3l-45 0c-2,2 -3,5 -4,8l0 18c2,5 7,9 12,11 8,5 16,8 25,9 6,1 11,0 17,-3l0 -40z"/>
      <g>
       <g>
        <g>
         <g>
          <path fill="#F4B582" fill-rule="nonzero" d="M470 182c1,43 -34,79 -77,79 -44,1 -79,-34 -80,-77 0,-44 35,-79 78,-80 43,0 79,35 79,78z"/>
         </g>
         <g>
          <path fill="#F4B582" fill-rule="nonzero" d="M471 269c1,43 -34,79 -78,79 -43,1 -79,-34 -79,-78 0,-43 35,-79 78,-79 43,0 79,35 79,78z"/>
         </g>
         <polygon fill="#F4B582" fill-rule="nonzero" points="471,275 314,277 313,181 470,179 "/>
        </g>
        <g>
         <path fill="#F4B582" fill-rule="nonzero" d="M495 240c-11,-19 -27,5 -27,5l-5 44c28,-7 42,-31 32,-49z"/>
         <g>
          <path fill="#E28759" fill-rule="nonzero" d="M469 255c0,0 8,-15 16,-11 8,5 6,28 -17,33l1 -22z"/>
         </g>
        </g>
        <g>
         <path fill="#F4B582" fill-rule="nonzero" d="M292 240c10,-19 27,4 27,4l5 44c-27,-6 -42,-30 -32,-48z"/>
         <g>
          <path fill="#E28759" fill-rule="nonzero" d="M317 254c0,0 -8,-14 -16,-10 -7,5 -5,28 18,33l-2 -23z"/>
         </g>
        </g>
        <g>
         <path fill="black" fill-rule="nonzero" d="M419 250c0,6 3,11 7,11 3,0 7,-5 6,-12 0,-6 -3,-11 -7,-11 -3,0 -6,5 -6,12z"/>
         <path fill="black" fill-rule="nonzero" d="M429 242c1,1 2,1 3,0 0,0 1,-1 2,-2 0,-1 0,-2 0,-3 0,-1 0,-2 0,-3 -1,1 -1,3 -2,5 -1,1 -1,2 -3,3z"/>
        </g>
        <g>
         <path fill="black" fill-rule="nonzero" d="M360 250c0,6 -3,12 -6,12 -4,0 -7,-6 -7,-12 0,-6 3,-12 6,-12 4,0 7,6 7,12z"/>
         <path fill="black" fill-rule="nonzero" d="M350 243c-1,0 -2,0 -3,0 0,0 -1,-1 -2,-2 0,-1 0,-2 0,-3 0,-2 0,-3 0,-4 1,2 1,4 2,5 1,2 1,3 3,4z"/>
        </g>
        <g>
         <path fill="#D46734" fill-rule="nonzero" d="M395 258c0,4 -1,7 -1,11 -1,3 -1,6 -2,10l-1 2 0 3 0 0 0 1c0,0 -1,0 -1,1 0,0 0,1 0,1l0 0c0,1 0,1 1,1l0 0c0,3 2,6 4,8 -1,0 -2,0 -2,-1 -1,0 -1,0 -1,-1 -1,0 -1,0 -1,-1 -2,-1 -3,-3 -3,-4 0,-1 0,-2 0,-3 -1,-1 0,-1 0,-2l0 0 0 -1c0,-1 0,-2 0,-3l1 -2c0,-3 1,-7 2,-10 1,-3 2,-6 4,-10z"/>
        </g>
       </g>
       <path fill="#D46734" fill-rule="nonzero" d="M427 341c-4,3 -8,5 -13,6 -5,1 -9,2 -14,2 -5,1 -10,1 -15,0 -5,-1 -10,-2 -14,-4 5,0 10,1 14,1 5,1 10,1 15,1 4,-1 9,-1 14,-2 4,-1 9,-3 13,-4z"/>
      </g>
      <g>
       <path fill="#05181C" fill-rule="nonzero" d="M485 209c-28,-1 -55,-9 -79,-24 -13,-8 -27,-19 -30,-35 -16,31 -45,54 -78,61 -5,-28 6,-59 25,-79 9,-10 20,-18 33,-23 30,-13 66,-5 90,16 25,20 37,51 39,84z"/>
      </g>
      <g>
       <path fill="#05181C" fill-rule="nonzero" d="M338 218c2,-5 8,-9 14,-9 3,0 6,0 9,2 1,0 2,1 3,2 1,1 2,2 3,3 -1,0 -3,-1 -4,-1 -1,0 -2,-1 -4,-1 -2,-1 -5,-1 -7,-1 -2,0 -5,1 -7,1 -3,1 -5,2 -7,4z"/>
      </g>
      <g>
       <path fill="#05181C" fill-rule="nonzero" d="M414 214c2,-6 8,-10 14,-10 3,0 6,1 9,2 1,1 3,2 4,3 1,1 2,2 3,3 -2,-1 -3,-1 -4,-1 -2,-1 -3,-1 -4,-1 -3,-1 -5,-1 -8,-1 -2,0 -4,0 -7,1 -2,1 -5,2 -7,4z"/>
      </g>
     </g>
     <path fill="white" fill-rule="nonzero" d="M364 301l58 -1c0,0 2,30 -28,30 -30,0 -30,-29 -30,-29z"/>
     <g>
      <g>
       <g>
        <g>
         <path fill="#1A1F3A" fill-rule="nonzero" d="M180 618c-6,13 3,30 19,37 17,7 35,2 41,-11 6,-13 -3,-30 -19,-37 -17,-7 -35,-2 -41,11z"/>
         <path fill="#1A1F3A" fill-rule="nonzero" d="M267 420c-6,13 3,30 20,37 16,7 34,2 40,-11 6,-13 -3,-30 -19,-37 -17,-7 -35,-3 -41,11z"/>
         <polygon fill="#1A1F3A" fill-rule="nonzero" points="267,420 327,446 239,645 180,619 "/>
        </g>
       </g>
       <g>
        <path fill="#1A1F3A" fill-rule="nonzero" d="M369 678l-156 -21 9 -61c0,0 127,21 154,14l-7 68z"/>
       </g>
      </g>
      <g>
       <g>
        <g>
         <path fill="#1A1F3A" fill-rule="nonzero" d="M611 618c6,13 -3,30 -19,37 -17,7 -35,2 -41,-11 -5,-13 3,-30 20,-37 16,-7 34,-2 40,11z"/>
         <path fill="#1A1F3A" fill-rule="nonzero" d="M524 420c6,13 -3,30 -19,37 -17,7 -35,2 -41,-11 -5,-13 3,-30 20,-37 16,-7 34,-3 40,11z"/>
         <polygon fill="#1A1F3A" fill-rule="nonzero" points="524,420 464,446 552,645 612,619 "/>
        </g>
       </g>
       <g>
        <path fill="#1A1F3A" fill-rule="nonzero" d="M423 678l155 -21 -9 -61c0,0 -127,21 -154,14l8 68z"/>
       </g>
      </g>
      <g>
       <g>
        <path fill="#23284B" fill-rule="nonzero" d="M495 571c3,-6 10,-10 14,-17 12,-23 1,-49 -13,-69l13 -80 -55 -20 -29 26 -38 -1 -36 -26 -14 2 0 -1 -56 20 14 80c-15,20 -25,46 -13,69 3,7 10,11 14,17 11,20 8,46 3,67 -2,7 -2,8 4,12 5,4 11,7 17,9 11,5 24,7 37,8 46,5 94,2 135,-18 -4,-8 -3,-16 -4,-25 -1,-8 -1,-16 0,-24 1,-9 2,-21 7,-29z"/>
       </g>
       <path fill="#F4B582" fill-rule="nonzero" d="M371 377l-37 13c0,0 13,52 64,52 52,0 72,-47 72,-47l-45 -19 -54 1z"/>
      </g>
      <g>
       <polygon fill="#C8C8CD" fill-rule="nonzero" points="328,399 341,632 449,632 462,404 415,445 381,442 "/>
      </g>
      <polygon fill="white" fill-rule="nonzero" points="447,377 395,442 418,489 479,391 "/>
      <polygon fill="white" fill-rule="nonzero" points="346,377 401,441 376,489 314,391 "/>
     </g>
     <g>
      <g>
       <path fill="#3F4D56" fill-rule="nonzero" d="M546 703l-297 0 -33 -171c-3,-16 10,-32 27,-32l314 0c18,0 31,16 27,33l-38 170z"/>
      </g>
      <path fill="#384244" fill-rule="nonzero" d="M547 725l-300 0c-2,0 -4,-2 -4,-4l0 -14c0,-2 2,-4 4,-4l300 0c2,0 4,2 4,4l0 14c0,2 -2,4 -4,4z"/>
      <g>
       <path fill="white" fill-rule="nonzero" fill-opacity="0.301961" d="M436 616c0,19 -15,33 -33,33 -18,0 -33,-14 -33,-33 0,-18 15,-32 33,-32 18,0 33,14 33,32z"/>
      </g>
     </g>
    </g>
    <g>
     <path fill="#1A1A1A" fill-rule="nonzero" d="M342 322c-6,-1 -11,-2 -16,-5 -11,-5 -17,-14 -21,-21 -4,-7 -6,-13 -6,-13 0,-1 1,-2 1,-2 1,0 2,0 2,1 1,0 7,23 26,32 12,6 26,6 44,-2 0,0 1,0 2,1 0,1 0,2 -1,2 -11,5 -22,7 -31,7z"/>
     <path fill="#1A1A1A" fill-rule="nonzero" d="M380 317c-1,6 -5,10 -11,10 -5,-1 -9,-5 -9,-11 0,-5 5,-9 11,-9 5,0 9,5 9,10z"/>
     <g>
      <g>
       <path fill="#979A9A" fill-rule="nonzero" d="M286 250c-3,-35 4,-47 4,-47l-8 -7c-17,4 -5,74 -5,74 -1,9 10,6 10,6l-1 -26z"/>
      </g>
      <g>
       <g>
        <path fill="#1A1A1A" fill-rule="nonzero" d="M297 229c0,0 -1,-5 -3,0 -3,4 -8,13 -8,13l1 34c0,0 10,19 13,11 3,-8 -3,-58 -3,-58z"/>
       </g>
       <g>
        <path fill="#979797" fill-rule="nonzero" d="M301 229c0,0 -2,-4 -5,-1 -2,4 0,54 3,60 0,0 5,3 6,-4 0,-6 1,-22 1,-22l-5 -33z"/>
       </g>
       <g>
        <path fill="#1A1A1A" fill-rule="nonzero" d="M309 227c-2,0 -6,-1 -8,2 0,0 0,0 0,1 0,4 -3,40 3,58 0,0 7,2 10,-2 2,-3 3,-9 2,-15 0,-6 0,-12 1,-18 0,-10 0,-23 -7,-25 0,0 -1,0 -1,-1z"/>
       </g>
      </g>
     </g>
     <g>
      <g>
       <path fill="#979A9A" fill-rule="nonzero" d="M497 260c8,-35 3,-48 3,-48l9 -6c16,7 -6,75 -6,75 0,9 -11,4 -11,4l5 -25z"/>
      </g>
      <g>
       <g>
        <path fill="#1A1A1A" fill-rule="nonzero" d="M489 237c0,0 2,-4 4,1 2,4 6,13 6,13l-7 34c0,0 -12,17 -14,9 -2,-8 11,-57 11,-57z"/>
       </g>
       <g>
        <path fill="#979797" fill-rule="nonzero" d="M485 236c0,0 3,-3 5,1 2,4 -7,53 -11,58 0,0 -6,3 -5,-4 0,-7 1,-22 1,-22l10 -33z"/>
       </g>
       <g>
        <path fill="#1A1A1A" fill-rule="nonzero" d="M478 234c1,0 6,0 7,2 0,1 0,1 0,2 0,4 -2,39 -11,56 0,0 -7,2 -10,-3 -2,-3 -1,-9 0,-15 1,-6 2,-12 2,-18 1,-10 4,-23 10,-24 1,0 1,0 2,0z"/>
       </g>
      </g>
     </g>
     <path fill="#979A9A" fill-rule="nonzero" d="M288 209l-10 -4 18 -44c5,-13 14,-25 25,-35 11,-9 25,-15 39,-18 18,-3 37,-3 56,1 34,7 62,29 76,61l22 47 -9 4 -22 -47c-13,-29 -38,-49 -69,-55 -17,-4 -36,-4 -52,-1 -26,5 -48,23 -57,47l-17 44z"/>
     <path fill="#1A1A1A" fill-rule="nonzero" d="M298 175c-1,0 -2,0 -3,-1 -5,-2 -7,-8 -5,-13 5,-14 15,-27 27,-37 12,-10 26,-16 41,-19 19,-3 39,-3 58,1 35,7 65,31 80,64 2,5 0,10 -5,13 -5,2 -11,0 -13,-5 -13,-27 -37,-47 -66,-53 -17,-3 -35,-3 -50,0 -24,4 -45,21 -54,44 -2,4 -6,6 -10,6z"/>
    </g>
   </g>
  </g>
  <rect fill="none" width="749" height="749"/>
 </g>
</svg>
