<?xml version="1.0" encoding="UTF-8"?>
<!DOCTYPE svg PUBLIC "-//W3C//DTD SVG 1.1//EN" "http://www.w3.org/Graphics/SVG/1.1/DTD/svg11.dtd">
<!-- Creator: CorelDRAW X8 -->
<svg xmlns="http://www.w3.org/2000/svg" xml:space="preserve" width="59.2666mm" height="59.2666mm" version="1.1" shape-rendering="geometricPrecision" text-rendering="geometricPrecision" image-rendering="optimizeQuality" fill-rule="evenodd" clip-rule="evenodd"
viewBox="0 0 553 553"
 xmlns:xlink="http://www.w3.org/1999/xlink">
 <defs>
    <linearGradient id="id0" gradientUnits="userSpaceOnUse" x1="264.944" y1="72.3899" x2="264.944" y2="398.015">
     <stop offset="0" stop-opacity="1" stop-color="#334476"/>
     <stop offset="1" stop-opacity="1" stop-color="#2E2C32"/>
    </linearGradient>
    <linearGradient id="id1" gradientUnits="userSpaceOnUse" x1="39.7166" y1="543.04" x2="138.922" y2="513.505">
     <stop offset="0" stop-opacity="1" stop-color="#2B2C31"/>
     <stop offset="1" stop-opacity="1" stop-color="#293054"/>
    </linearGradient>
    <linearGradient id="id2" gradientUnits="userSpaceOnUse" x1="476.934" y1="564.026" x2="453.83" y2="432.619">
     <stop offset="0" stop-opacity="1" stop-color="#2B2C31"/>
     <stop offset="1" stop-opacity="1" stop-color="#293054"/>
    </linearGradient>
 </defs>
 <g id="Layer_x0020_1">
  <metadata id="CorelCorpID_0Corel-Layer"/>
  <g id="_1973027653104">
   <g>
    <path fill="#001971" fill-rule="nonzero" fill-opacity="0.160784" d="M480 457l-1 0 -4 -5 -43 -87c-1,-2 -3,-4 -4,-6 -5,-7 -12,-9 -22,-13l-2 0 0 -208c0,-8 -6,-14 -14,-16l1 -21c0,-3 -3,-6 -6,-6l-5 0c-3,0 -5,3 -6,6l0 10c-2,1 -4,2 -4,5l0 6 -58 0 0 -4c0,-3 -2,-5 -4,-5l-58 0c-1,0 -3,2 -3,5l0 4 -81 0c-9,0 -16,7 -16,16l-1 246 -20 15c0,0 -3,3 -3,3 -2,1 -4,3 -6,4l6 -4 -6 5c-3,1 -5,3 -6,5 -2,2 -4,4 -5,7 -1,2 -2,5 -2,8l-5 32 -11 64 0 1 -13 29 67 0 0 -8 -3 -1c0,-1 1,-1 1,-2 2,-2 3,-5 5,-8l19 -24c2,-2 4,-5 5,-8 2,-3 3,-7 4,-10 0,-1 0,-2 0,-3 0,4 5,6 9,6 6,0 10,-4 10,-8l0 0c1,1 3,2 6,2 3,-1 7,-3 7,-5l180 0c9,0 16,-7 16,-16l0 -5 22 17c4,3 8,6 12,10l-11 9c-12,9 -14,26 -5,38l13 16 88 0 0 -42 -43 -54z"/>
   </g>
   <g>
    <path fill="#001971" fill-rule="nonzero" fill-opacity="0.160784" d="M120 407l0 -1c0,1 0,1 -1,1 0,0 1,0 1,0z"/>
   </g>
   <g>
    <polygon fill="#24B0F2" fill-rule="nonzero" points="377,142 378,139 363,139 363,142 "/>
    <path fill="#000046" fill-rule="nonzero" d="M370 292l0 -5c0,0 0,0 0,0 -1,0 -1,0 -1,0l0 5c0,1 0,1 1,1 0,0 0,0 0,-1z"/>
    <polygon fill="#24B0F2" fill-rule="nonzero" points="369,292 367,288 372,288 370,292 "/>
    <polygon fill="#24B0F2" fill-rule="nonzero" points="362,271 377,271 372,288 367,288 "/>
    <path fill="#000046" fill-rule="nonzero" d="M363 142l15 0c0,0 0,0 0,1l0 128c0,1 -1,2 -2,2l-12 0c-1,0 -2,-1 -2,-2l0 -128c0,-1 1,-1 1,-1z"/>
    <path fill="#000046" fill-rule="nonzero" d="M362 138l1 -71c0,-4 2,-6 5,-6l5 0c3,0 6,3 6,6l-1 71c0,1 0,1 0,1l-15 0c0,0 -1,0 -1,-1z"/>
   </g>
   <path fill="#24B0F2" fill-rule="nonzero" d="M369 98l0 -23c0,-1 -1,-2 -3,-2 -1,0 -2,1 -2,2l0 23c0,2 1,3 2,3 2,0 2,-1 3,-3z"/>
   <path fill="#FF6C55" fill-rule="nonzero" d="M132 421c7,2 14,-3 15,-10l7 -34c2,-7 -3,-14 -10,-15 -7,-1 -14,3 -15,10l-7 34c-2,7 3,14 10,15z"/>
   <path fill="#FFA187" fill-rule="nonzero" d="M147 383c3,-2 7,-2 11,-1l3 2c-2,1 -3,3 -4,5l-6 20 -9 8 -3 -27 8 -7z"/>
   <polygon fill="#FFA187" fill-rule="nonzero" points="118,365 139,349 142,375 134,383 "/>
   <path fill="#FF876F" fill-rule="nonzero" d="M182 429l1 21c0,4 -4,8 -10,8 -5,0 -9,-3 -9,-7l3 -33 15 11z"/>
   <path fill="#FF876F" fill-rule="nonzero" d="M196 427l1 18c0,3 -4,6 -8,6 -5,1 -9,-2 -8,-5l2 -28 13 9z"/>
   <path fill="url(#id0)" fill-rule="nonzero" d="M376 450l-222 -1c-9,0 -16,-7 -16,-16l0 -329c0,-9 7,-16 16,-16l222 0c9,0 16,7 16,16l0 329c0,9 -7,17 -16,17z"/>
   <polygon fill="#00001D" fill-rule="nonzero" points="364,427 159,422 152,114 364,114 "/>
   <polygon fill="white" fill-rule="nonzero" points="370,422 158,422 158,109 370,109 "/>
   <path fill="white" fill-rule="nonzero" d="M80 489l-7 24 49 13 0 -1c2,-6 5,-12 8,-17l-50 -20 0 1z"/>
   <path fill="#FFA187" fill-rule="nonzero" d="M173 340c-5,-2 -9,-1 -12,2 -2,2 -3,4 -4,6l-6 20 -13 40c-1,2 -4,2 -4,0l-5 -14c-1,-3 0,-6 2,-8l3 -3 -16 -18 -4 3c-11,8 -17,11 -19,25l-15 95 50 20c1,-2 3,-5 4,-7l21 -28c6,-7 9,-16 9,-25l0 -31c0,-3 1,-6 1,-9l16 -53c1,-6 -2,-13 -8,-15z"/>
   <g>
    <path fill="#FF876F" fill-rule="nonzero" d="M90 425l5 -33c1,-2 1,-5 2,-7 1,-3 3,-5 5,-7 2,-2 4,-4 6,-6l6 -5 -6 5c-2,2 -4,4 -6,6 -2,2 -4,4 -5,7 -1,2 -1,5 -2,7l-5 32 -11 64 1 0 10 -63z"/>
    <path fill="#FF876F" fill-rule="nonzero" d="M182 349c-1,-3 -3,-6 -6,-8 -3,-2 -6,-3 -10,-2 -3,1 -6,3 -8,6 0,1 -1,1 -1,2l-1 3 -1 4 -3 10 -12 38 -2 5c0,1 0,2 -1,2 -1,0 -2,0 -2,0 -1,-1 -1,-1 -1,-2l-1 -2 -2 -5 -2 -5c0,-1 -1,-3 0,-5 0,-1 1,-3 2,-4 1,-1 2,-2 3,-3l0 -1c0,1 0,1 0,1 -1,1 -2,2 -3,3 -2,1 -2,3 -3,4 0,2 0,4 1,5l3 10 1 2c0,0 1,1 1,1 0,1 0,1 1,1 0,1 1,1 2,0 1,0 1,-1 2,-2l1 -5 13 -38 4 -14 1 -2c0,-1 1,-2 1,-3 2,-2 4,-4 7,-5 4,-1 7,0 9,2 3,2 5,4 5,8 0,1 0,3 0,4 0,2 -1,3 -1,5l-6 19 -6 19 -3 10c-1,3 -1,7 -1,10l0 20 -1 10c0,4 0,7 -1,10 -1,3 -2,6 -3,9 -2,3 -3,6 -5,8l-12 16 -6 8c-2,3 -4,6 -6,9 0,0 0,0 0,1l2 0c0,0 0,0 0,0 2,-3 4,-5 6,-8l18 -24c2,-3 4,-6 5,-9 2,-3 3,-6 4,-9 1,-4 1,-7 1,-11l0 -10 0 -20c0,-3 1,-6 2,-9l2 -10 6 -19 5 -19c1,-2 1,-4 2,-5 0,-2 0,-4 0,-6z"/>
    <path fill="white" fill-rule="nonzero" d="M121 524l-47 -12 6 -23 0 0c0,0 0,-1 0,-1l-1 0 0 1 -7 23 0 1 1 0 49 14 1 0 0 -1c2,-6 4,-12 8,-18l-2 0c-4,5 -6,11 -8,16z"/>
   </g>
   <path fill="#FF876F" fill-rule="nonzero" d="M159 353l1 -4c0,0 0,-1 1,-2 0,0 0,-1 1,-1 1,-1 2,-2 3,-2 2,1 3,1 4,1l4 1 2 1c1,0 1,0 2,1 1,0 2,2 2,3 0,1 0,1 0,2l-1 1 0 1 -1 2c0,1 0,2 0,2 -1,2 -2,3 -3,4 -2,1 -5,3 -7,2 -3,0 -6,-2 -7,-4 -1,-3 -2,-5 -1,-8zm0 0c-1,3 0,5 1,8 2,2 4,3 7,4 2,0 5,-2 6,-3 1,-1 2,-2 2,-3 1,-1 1,-3 2,-4l0 -2 0 -1c0,0 1,0 1,-1 0,-1 -1,-2 -2,-2 0,-1 -1,-1 -1,-1l-2 -1 -4 -1c-1,0 -3,-1 -4,-1 -1,0 -2,0 -3,1 -1,0 -1,1 -1,1 -1,1 -1,2 -1,2l-1 4z"/>
   <path fill="#00001D" fill-rule="nonzero" d="M213 103c1,7 6,12 12,12l85 0c6,0 11,-5 12,-12l-109 0z"/>
   <path fill="#75AAEE" fill-rule="nonzero" d="M296 79l-57 0c-2,0 -4,2 -4,5l0 26c0,3 2,5 4,5l57 0c2,0 4,-2 4,-5l0 -26c0,-3 -2,-5 -4,-5z"/>
   <polygon fill="#D6DFFF" fill-rule="nonzero" points="179,256 187,256 187,259 179,259 "/>
   <polygon fill="#D6DFFF" fill-rule="nonzero" points="289,271 252,271 252,273 289,273 "/>
   <polygon fill="#D6DFFF" fill-rule="nonzero" points="179,246 179,249 216,249 213,246 "/>
   <polygon fill="#D6DFFF" fill-rule="nonzero" points="246,243 208,243 213,247 246,247 "/>
   <polygon fill="#D6DFFF" fill-rule="nonzero" points="290,243 255,243 255,247 290,247 "/>
   <polygon fill="#D6DFFF" fill-rule="nonzero" points="179,251 179,254 221,254 218,251 "/>
   <polygon fill="#D6DFFF" fill-rule="nonzero" points="290,251 217,251 222,255 290,255 "/>
   <polygon fill="#D6DFFF" fill-rule="nonzero" points="201,256 201,259 227,259 224,256 "/>
   <polygon fill="#D6DFFF" fill-rule="nonzero" points="290,259 226,259 231,263 290,263 "/>
   <polygon fill="#D6DFFF" fill-rule="nonzero" points="289,266 179,266 179,268 289,268 "/>
   <polygon fill="#D6DFFF" fill-rule="nonzero" points="179,271 247,271 247,273 179,273 "/>
   <polygon fill="#D6DFFF" fill-rule="nonzero" points="179,276 285,276 285,278 179,278 "/>
   <polygon fill="#D6DFFF" fill-rule="nonzero" points="179,282 195,282 195,284 179,284 "/>
   <polygon fill="#D6DFFF" fill-rule="nonzero" points="289,282 201,282 201,284 289,284 "/>
   <polygon fill="#D6DFFF" fill-rule="nonzero" points="353,133 353,135 327,135 327,133 "/>
   <polygon fill="#D6DFFF" fill-rule="nonzero" points="353,138 353,140 327,140 327,138 "/>
   <polygon fill="#D6DFFF" fill-rule="nonzero" points="353,142 353,145 327,145 327,142 "/>
   <polygon fill="#D6DFFF" fill-rule="nonzero" points="291,147 353,147 353,149 291,149 "/>
   <polygon fill="#D6DFFF" fill-rule="nonzero" points="304,156 304,158 353,158 353,156 "/>
   <polygon fill="#D6DFFF" fill-rule="nonzero" points="304,163 306,163 304,161 "/>
   <polygon fill="#D6DFFF" fill-rule="nonzero" points="353,160 304,160 304,161 306,163 353,163 "/>
   <polygon fill="#D6DFFF" fill-rule="nonzero" points="313,168 312,167 312,168 "/>
   <polygon fill="#D6DFFF" fill-rule="nonzero" points="312,167 310,165 304,165 304,168 312,168 "/>
   <polygon fill="#D6DFFF" fill-rule="nonzero" points="310,165 312,167 312,165 "/>
   <polygon fill="#D6DFFF" fill-rule="nonzero" points="353,168 353,165 312,165 312,167 313,168 "/>
   <polygon fill="#D6DFFF" fill-rule="nonzero" points="291,133 321,133 321,135 291,135 "/>
   <polygon fill="#D6DFFF" fill-rule="nonzero" points="291,138 321,138 321,140 291,140 "/>
   <polygon fill="#D6DFFF" fill-rule="nonzero" points="291,142 321,142 321,145 291,145 "/>
   <polygon fill="#D6DFFF" fill-rule="nonzero" points="298,156 296,156 298,157 "/>
   <polygon fill="#D6DFFF" fill-rule="nonzero" points="327,171 313,171 314,173 327,173 "/>
   <polygon fill="#D6DFFF" fill-rule="nonzero" points="327,176 314,176 315,178 327,178 "/>
   <polygon fill="#D6DFFF" fill-rule="nonzero" points="327,180 316,180 316,183 327,183 "/>
   <polygon fill="#D6DFFF" fill-rule="nonzero" points="353,185 317,185 318,187 353,187 "/>
   <polygon fill="#D6DFFF" fill-rule="nonzero" points="353,190 318,190 319,192 353,192 "/>
   <polygon fill="#D6DFFF" fill-rule="nonzero" points="353,194 319,194 320,197 353,197 "/>
   <polygon fill="#D6DFFF" fill-rule="nonzero" points="353,199 321,199 321,201 353,201 "/>
   <polygon fill="#D6DFFF" fill-rule="nonzero" points="324,206 324,204 322,204 323,206 "/>
   <polygon fill="#D6DFFF" fill-rule="nonzero" points="323,209 323,209 322,211 324,211 "/>
   <polygon fill="#D6DFFF" fill-rule="nonzero" points="324,211 324,209 323,209 324,211 "/>
   <polygon fill="#D6DFFF" fill-rule="nonzero" points="324,213 322,213 321,216 324,216 "/>
   <polygon fill="#D6DFFF" fill-rule="nonzero" points="324,218 321,218 321,221 324,221 "/>
   <polygon fill="#D6DFFF" fill-rule="nonzero" points="324,228 319,228 319,230 324,230 "/>
   <g>
    <polygon fill="#D6DFFF" fill-rule="nonzero" points="300,151 291,151 291,155 302,155 302,152 "/>
    <polygon fill="#D6DFFF" fill-rule="nonzero" points="291,160 302,160 302,156 291,156 "/>
    <polygon fill="#D6DFFF" fill-rule="nonzero" points="291,168 309,168 309,165 291,165 "/>
    <polygon fill="#D6DFFF" fill-rule="nonzero" points="321,175 291,175 291,179 321,179 "/>
    <polygon fill="#D6DFFF" fill-rule="nonzero" points="321,183 291,183 291,187 321,187 "/>
    <polygon fill="#D6DFFF" fill-rule="nonzero" points="321,191 291,191 291,195 321,195 "/>
    <polygon fill="#D6DFFF" fill-rule="nonzero" points="321,198 312,198 312,202 321,202 "/>
    <polygon fill="#D6DFFF" fill-rule="nonzero" points="321,206 291,206 291,210 321,210 "/>
    <polygon fill="#D6DFFF" fill-rule="nonzero" points="304,222 291,222 291,226 304,226 "/>
    <polygon fill="#D6DFFF" fill-rule="nonzero" points="321,230 291,230 291,234 321,234 "/>
   </g>
   <polygon fill="#D6DFFF" fill-rule="nonzero" points="353,232 319,232 318,235 353,235 "/>
   <g>
    <path fill="#00001D" fill-rule="nonzero" d="M249 92c0,2 -2,4 -4,4 -3,0 -4,-2 -4,-4 0,-2 1,-4 4,-4 2,0 4,2 4,4z"/>
    <path fill="#00001D" fill-rule="nonzero" d="M295 92c0,2 -2,4 -5,4 -2,0 -4,-2 -4,-4 0,-2 2,-4 4,-4 3,0 5,2 5,4z"/>
   </g>
   <path fill="url(#id1)" fill-rule="nonzero" d="M154 553c3,-13 -3,-25 -15,-31l-63 -27 -24 58 102 0z"/>
   <path fill="black" fill-rule="nonzero" d="M141 542c0,4 -3,7 -6,7 -4,0 -6,-3 -6,-7 0,-3 2,-6 6,-6 3,0 6,3 6,6z"/>
   <g>
    <path fill="#24B0F2" fill-rule="nonzero" d="M358 150c0,0 -1,0 -1,-1l0 -68c0,-3 3,-5 6,-5 0,0 3,0 3,0 1,0 1,0 1,1 0,1 -1,1 -1,1 0,0 -3,0 -3,0 -2,0 -3,2 -3,3l0 68c0,1 -1,1 -2,1z"/>
   </g>
   <path fill="#FF3384" fill-rule="nonzero" d="M260 144l-3 2 5 0c0,-1 -1,-1 -2,-2z"/>
   <path fill="#FF3384" fill-rule="nonzero" d="M271 139l-5 1 -21 21c0,0 0,0 1,1 8,8 8,22 0,31l23 23c21,-21 22,-55 2,-77z"/>
   <path fill="#1353B0" fill-rule="nonzero" d="M246 193c0,0 0,0 0,0 -9,9 -23,9 -32,0 0,0 0,0 -1,-1l-14 15 -2 16c22,15 52,13 72,-7 0,0 0,0 0,0l-23 -23z"/>
   <path fill="#8EAADC" fill-rule="nonzero" d="M259 143c-9,-9 -21,-14 -32,-14l0 23 11 -6 -4 0 4 0 4 -2 -4 2 19 -1 2 -2c0,0 0,0 0,0z"/>
   <path fill="#8EAADC" fill-rule="nonzero" d="M229 149l0 6c6,0 11,2 16,6l21 -21 -23 1 -14 8z"/>
   <path fill="#1353B0" fill-rule="nonzero" d="M227 129c-12,0 -23,5 -32,13l18 19 0 0 2 -3 -2 3 14 -9 0 -23z"/>
   <path fill="#1353B0" fill-rule="nonzero" d="M211 163c0,0 0,0 0,0l0 0z"/>
   <path fill="#1353B0" fill-rule="nonzero" d="M226 160l0 -6 -15 9 0 0 2 2c3,-3 8,-5 13,-5z"/>
   <path fill="#1353B0" fill-rule="nonzero" d="M214 161l-2 -2 -10 19 -3 29 14 -15c-8,-9 -7,-22 1,-30 0,0 0,-1 0,-1z"/>
   <path fill="#1353B0" fill-rule="nonzero" d="M203 180l2 -4 1 -2 -1 2 8 -15c0,0 -2,1 -2,1l2 -1 -18 -19c0,0 0,1 0,1 -18,17 -18,46 0,63 0,0 0,0 0,0l8 -7 2 -23 -2 4z"/>
   <g>
    <polygon fill="#1353B0" fill-rule="nonzero" points="205,400 191,400 191,369 205,369 "/>
    <polygon fill="#FF3384" fill-rule="nonzero" points="227,400 212,400 212,357 227,357 "/>
    <polygon fill="#8EAADC" fill-rule="nonzero" points="248,400 234,400 234,377 248,377 "/>
    <polygon fill="#1353B0" fill-rule="nonzero" points="269,400 255,400 255,319 269,319 "/>
    <polygon fill="#FF3384" fill-rule="nonzero" points="291,400 276,400 276,350 291,350 "/>
    <polygon fill="#8EAADC" fill-rule="nonzero" points="312,400 298,400 298,322 312,322 "/>
    <polygon fill="#1353B0" fill-rule="nonzero" points="333,400 319,400 319,299 333,299 "/>
   </g>
   <g>
    <path fill="#001971" fill-rule="nonzero" fill-opacity="0.160784" d="M390 347c-3,-1 -5,-2 -8,-3l-4 -2 -25 -9 -10 -4c-3,-1 -6,-1 -9,1l-12 -19c-5,-7 -14,-10 -22,-7l-7 -12c27,-22 34,-61 15,-91 -20,-32 -63,-42 -95,-21 -33,20 -42,63 -22,95 19,31 59,41 90,24l9 14c-3,6 -3,13 1,19l16 23 -10 11c-2,3 -1,7 2,9 0,0 0,0 1,1 4,2 9,2 13,0l-1 27c0,3 2,6 4,6 4,2 8,1 11,-2l0 0c1,-1 2,-2 3,-4l0 1 10 17c1,3 4,5 8,4 2,0 4,-1 5,-3l2 4c0,0 1,1 1,1l3 8c1,5 3,9 6,12 0,1 1,2 1,2l5 0c10,0 19,-8 19,-19l0 -83zm-112 -59l0 0c-6,4 -13,7 -21,8 -22,3 -46,-7 -58,-27 -17,-28 -8,-64 20,-80 5,-3 11,-6 16,-7 24,-6 50,4 63,26 17,28 8,64 -20,80z"/>
   </g>
   <g>
    <path fill="#FF6C55" fill-rule="nonzero" d="M393 369c-6,3 -14,1 -17,-6l-17 -30c-4,-6 -1,-14 5,-17 6,-4 14,-2 18,5l16 30c4,6 2,14 -5,18z"/>
    <path fill="#FFA187" fill-rule="nonzero" d="M355 297c-4,-1 -8,0 -11,3l-2 2c2,1 4,2 5,4l12 17 10 5 -4 -27 -10 -4z"/>
    <path fill="#F46F55" fill-rule="nonzero" d="M342 372l10 18c2,3 6,5 10,3 4,-2 5,-7 3,-10l-19 -27 -4 16z"/>
    <g>
     <polygon fill="#0B0468" fill-rule="nonzero" points="307,290 319,282 303,257 291,264 "/>
     <path fill="#000046" fill-rule="nonzero" d="M298 265c33,-21 42,-64 22,-96 -20,-32 -63,-42 -95,-21 -33,20 -42,63 -22,96 20,32 63,41 95,21zm-87 -28l0 0c-17,-28 -8,-63 20,-80 5,-3 11,-5 16,-7 24,-6 50,4 63,27 17,27 8,63 -20,79 -6,4 -13,7 -21,8 -22,4 -46,-6 -58,-27z"/>
    </g>
    <path fill="#FF876F" fill-rule="nonzero" d="M325 340l-1 32c0,2 2,5 4,6 4,1 8,0 11,-3l0 0c4,-5 7,-11 8,-17 0,0 -15,-22 -15,-22l-7 4z"/>
    <path fill="#FFA187" fill-rule="nonzero" d="M319 322l-10 12c-2,3 -1,7 2,9 0,0 0,1 1,1 4,3 9,2 13,0l6 -4 -12 -18z"/>
    <path fill="#000A45" fill-rule="nonzero" d="M393 393l-6 5c-7,4 -16,2 -20,-4l-64 -94c-6,-8 -3,-20 5,-26 8,-5 20,-3 26,5l63 94c5,7 3,15 -4,20z"/>
    <path fill="#FFA187" fill-rule="nonzero" d="M463 417l-43 -86c-6,-13 -13,-14 -26,-19l-4 -2 -11 22 4 2c3,2 5,5 5,8l-1 14c0,3 -3,3 -4,2l-24 -35 -12 -17c-1,-2 -3,-3 -5,-4 -4,-2 -8,-2 -12,1 -6,4 -7,11 -3,17l30 46c2,3 3,5 4,8l10 29c3,9 8,17 15,22l29 20c2,2 4,4 6,6l42 -33 0 -1z"/>
    <path fill="white" fill-rule="nonzero" d="M463 418l-42 33c5,4 9,8 12,14l1 0 43 -27 -14 -20z"/>
    <g>
     <path fill="#FF876F" fill-rule="nonzero" d="M379 332l0 0c0,0 0,0 0,0l0 0z"/>
     <path fill="#FF876F" fill-rule="nonzero" d="M435 465c-1,-1 -1,-1 -1,-1l-1 0 2 1z"/>
     <polygon fill="#FF876F" fill-rule="nonzero" points="476,437 476,438 476,439 "/>
     <path fill="#FF876F" fill-rule="nonzero" d="M421 449c-2,-2 -5,-4 -8,-6l-8 -6 -16 -12c-3,-2 -5,-4 -7,-6 -3,-2 -5,-5 -6,-8 -2,-2 -3,-5 -4,-8l-3 -10 -7 -19c-1,-3 -2,-6 -4,-9l-6 -9 -11 -16 -11 -17c-1,-1 -2,-3 -3,-4 -1,-1 -1,-3 -1,-5 -1,-3 0,-6 2,-8 2,-3 5,-5 8,-5 3,0 6,1 9,3 0,1 1,1 1,2l2 2 3 4 5 8 24 33 3 4c0,1 1,2 2,2 0,0 1,-1 2,-1 0,-1 0,-1 0,-1 1,-1 1,-1 1,-2l0 -2 0 -5 0 -5c0,-2 0,-4 -1,-5 -1,-2 -2,-3 -3,-4 -2,0 -3,-1 -5,-2l0 0 0 0c0,0 0,0 0,0l11 -22 4 2 -4 -2c0,0 -11,22 -11,22l0 0 0 0c2,1 3,2 5,2 1,1 2,2 3,4 1,1 1,3 1,5l0 5 -1 5 0 2c0,1 0,2 0,3 -1,0 -2,0 -2,0 -1,0 -2,0 -2,-1l-3 -4 -23 -33 -6 -8 -2 -5 -2 -2c0,0 -1,-1 -2,-2 -2,-2 -6,-3 -9,-3 -4,0 -7,2 -9,5 -3,2 -3,6 -3,10 0,1 1,3 2,5 1,1 2,3 3,4l10 17 11 17 6 8c2,3 3,6 4,9l6 19 3 9c1,4 3,7 4,10 2,3 4,5 7,8 2,2 5,5 8,6l16 12 8 6c3,2 5,4 8,6 0,0 0,0 0,0l2 -1c0,0 0,0 -1,-1z"/>
     <path fill="white" fill-rule="nonzero" d="M477 438l-13 -21 -1 1 13 20 0 -1 0 2 0 -1 -42 26c0,0 0,0 1,1l-2 -1 1 0c-3,-5 -8,-10 -12,-14l-2 1c5,5 9,10 13,15l0 1 1 -1 43 -27 1 -1 -1 0z"/>
     <path fill="#FF876F" fill-rule="nonzero" d="M409 318c2,1 4,3 6,5 2,2 3,5 4,7l15 29 28 59c0,0 1,0 1,0l1 -1 -1 0 1 0 -1 0c0,0 -29,-58 -29,-58l-14 -29c-2,-2 -3,-5 -5,-7 -2,-2 -4,-4 -6,-5 -2,-1 -5,-2 -7,-3l-8 -3 8 3c2,1 5,2 7,3z"/>
     <path fill="#FF876F" fill-rule="nonzero" d="M464 417l-1 0c0,0 1,0 1,0z"/>
    </g>
    <g>
     <path fill="#FF876F" fill-rule="nonzero" d="M347 312l-2 -4c-1,0 -1,-1 -1,-1 -1,-1 -1,-1 -2,-2 -1,0 -2,0 -3,1 -2,0 -3,1 -4,2l-3 2 -2 1c0,0 0,1 -1,1 0,1 -1,2 0,3 0,1 0,1 0,1l1 1 1 2c0,1 1,2 2,3 1,1 2,1 3,2 2,1 5,2 7,1 2,-1 4,-3 5,-6 1,-2 0,-5 -1,-7zm0 0c1,2 2,5 1,7 0,3 -2,5 -5,6 -2,1 -5,1 -8,0 -1,-1 -2,-1 -3,-2 0,-1 -1,-1 -1,-2l-1 -2 -1 -1 -1 -1c0,0 0,-1 0,-1 -1,-2 -1,-3 0,-4 1,-1 1,-1 2,-2l2 -1 3 -2c1,-1 2,-1 3,-2 2,0 3,0 4,0 1,1 1,1 2,2 0,0 0,1 1,1l2 4z"/>
    </g>
    <polygon fill="#FFA187" fill-rule="nonzero" points="390,310 365,301 369,328 379,332 "/>
   </g>
   <path fill="url(#id2)" fill-rule="nonzero" d="M450 553l73 0 0 -59 -55 -72 -53 42c-12,10 -14,27 -5,38l40 51z"/>
   <path fill="black" fill-rule="nonzero" d="M434 487c0,5 -3,8 -8,8 -4,0 -8,-3 -8,-8 0,-5 4,-8 8,-8 5,0 8,3 8,8z"/>
  </g>
  <rect fill="none" width="553" height="553"/>
 </g>
</svg>
